<?xml version="1.0" encoding="utf-8" standalone="no"?>
<!DOCTYPE svg PUBLIC "-//W3C//DTD SVG 1.1//EN"
  "http://www.w3.org/Graphics/SVG/1.1/DTD/svg11.dtd">
<!-- Created with matplotlib (https://matplotlib.org/) -->
<svg height="536.5125pt" version="1.1" viewBox="0 0 856.8225 536.5125" width="856.8225pt" xmlns="http://www.w3.org/2000/svg" xmlns:xlink="http://www.w3.org/1999/xlink">
 <defs>
  <style type="text/css">
*{stroke-linecap:butt;stroke-linejoin:round;}
  </style>
 </defs>
 <g id="figure_1">
  <g id="patch_1">
   <path d="M 0 536.5125 
L 856.8225 536.5125 
L 856.8225 0 
L 0 0 
z
" style="fill:#ffffff;"/>
  </g>
  <g id="axes_1">
   <g id="patch_2">
    <path d="M 68.4225 488.48 
L 849.6225 488.48 
L 849.6225 53.6 
L 68.4225 53.6 
z
" style="fill:#ffffff;"/>
   </g>
   <g id="patch_3">
    <path clip-path="url(#pe5103f18ba)" d="M 83.486963 479.495121 
L 848.905145 479.495121 
L 848.905145 402.739581 
L 83.486963 402.739581 
L 83.486963 479.495121 
z
" style="fill:none;stroke:#808080;stroke-linejoin:miter;"/>
   </g>
   <g id="patch_4">
    <path clip-path="url(#pe5103f18ba)" d="M 83.486963 479.495121 
L 848.905145 479.495121 
L 848.905145 402.739581 
L 83.486963 402.739581 
L 83.486963 479.495121 
z
" style="fill:none;stroke:#808080;stroke-linejoin:miter;"/>
   </g>
   <g id="matplotlib.axis_1">
    <g id="xtick_1">
     <g id="line2d_1">
      <path clip-path="url(#pe5103f18ba)" d="M 103.931591 488.48 
L 103.931591 53.6 
" style="fill:none;stroke:#b0b0b0;stroke-linecap:square;stroke-width:0.8;"/>
     </g>
     <g id="line2d_2">
      <defs>
       <path d="M 0 0 
L 0 3.5 
" id="m2022d92f42" style="stroke:#000000;stroke-width:0.8;"/>
      </defs>
      <g>
       <use style="stroke:#000000;stroke-width:0.8;" x="103.931591" xlink:href="#m2022d92f42" y="488.48"/>
      </g>
     </g>
     <g id="text_1">
      <!-- 0 -->
      <defs>
       <path d="M 4.15625 35.296875 
Q 4.15625 48 6.765625 55.734375 
Q 9.375 63.484375 14.515625 67.671875 
Q 19.671875 71.875 27.484375 71.875 
Q 33.25 71.875 37.59375 69.546875 
Q 41.9375 67.234375 44.765625 62.859375 
Q 47.609375 58.5 49.21875 52.21875 
Q 50.828125 45.953125 50.828125 35.296875 
Q 50.828125 22.703125 48.234375 14.96875 
Q 45.65625 7.234375 40.5 3 
Q 35.359375 -1.21875 27.484375 -1.21875 
Q 17.140625 -1.21875 11.234375 6.203125 
Q 4.15625 15.140625 4.15625 35.296875 
z
M 13.1875 35.296875 
Q 13.1875 17.671875 17.3125 11.828125 
Q 21.4375 6 27.484375 6 
Q 33.546875 6 37.671875 11.859375 
Q 41.796875 17.71875 41.796875 35.296875 
Q 41.796875 52.984375 37.671875 58.78125 
Q 33.546875 64.59375 27.390625 64.59375 
Q 21.34375 64.59375 17.71875 59.46875 
Q 13.1875 52.9375 13.1875 35.296875 
z
" id="ArialMT-48"/>
      </defs>
      <g transform="translate(99.482841 506.9325)scale(0.16 -0.16)">
       <use xlink:href="#ArialMT-48"/>
      </g>
     </g>
    </g>
    <g id="xtick_2">
     <g id="line2d_3">
      <path clip-path="url(#pe5103f18ba)" d="M 247.402665 488.48 
L 247.402665 53.6 
" style="fill:none;stroke:#b0b0b0;stroke-linecap:square;stroke-width:0.8;"/>
     </g>
     <g id="line2d_4">
      <g>
       <use style="stroke:#000000;stroke-width:0.8;" x="247.402665" xlink:href="#m2022d92f42" y="488.48"/>
      </g>
     </g>
     <g id="text_2">
      <!-- 20 -->
      <defs>
       <path d="M 50.34375 8.453125 
L 50.34375 0 
L 3.03125 0 
Q 2.9375 3.171875 4.046875 6.109375 
Q 5.859375 10.9375 9.828125 15.625 
Q 13.8125 20.3125 21.34375 26.46875 
Q 33.015625 36.03125 37.109375 41.625 
Q 41.21875 47.21875 41.21875 52.203125 
Q 41.21875 57.421875 37.46875 61 
Q 33.734375 64.59375 27.734375 64.59375 
Q 21.390625 64.59375 17.578125 60.78125 
Q 13.765625 56.984375 13.71875 50.25 
L 4.6875 51.171875 
Q 5.609375 61.28125 11.65625 66.578125 
Q 17.71875 71.875 27.9375 71.875 
Q 38.234375 71.875 44.234375 66.15625 
Q 50.25 60.453125 50.25 52 
Q 50.25 47.703125 48.484375 43.546875 
Q 46.734375 39.40625 42.65625 34.8125 
Q 38.578125 30.21875 29.109375 22.21875 
Q 21.1875 15.578125 18.9375 13.203125 
Q 16.703125 10.84375 15.234375 8.453125 
z
" id="ArialMT-50"/>
      </defs>
      <g transform="translate(238.505165 506.9325)scale(0.16 -0.16)">
       <use xlink:href="#ArialMT-50"/>
       <use x="55.615234" xlink:href="#ArialMT-48"/>
      </g>
     </g>
    </g>
    <g id="xtick_3">
     <g id="line2d_5">
      <path clip-path="url(#pe5103f18ba)" d="M 390.87374 488.48 
L 390.87374 53.6 
" style="fill:none;stroke:#b0b0b0;stroke-linecap:square;stroke-width:0.8;"/>
     </g>
     <g id="line2d_6">
      <g>
       <use style="stroke:#000000;stroke-width:0.8;" x="390.87374" xlink:href="#m2022d92f42" y="488.48"/>
      </g>
     </g>
     <g id="text_3">
      <!-- 40 -->
      <defs>
       <path d="M 32.328125 0 
L 32.328125 17.140625 
L 1.265625 17.140625 
L 1.265625 25.203125 
L 33.9375 71.578125 
L 41.109375 71.578125 
L 41.109375 25.203125 
L 50.78125 25.203125 
L 50.78125 17.140625 
L 41.109375 17.140625 
L 41.109375 0 
z
M 32.328125 25.203125 
L 32.328125 57.46875 
L 9.90625 25.203125 
z
" id="ArialMT-52"/>
      </defs>
      <g transform="translate(381.97624 506.9325)scale(0.16 -0.16)">
       <use xlink:href="#ArialMT-52"/>
       <use x="55.615234" xlink:href="#ArialMT-48"/>
      </g>
     </g>
    </g>
    <g id="xtick_4">
     <g id="line2d_7">
      <path clip-path="url(#pe5103f18ba)" d="M 534.344814 488.48 
L 534.344814 53.6 
" style="fill:none;stroke:#b0b0b0;stroke-linecap:square;stroke-width:0.8;"/>
     </g>
     <g id="line2d_8">
      <g>
       <use style="stroke:#000000;stroke-width:0.8;" x="534.344814" xlink:href="#m2022d92f42" y="488.48"/>
      </g>
     </g>
     <g id="text_4">
      <!-- 60 -->
      <defs>
       <path d="M 49.75 54.046875 
L 41.015625 53.375 
Q 39.84375 58.546875 37.703125 60.890625 
Q 34.125 64.65625 28.90625 64.65625 
Q 24.703125 64.65625 21.53125 62.3125 
Q 17.390625 59.28125 14.984375 53.46875 
Q 12.59375 47.65625 12.5 36.921875 
Q 15.671875 41.75 20.265625 44.09375 
Q 24.859375 46.4375 29.890625 46.4375 
Q 38.671875 46.4375 44.84375 39.96875 
Q 51.03125 33.5 51.03125 23.25 
Q 51.03125 16.5 48.125 10.71875 
Q 45.21875 4.9375 40.140625 1.859375 
Q 35.0625 -1.21875 28.609375 -1.21875 
Q 17.625 -1.21875 10.6875 6.859375 
Q 3.765625 14.9375 3.765625 33.5 
Q 3.765625 54.25 11.421875 63.671875 
Q 18.109375 71.875 29.4375 71.875 
Q 37.890625 71.875 43.28125 67.140625 
Q 48.6875 62.40625 49.75 54.046875 
z
M 13.875 23.1875 
Q 13.875 18.65625 15.796875 14.5 
Q 17.71875 10.359375 21.1875 8.171875 
Q 24.65625 6 28.46875 6 
Q 34.03125 6 38.03125 10.484375 
Q 42.046875 14.984375 42.046875 22.703125 
Q 42.046875 30.125 38.078125 34.390625 
Q 34.125 38.671875 28.125 38.671875 
Q 22.171875 38.671875 18.015625 34.390625 
Q 13.875 30.125 13.875 23.1875 
z
" id="ArialMT-54"/>
      </defs>
      <g transform="translate(525.447314 506.9325)scale(0.16 -0.16)">
       <use xlink:href="#ArialMT-54"/>
       <use x="55.615234" xlink:href="#ArialMT-48"/>
      </g>
     </g>
    </g>
    <g id="xtick_5">
     <g id="line2d_9">
      <path clip-path="url(#pe5103f18ba)" d="M 677.815888 488.48 
L 677.815888 53.6 
" style="fill:none;stroke:#b0b0b0;stroke-linecap:square;stroke-width:0.8;"/>
     </g>
     <g id="line2d_10">
      <g>
       <use style="stroke:#000000;stroke-width:0.8;" x="677.815888" xlink:href="#m2022d92f42" y="488.48"/>
      </g>
     </g>
     <g id="text_5">
      <!-- 80 -->
      <defs>
       <path d="M 17.671875 38.8125 
Q 12.203125 40.828125 9.5625 44.53125 
Q 6.9375 48.25 6.9375 53.421875 
Q 6.9375 61.234375 12.546875 66.546875 
Q 18.171875 71.875 27.484375 71.875 
Q 36.859375 71.875 42.578125 66.421875 
Q 48.296875 60.984375 48.296875 53.171875 
Q 48.296875 48.1875 45.671875 44.5 
Q 43.0625 40.828125 37.75 38.8125 
Q 44.34375 36.671875 47.78125 31.875 
Q 51.21875 27.09375 51.21875 20.453125 
Q 51.21875 11.28125 44.71875 5.03125 
Q 38.234375 -1.21875 27.640625 -1.21875 
Q 17.046875 -1.21875 10.546875 5.046875 
Q 4.046875 11.328125 4.046875 20.703125 
Q 4.046875 27.6875 7.59375 32.390625 
Q 11.140625 37.109375 17.671875 38.8125 
z
M 15.921875 53.71875 
Q 15.921875 48.640625 19.1875 45.40625 
Q 22.46875 42.1875 27.6875 42.1875 
Q 32.765625 42.1875 36.015625 45.375 
Q 39.265625 48.578125 39.265625 53.21875 
Q 39.265625 58.0625 35.90625 61.359375 
Q 32.5625 64.65625 27.59375 64.65625 
Q 22.5625 64.65625 19.234375 61.421875 
Q 15.921875 58.203125 15.921875 53.71875 
z
M 13.09375 20.65625 
Q 13.09375 16.890625 14.875 13.375 
Q 16.65625 9.859375 20.171875 7.921875 
Q 23.6875 6 27.734375 6 
Q 34.03125 6 38.125 10.046875 
Q 42.234375 14.109375 42.234375 20.359375 
Q 42.234375 26.703125 38.015625 30.859375 
Q 33.796875 35.015625 27.4375 35.015625 
Q 21.234375 35.015625 17.15625 30.90625 
Q 13.09375 26.8125 13.09375 20.65625 
z
" id="ArialMT-56"/>
      </defs>
      <g transform="translate(668.918388 506.9325)scale(0.16 -0.16)">
       <use xlink:href="#ArialMT-56"/>
       <use x="55.615234" xlink:href="#ArialMT-48"/>
      </g>
     </g>
    </g>
    <g id="xtick_6">
     <g id="line2d_11">
      <path clip-path="url(#pe5103f18ba)" d="M 821.286963 488.48 
L 821.286963 53.6 
" style="fill:none;stroke:#b0b0b0;stroke-linecap:square;stroke-width:0.8;"/>
     </g>
     <g id="line2d_12">
      <g>
       <use style="stroke:#000000;stroke-width:0.8;" x="821.286963" xlink:href="#m2022d92f42" y="488.48"/>
      </g>
     </g>
     <g id="text_6">
      <!-- 100 -->
      <defs>
       <path d="M 37.25 0 
L 28.46875 0 
L 28.46875 56 
Q 25.296875 52.984375 20.140625 49.953125 
Q 14.984375 46.921875 10.890625 45.40625 
L 10.890625 53.90625 
Q 18.265625 57.375 23.78125 62.296875 
Q 29.296875 67.234375 31.59375 71.875 
L 37.25 71.875 
z
" id="ArialMT-49"/>
      </defs>
      <g transform="translate(807.940713 506.9325)scale(0.16 -0.16)">
       <use xlink:href="#ArialMT-49"/>
       <use x="55.615234" xlink:href="#ArialMT-48"/>
       <use x="111.230469" xlink:href="#ArialMT-48"/>
      </g>
     </g>
    </g>
    <g id="text_7">
     <!-- Transmission Delay ($\mu$s) -->
     <defs>
      <path d="M 25.921875 0 
L 25.921875 63.140625 
L 2.34375 63.140625 
L 2.34375 71.578125 
L 59.078125 71.578125 
L 59.078125 63.140625 
L 35.40625 63.140625 
L 35.40625 0 
z
" id="ArialMT-84"/>
      <path d="M 6.5 0 
L 6.5 51.859375 
L 14.40625 51.859375 
L 14.40625 44 
Q 17.4375 49.515625 20 51.265625 
Q 22.5625 53.03125 25.640625 53.03125 
Q 30.078125 53.03125 34.671875 50.203125 
L 31.640625 42.046875 
Q 28.421875 43.953125 25.203125 43.953125 
Q 22.3125 43.953125 20.015625 42.21875 
Q 17.71875 40.484375 16.75 37.40625 
Q 15.28125 32.71875 15.28125 27.15625 
L 15.28125 0 
z
" id="ArialMT-114"/>
      <path d="M 40.4375 6.390625 
Q 35.546875 2.25 31.03125 0.53125 
Q 26.515625 -1.171875 21.34375 -1.171875 
Q 12.796875 -1.171875 8.203125 3 
Q 3.609375 7.171875 3.609375 13.671875 
Q 3.609375 17.484375 5.34375 20.625 
Q 7.078125 23.78125 9.890625 25.6875 
Q 12.703125 27.59375 16.21875 28.5625 
Q 18.796875 29.25 24.03125 29.890625 
Q 34.671875 31.15625 39.703125 32.90625 
Q 39.75 34.71875 39.75 35.203125 
Q 39.75 40.578125 37.25 42.78125 
Q 33.890625 45.75 27.25 45.75 
Q 21.046875 45.75 18.09375 43.578125 
Q 15.140625 41.40625 13.71875 35.890625 
L 5.125 37.0625 
Q 6.296875 42.578125 8.984375 45.96875 
Q 11.671875 49.359375 16.75 51.1875 
Q 21.828125 53.03125 28.515625 53.03125 
Q 35.15625 53.03125 39.296875 51.46875 
Q 43.453125 49.90625 45.40625 47.53125 
Q 47.359375 45.171875 48.140625 41.546875 
Q 48.578125 39.3125 48.578125 33.453125 
L 48.578125 21.734375 
Q 48.578125 9.46875 49.140625 6.21875 
Q 49.703125 2.984375 51.375 0 
L 42.1875 0 
Q 40.828125 2.734375 40.4375 6.390625 
z
M 39.703125 26.03125 
Q 34.90625 24.078125 25.34375 22.703125 
Q 19.921875 21.921875 17.671875 20.9375 
Q 15.4375 19.96875 14.203125 18.09375 
Q 12.984375 16.21875 12.984375 13.921875 
Q 12.984375 10.40625 15.640625 8.0625 
Q 18.3125 5.71875 23.4375 5.71875 
Q 28.515625 5.71875 32.46875 7.9375 
Q 36.421875 10.15625 38.28125 14.015625 
Q 39.703125 17 39.703125 22.796875 
z
" id="ArialMT-97"/>
      <path d="M 6.59375 0 
L 6.59375 51.859375 
L 14.5 51.859375 
L 14.5 44.484375 
Q 20.21875 53.03125 31 53.03125 
Q 35.6875 53.03125 39.625 51.34375 
Q 43.5625 49.65625 45.515625 46.921875 
Q 47.46875 44.1875 48.25 40.4375 
Q 48.734375 37.984375 48.734375 31.890625 
L 48.734375 0 
L 39.9375 0 
L 39.9375 31.546875 
Q 39.9375 36.921875 38.90625 39.578125 
Q 37.890625 42.234375 35.28125 43.8125 
Q 32.671875 45.40625 29.15625 45.40625 
Q 23.53125 45.40625 19.453125 41.84375 
Q 15.375 38.28125 15.375 28.328125 
L 15.375 0 
z
" id="ArialMT-110"/>
      <path d="M 3.078125 15.484375 
L 11.765625 16.84375 
Q 12.5 11.625 15.84375 8.84375 
Q 19.1875 6.0625 25.203125 6.0625 
Q 31.25 6.0625 34.171875 8.515625 
Q 37.109375 10.984375 37.109375 14.3125 
Q 37.109375 17.28125 34.515625 19 
Q 32.71875 20.171875 25.53125 21.96875 
Q 15.875 24.421875 12.140625 26.203125 
Q 8.40625 27.984375 6.46875 31.125 
Q 4.546875 34.28125 4.546875 38.09375 
Q 4.546875 41.546875 6.125 44.5 
Q 7.71875 47.46875 10.453125 49.421875 
Q 12.5 50.921875 16.03125 51.96875 
Q 19.578125 53.03125 23.640625 53.03125 
Q 29.734375 53.03125 34.34375 51.265625 
Q 38.96875 49.515625 41.15625 46.5 
Q 43.359375 43.5 44.1875 38.484375 
L 35.59375 37.3125 
Q 35.015625 41.3125 32.203125 43.546875 
Q 29.390625 45.796875 24.265625 45.796875 
Q 18.21875 45.796875 15.625 43.796875 
Q 13.03125 41.796875 13.03125 39.109375 
Q 13.03125 37.40625 14.109375 36.03125 
Q 15.1875 34.625 17.484375 33.6875 
Q 18.796875 33.203125 25.25 31.453125 
Q 34.578125 28.953125 38.25 27.359375 
Q 41.9375 25.78125 44.03125 22.75 
Q 46.140625 19.734375 46.140625 15.234375 
Q 46.140625 10.84375 43.578125 6.953125 
Q 41.015625 3.078125 36.171875 0.953125 
Q 31.34375 -1.171875 25.25 -1.171875 
Q 15.140625 -1.171875 9.84375 3.03125 
Q 4.546875 7.234375 3.078125 15.484375 
z
" id="ArialMT-115"/>
      <path d="M 6.59375 0 
L 6.59375 51.859375 
L 14.453125 51.859375 
L 14.453125 44.578125 
Q 16.890625 48.390625 20.9375 50.703125 
Q 25 53.03125 30.171875 53.03125 
Q 35.9375 53.03125 39.625 50.640625 
Q 43.3125 48.25 44.828125 43.953125 
Q 50.984375 53.03125 60.84375 53.03125 
Q 68.5625 53.03125 72.703125 48.75 
Q 76.859375 44.484375 76.859375 35.59375 
L 76.859375 0 
L 68.109375 0 
L 68.109375 32.671875 
Q 68.109375 37.9375 67.25 40.25 
Q 66.40625 42.578125 64.15625 43.984375 
Q 61.921875 45.40625 58.890625 45.40625 
Q 53.421875 45.40625 49.796875 41.765625 
Q 46.1875 38.140625 46.1875 30.125 
L 46.1875 0 
L 37.40625 0 
L 37.40625 33.6875 
Q 37.40625 39.546875 35.25 42.46875 
Q 33.109375 45.40625 28.21875 45.40625 
Q 24.515625 45.40625 21.359375 43.453125 
Q 18.21875 41.5 16.796875 37.734375 
Q 15.375 33.984375 15.375 26.90625 
L 15.375 0 
z
" id="ArialMT-109"/>
      <path d="M 6.640625 61.46875 
L 6.640625 71.578125 
L 15.4375 71.578125 
L 15.4375 61.46875 
z
M 6.640625 0 
L 6.640625 51.859375 
L 15.4375 51.859375 
L 15.4375 0 
z
" id="ArialMT-105"/>
      <path d="M 3.328125 25.921875 
Q 3.328125 40.328125 11.328125 47.265625 
Q 18.015625 53.03125 27.640625 53.03125 
Q 38.328125 53.03125 45.109375 46.015625 
Q 51.90625 39.015625 51.90625 26.65625 
Q 51.90625 16.65625 48.90625 10.90625 
Q 45.90625 5.171875 40.15625 2 
Q 34.421875 -1.171875 27.640625 -1.171875 
Q 16.75 -1.171875 10.03125 5.8125 
Q 3.328125 12.796875 3.328125 25.921875 
z
M 12.359375 25.921875 
Q 12.359375 15.96875 16.703125 11.015625 
Q 21.046875 6.0625 27.640625 6.0625 
Q 34.1875 6.0625 38.53125 11.03125 
Q 42.875 16.015625 42.875 26.21875 
Q 42.875 35.84375 38.5 40.796875 
Q 34.125 45.75 27.640625 45.75 
Q 21.046875 45.75 16.703125 40.8125 
Q 12.359375 35.890625 12.359375 25.921875 
z
" id="ArialMT-111"/>
      <path id="ArialMT-32"/>
      <path d="M 7.71875 0 
L 7.71875 71.578125 
L 32.375 71.578125 
Q 40.71875 71.578125 45.125 70.5625 
Q 51.265625 69.140625 55.609375 65.4375 
Q 61.28125 60.640625 64.078125 53.1875 
Q 66.890625 45.75 66.890625 36.1875 
Q 66.890625 28.03125 64.984375 21.734375 
Q 63.09375 15.4375 60.109375 11.296875 
Q 57.125 7.171875 53.578125 4.796875 
Q 50.046875 2.4375 45.046875 1.21875 
Q 40.046875 0 33.546875 0 
z
M 17.1875 8.453125 
L 32.46875 8.453125 
Q 39.546875 8.453125 43.578125 9.765625 
Q 47.609375 11.078125 50 13.484375 
Q 53.375 16.84375 55.25 22.53125 
Q 57.125 28.21875 57.125 36.328125 
Q 57.125 47.5625 53.4375 53.59375 
Q 49.75 59.625 44.484375 61.671875 
Q 40.671875 63.140625 32.234375 63.140625 
L 17.1875 63.140625 
z
" id="ArialMT-68"/>
      <path d="M 42.09375 16.703125 
L 51.171875 15.578125 
Q 49.03125 7.625 43.21875 3.21875 
Q 37.40625 -1.171875 28.375 -1.171875 
Q 17 -1.171875 10.328125 5.828125 
Q 3.65625 12.84375 3.65625 25.484375 
Q 3.65625 38.578125 10.390625 45.796875 
Q 17.140625 53.03125 27.875 53.03125 
Q 38.28125 53.03125 44.875 45.953125 
Q 51.46875 38.875 51.46875 26.03125 
Q 51.46875 25.25 51.421875 23.6875 
L 12.75 23.6875 
Q 13.234375 15.140625 17.578125 10.59375 
Q 21.921875 6.0625 28.421875 6.0625 
Q 33.25 6.0625 36.671875 8.59375 
Q 40.09375 11.140625 42.09375 16.703125 
z
M 13.234375 30.90625 
L 42.1875 30.90625 
Q 41.609375 37.453125 38.875 40.71875 
Q 34.671875 45.796875 27.984375 45.796875 
Q 21.921875 45.796875 17.796875 41.75 
Q 13.671875 37.703125 13.234375 30.90625 
z
" id="ArialMT-101"/>
      <path d="M 6.390625 0 
L 6.390625 71.578125 
L 15.1875 71.578125 
L 15.1875 0 
z
" id="ArialMT-108"/>
      <path d="M 6.203125 -19.96875 
L 5.21875 -11.71875 
Q 8.109375 -12.5 10.25 -12.5 
Q 13.1875 -12.5 14.9375 -11.515625 
Q 16.703125 -10.546875 17.828125 -8.796875 
Q 18.65625 -7.46875 20.515625 -2.25 
Q 20.75 -1.515625 21.296875 -0.09375 
L 1.609375 51.859375 
L 11.078125 51.859375 
L 21.875 21.828125 
Q 23.96875 16.109375 25.640625 9.8125 
Q 27.15625 15.875 29.25 21.625 
L 40.328125 51.859375 
L 49.125 51.859375 
L 29.390625 -0.875 
Q 26.21875 -9.421875 24.46875 -12.640625 
Q 22.125 -17 19.09375 -19.015625 
Q 16.0625 -21.046875 11.859375 -21.046875 
Q 9.328125 -21.046875 6.203125 -19.96875 
z
" id="ArialMT-121"/>
      <path d="M 23.390625 -21.046875 
Q 16.109375 -11.859375 11.078125 0.4375 
Q 6.0625 12.75 6.0625 25.921875 
Q 6.0625 37.546875 9.8125 48.1875 
Q 14.203125 60.546875 23.390625 72.796875 
L 29.6875 72.796875 
Q 23.78125 62.640625 21.875 58.296875 
Q 18.890625 51.5625 17.1875 44.234375 
Q 15.09375 35.109375 15.09375 25.875 
Q 15.09375 2.390625 29.6875 -21.046875 
z
" id="ArialMT-40"/>
      <path d="M -1.3125 -20.796875 
L 13.375 54.6875 
L 22.40625 54.6875 
L 15.765625 20.65625 
Q 15.578125 19.625 15.421875 18.359375 
Q 15.28125 17.09375 15.28125 15.828125 
Q 15.28125 11.28125 18.140625 8.828125 
Q 21 6.390625 26.3125 6.390625 
Q 33.546875 6.390625 37.984375 10.484375 
Q 42.4375 14.59375 44 22.796875 
L 50.203125 54.6875 
L 59.1875 54.6875 
L 51.03125 12.640625 
Q 50.828125 11.71875 50.75 11.03125 
Q 50.6875 10.359375 50.6875 9.8125 
Q 50.6875 8.296875 51.296875 7.59375 
Q 51.90625 6.890625 53.21875 6.890625 
Q 53.71875 6.890625 54.5625 7.125 
Q 55.421875 7.375 56.984375 8.015625 
L 55.609375 0.78125 
Q 53.46875 -0.296875 51.515625 -0.859375 
Q 49.5625 -1.421875 47.703125 -1.421875 
Q 44.484375 -1.421875 42.65625 0.625 
Q 40.828125 2.6875 40.828125 6.296875 
Q 38.09375 2.390625 34.296875 0.484375 
Q 30.515625 -1.421875 25.390625 -1.421875 
Q 20.84375 -1.421875 17.453125 0.671875 
Q 14.0625 2.78125 12.984375 6.203125 
L 7.71875 -20.796875 
z
" id="DejaVuSans-Oblique-956"/>
      <path d="M 12.359375 -21.046875 
L 6.0625 -21.046875 
Q 20.65625 2.390625 20.65625 25.875 
Q 20.65625 35.0625 18.5625 44.09375 
Q 16.890625 51.421875 13.921875 58.15625 
Q 12.015625 62.546875 6.0625 72.796875 
L 12.359375 72.796875 
Q 21.53125 60.546875 25.921875 48.1875 
Q 29.6875 37.546875 29.6875 25.921875 
Q 29.6875 12.75 24.625 0.4375 
Q 19.578125 -11.859375 12.359375 -21.046875 
z
" id="ArialMT-41"/>
     </defs>
     <g transform="translate(372.0625 525.7925)scale(0.16 -0.16)">
      <use transform="translate(0 0.203125)" xlink:href="#ArialMT-84"/>
      <use transform="translate(61.083984 0.203125)" xlink:href="#ArialMT-114"/>
      <use transform="translate(94.384766 0.203125)" xlink:href="#ArialMT-97"/>
      <use transform="translate(150 0.203125)" xlink:href="#ArialMT-110"/>
      <use transform="translate(205.615234 0.203125)" xlink:href="#ArialMT-115"/>
      <use transform="translate(255.615234 0.203125)" xlink:href="#ArialMT-109"/>
      <use transform="translate(338.916016 0.203125)" xlink:href="#ArialMT-105"/>
      <use transform="translate(361.132812 0.203125)" xlink:href="#ArialMT-115"/>
      <use transform="translate(411.132812 0.203125)" xlink:href="#ArialMT-115"/>
      <use transform="translate(461.132812 0.203125)" xlink:href="#ArialMT-105"/>
      <use transform="translate(483.349609 0.203125)" xlink:href="#ArialMT-111"/>
      <use transform="translate(538.964844 0.203125)" xlink:href="#ArialMT-110"/>
      <use transform="translate(594.580078 0.203125)" xlink:href="#ArialMT-32"/>
      <use transform="translate(622.363281 0.203125)" xlink:href="#ArialMT-68"/>
      <use transform="translate(694.580078 0.203125)" xlink:href="#ArialMT-101"/>
      <use transform="translate(750.195312 0.203125)" xlink:href="#ArialMT-108"/>
      <use transform="translate(772.412109 0.203125)" xlink:href="#ArialMT-97"/>
      <use transform="translate(828.027344 0.203125)" xlink:href="#ArialMT-121"/>
      <use transform="translate(878.027344 0.203125)" xlink:href="#ArialMT-32"/>
      <use transform="translate(905.810547 0.203125)" xlink:href="#ArialMT-40"/>
      <use transform="translate(939.111328 0.203125)" xlink:href="#DejaVuSans-Oblique-956"/>
      <use transform="translate(1002.734375 0.203125)" xlink:href="#ArialMT-115"/>
      <use transform="translate(1052.734375 0.203125)" xlink:href="#ArialMT-41"/>
     </g>
    </g>
   </g>
   <g id="matplotlib.axis_2">
    <g id="ytick_1">
     <g id="line2d_13">
      <path clip-path="url(#pe5103f18ba)" d="M 68.4225 479.495121 
L 849.6225 479.495121 
" style="fill:none;stroke:#b0b0b0;stroke-linecap:square;stroke-width:0.8;"/>
     </g>
     <g id="line2d_14">
      <defs>
       <path d="M 0 0 
L -3.5 0 
" id="ma4ea997bd7" style="stroke:#000000;stroke-width:0.8;"/>
      </defs>
      <g>
       <use style="stroke:#000000;stroke-width:0.8;" x="68.4225" xlink:href="#ma4ea997bd7" y="479.495121"/>
      </g>
     </g>
     <g id="text_8">
      <!-- 0 -->
      <g transform="translate(52.525 485.221371)scale(0.16 -0.16)">
       <use xlink:href="#ArialMT-48"/>
      </g>
     </g>
    </g>
    <g id="ytick_2">
     <g id="line2d_15">
      <path clip-path="url(#pe5103f18ba)" d="M 68.4225 417.94976 
L 849.6225 417.94976 
" style="fill:none;stroke:#b0b0b0;stroke-linecap:square;stroke-width:0.8;"/>
     </g>
     <g id="line2d_16">
      <g>
       <use style="stroke:#000000;stroke-width:0.8;" x="68.4225" xlink:href="#ma4ea997bd7" y="417.94976"/>
      </g>
     </g>
     <g id="text_9">
      <!-- 200 -->
      <g transform="translate(34.73 423.67601)scale(0.16 -0.16)">
       <use xlink:href="#ArialMT-50"/>
       <use x="55.615234" xlink:href="#ArialMT-48"/>
       <use x="111.230469" xlink:href="#ArialMT-48"/>
      </g>
     </g>
    </g>
    <g id="ytick_3">
     <g id="line2d_17">
      <path clip-path="url(#pe5103f18ba)" d="M 68.4225 356.404399 
L 849.6225 356.404399 
" style="fill:none;stroke:#b0b0b0;stroke-linecap:square;stroke-width:0.8;"/>
     </g>
     <g id="line2d_18">
      <g>
       <use style="stroke:#000000;stroke-width:0.8;" x="68.4225" xlink:href="#ma4ea997bd7" y="356.404399"/>
      </g>
     </g>
     <g id="text_10">
      <!-- 400 -->
      <g transform="translate(34.73 362.130649)scale(0.16 -0.16)">
       <use xlink:href="#ArialMT-52"/>
       <use x="55.615234" xlink:href="#ArialMT-48"/>
       <use x="111.230469" xlink:href="#ArialMT-48"/>
      </g>
     </g>
    </g>
    <g id="ytick_4">
     <g id="line2d_19">
      <path clip-path="url(#pe5103f18ba)" d="M 68.4225 294.859037 
L 849.6225 294.859037 
" style="fill:none;stroke:#b0b0b0;stroke-linecap:square;stroke-width:0.8;"/>
     </g>
     <g id="line2d_20">
      <g>
       <use style="stroke:#000000;stroke-width:0.8;" x="68.4225" xlink:href="#ma4ea997bd7" y="294.859037"/>
      </g>
     </g>
     <g id="text_11">
      <!-- 600 -->
      <g transform="translate(34.73 300.585287)scale(0.16 -0.16)">
       <use xlink:href="#ArialMT-54"/>
       <use x="55.615234" xlink:href="#ArialMT-48"/>
       <use x="111.230469" xlink:href="#ArialMT-48"/>
      </g>
     </g>
    </g>
    <g id="ytick_5">
     <g id="line2d_21">
      <path clip-path="url(#pe5103f18ba)" d="M 68.4225 233.313676 
L 849.6225 233.313676 
" style="fill:none;stroke:#b0b0b0;stroke-linecap:square;stroke-width:0.8;"/>
     </g>
     <g id="line2d_22">
      <g>
       <use style="stroke:#000000;stroke-width:0.8;" x="68.4225" xlink:href="#ma4ea997bd7" y="233.313676"/>
      </g>
     </g>
     <g id="text_12">
      <!-- 800 -->
      <g transform="translate(34.73 239.039926)scale(0.16 -0.16)">
       <use xlink:href="#ArialMT-56"/>
       <use x="55.615234" xlink:href="#ArialMT-48"/>
       <use x="111.230469" xlink:href="#ArialMT-48"/>
      </g>
     </g>
    </g>
    <g id="ytick_6">
     <g id="line2d_23">
      <path clip-path="url(#pe5103f18ba)" d="M 68.4225 171.768314 
L 849.6225 171.768314 
" style="fill:none;stroke:#b0b0b0;stroke-linecap:square;stroke-width:0.8;"/>
     </g>
     <g id="line2d_24">
      <g>
       <use style="stroke:#000000;stroke-width:0.8;" x="68.4225" xlink:href="#ma4ea997bd7" y="171.768314"/>
      </g>
     </g>
     <g id="text_13">
      <!-- 1000 -->
      <g transform="translate(25.8325 177.494564)scale(0.16 -0.16)">
       <use xlink:href="#ArialMT-49"/>
       <use x="55.615234" xlink:href="#ArialMT-48"/>
       <use x="111.230469" xlink:href="#ArialMT-48"/>
       <use x="166.845703" xlink:href="#ArialMT-48"/>
      </g>
     </g>
    </g>
    <g id="ytick_7">
     <g id="line2d_25">
      <path clip-path="url(#pe5103f18ba)" d="M 68.4225 110.222953 
L 849.6225 110.222953 
" style="fill:none;stroke:#b0b0b0;stroke-linecap:square;stroke-width:0.8;"/>
     </g>
     <g id="line2d_26">
      <g>
       <use style="stroke:#000000;stroke-width:0.8;" x="68.4225" xlink:href="#ma4ea997bd7" y="110.222953"/>
      </g>
     </g>
     <g id="text_14">
      <!-- 1200 -->
      <g transform="translate(25.8325 115.949203)scale(0.16 -0.16)">
       <use xlink:href="#ArialMT-49"/>
       <use x="55.615234" xlink:href="#ArialMT-50"/>
       <use x="111.230469" xlink:href="#ArialMT-48"/>
       <use x="166.845703" xlink:href="#ArialMT-48"/>
      </g>
     </g>
    </g>
    <g id="text_15">
     <!-- Percent Difference -->
     <defs>
      <path d="M 7.71875 0 
L 7.71875 71.578125 
L 34.71875 71.578125 
Q 41.84375 71.578125 45.609375 70.90625 
Q 50.875 70.015625 54.4375 67.546875 
Q 58.015625 65.09375 60.1875 60.640625 
Q 62.359375 56.203125 62.359375 50.875 
Q 62.359375 41.75 56.546875 35.421875 
Q 50.734375 29.109375 35.546875 29.109375 
L 17.1875 29.109375 
L 17.1875 0 
z
M 17.1875 37.546875 
L 35.6875 37.546875 
Q 44.875 37.546875 48.734375 40.96875 
Q 52.59375 44.390625 52.59375 50.59375 
Q 52.59375 55.078125 50.3125 58.265625 
Q 48.046875 61.46875 44.34375 62.5 
Q 41.9375 63.140625 35.5 63.140625 
L 17.1875 63.140625 
z
" id="ArialMT-80"/>
      <path d="M 40.4375 19 
L 49.078125 17.875 
Q 47.65625 8.9375 41.8125 3.875 
Q 35.984375 -1.171875 27.484375 -1.171875 
Q 16.84375 -1.171875 10.375 5.78125 
Q 3.90625 12.75 3.90625 25.734375 
Q 3.90625 34.125 6.6875 40.421875 
Q 9.46875 46.734375 15.15625 49.875 
Q 20.84375 53.03125 27.546875 53.03125 
Q 35.984375 53.03125 41.359375 48.75 
Q 46.734375 44.484375 48.25 36.625 
L 39.703125 35.296875 
Q 38.484375 40.53125 35.375 43.15625 
Q 32.28125 45.796875 27.875 45.796875 
Q 21.234375 45.796875 17.078125 41.03125 
Q 12.9375 36.28125 12.9375 25.984375 
Q 12.9375 15.53125 16.9375 10.796875 
Q 20.953125 6.0625 27.390625 6.0625 
Q 32.5625 6.0625 36.03125 9.234375 
Q 39.5 12.40625 40.4375 19 
z
" id="ArialMT-99"/>
      <path d="M 25.78125 7.859375 
L 27.046875 0.09375 
Q 23.34375 -0.6875 20.40625 -0.6875 
Q 15.625 -0.6875 12.984375 0.828125 
Q 10.359375 2.34375 9.28125 4.8125 
Q 8.203125 7.28125 8.203125 15.1875 
L 8.203125 45.015625 
L 1.765625 45.015625 
L 1.765625 51.859375 
L 8.203125 51.859375 
L 8.203125 64.703125 
L 16.9375 69.96875 
L 16.9375 51.859375 
L 25.78125 51.859375 
L 25.78125 45.015625 
L 16.9375 45.015625 
L 16.9375 14.703125 
Q 16.9375 10.9375 17.40625 9.859375 
Q 17.875 8.796875 18.921875 8.15625 
Q 19.96875 7.515625 21.921875 7.515625 
Q 23.390625 7.515625 25.78125 7.859375 
z
" id="ArialMT-116"/>
      <path d="M 8.6875 0 
L 8.6875 45.015625 
L 0.921875 45.015625 
L 0.921875 51.859375 
L 8.6875 51.859375 
L 8.6875 57.375 
Q 8.6875 62.59375 9.625 65.140625 
Q 10.890625 68.5625 14.078125 70.671875 
Q 17.28125 72.796875 23.046875 72.796875 
Q 26.765625 72.796875 31.25 71.921875 
L 29.9375 64.265625 
Q 27.203125 64.75 24.75 64.75 
Q 20.75 64.75 19.09375 63.03125 
Q 17.4375 61.328125 17.4375 56.640625 
L 17.4375 51.859375 
L 27.546875 51.859375 
L 27.546875 45.015625 
L 17.4375 45.015625 
L 17.4375 0 
z
" id="ArialMT-102"/>
     </defs>
     <g transform="translate(18.6525 337.28875)rotate(-90)scale(0.16 -0.16)">
      <use xlink:href="#ArialMT-80"/>
      <use x="66.699219" xlink:href="#ArialMT-101"/>
      <use x="122.314453" xlink:href="#ArialMT-114"/>
      <use x="155.615234" xlink:href="#ArialMT-99"/>
      <use x="205.615234" xlink:href="#ArialMT-101"/>
      <use x="261.230469" xlink:href="#ArialMT-110"/>
      <use x="316.845703" xlink:href="#ArialMT-116"/>
      <use x="344.628906" xlink:href="#ArialMT-32"/>
      <use x="372.412109" xlink:href="#ArialMT-68"/>
      <use x="444.628906" xlink:href="#ArialMT-105"/>
      <use x="466.845703" xlink:href="#ArialMT-102"/>
      <use x="494.613281" xlink:href="#ArialMT-102"/>
      <use x="522.396484" xlink:href="#ArialMT-101"/>
      <use x="578.011719" xlink:href="#ArialMT-114"/>
      <use x="611.3125" xlink:href="#ArialMT-101"/>
      <use x="666.927734" xlink:href="#ArialMT-110"/>
      <use x="722.542969" xlink:href="#ArialMT-99"/>
      <use x="772.542969" xlink:href="#ArialMT-101"/>
     </g>
    </g>
   </g>
   <g id="line2d_27">
    <path clip-path="url(#pe5103f18ba)" d="M 103.931591 73.367273 
L 111.105145 316.08569 
L 118.278698 412.999996 
L 125.452252 405.88116 
L 132.625806 419.051679 
L 139.79936 434.364291 
L 146.972913 437.772793 
L 154.146467 412.679359 
L 161.320021 406.713012 
L 168.493574 411.491325 
L 175.667128 434.436357 
L 182.840682 419.785152 
L 190.014236 424.793936 
L 197.187789 422.854263 
L 204.361343 439.814353 
L 211.534897 429.420269 
L 218.70845 435.842555 
L 225.882004 437.423073 
L 233.055558 435.486455 
L 240.229112 426.27351 
L 247.402665 440.677153 
L 254.576219 442.405287 
L 261.749773 437.425122 
L 268.923326 447.564956 
L 276.09688 441.521254 
L 283.270434 442.745169 
L 290.443988 448.497757 
L 297.617541 429.274545 
L 304.791095 429.549799 
L 311.964649 431.523935 
L 319.138202 428.994693 
L 326.311756 428.753245 
L 333.48531 430.994085 
L 340.658864 436.056798 
L 347.832417 429.721077 
L 355.005971 425.615285 
L 362.179525 428.938035 
L 369.353079 438.127739 
L 376.526632 444.249702 
L 383.700186 449.212393 
L 390.87374 455.976941 
L 398.047293 450.933608 
L 405.220847 449.911165 
L 412.394401 450.110175 
L 419.567955 454.51933 
L 426.741508 452.647765 
L 433.915062 449.643657 
L 441.088616 448.961383 
L 448.262169 440.335383 
L 455.435723 443.487592 
L 462.609277 451.369352 
L 469.782831 452.309868 
L 476.956384 454.11331 
L 484.129938 455.63169 
L 491.303492 458.140272 
L 498.477045 461.782688 
L 505.650599 456.906411 
L 512.824153 455.831239 
L 519.997707 451.231512 
L 527.17126 460.383252 
L 534.344814 461.284717 
L 541.518368 461.930107 
L 548.691921 460.205864 
L 555.865475 465.150696 
L 563.039029 468.712727 
L 570.212583 465.588715 
L 577.386136 463.741028 
L 584.55969 460.988984 
L 591.733244 453.885834 
L 598.906798 453.987524 
L 606.080351 451.589386 
L 613.253905 454.975699 
L 620.427459 458.752775 
L 627.601012 458.085273 
L 634.774566 456.461876 
L 641.94812 455.622188 
L 649.121674 457.792098 
L 656.295227 450.539419 
L 663.468781 447.275371 
L 670.642335 445.673398 
L 677.815888 451.398008 
L 684.989442 450.548685 
L 692.162996 454.136635 
L 699.33655 464.65026 
L 706.510103 455.143944 
L 713.683657 460.890056 
L 720.857211 457.268016 
L 728.030764 450.457898 
L 735.204318 444.956072 
L 742.377872 443.236465 
L 749.551426 441.895118 
L 756.724979 439.199546 
L 763.898533 451.915726 
L 771.072087 449.039513 
L 778.24564 444.52287 
L 785.419194 443.440978 
L 792.592748 444.452495 
L 799.766302 439.024288 
L 806.939855 435.155629 
L 814.113409 433.83304 
" style="fill:none;stroke:#ff0000;stroke-linecap:square;stroke-width:1.5;"/>
    <defs>
     <path d="M -0 4 
L 4 -4 
L -4 -4 
z
" id="m8bed287d92" style="stroke:#000000;stroke-linejoin:miter;"/>
    </defs>
    <g clip-path="url(#pe5103f18ba)">
     <use style="fill:#ff0000;stroke:#000000;stroke-linejoin:miter;" x="103.931591" xlink:href="#m8bed287d92" y="73.367273"/>
     <use style="fill:#ff0000;stroke:#000000;stroke-linejoin:miter;" x="111.105145" xlink:href="#m8bed287d92" y="316.08569"/>
     <use style="fill:#ff0000;stroke:#000000;stroke-linejoin:miter;" x="118.278698" xlink:href="#m8bed287d92" y="412.999996"/>
     <use style="fill:#ff0000;stroke:#000000;stroke-linejoin:miter;" x="125.452252" xlink:href="#m8bed287d92" y="405.88116"/>
     <use style="fill:#ff0000;stroke:#000000;stroke-linejoin:miter;" x="132.625806" xlink:href="#m8bed287d92" y="419.051679"/>
     <use style="fill:#ff0000;stroke:#000000;stroke-linejoin:miter;" x="139.79936" xlink:href="#m8bed287d92" y="434.364291"/>
     <use style="fill:#ff0000;stroke:#000000;stroke-linejoin:miter;" x="146.972913" xlink:href="#m8bed287d92" y="437.772793"/>
     <use style="fill:#ff0000;stroke:#000000;stroke-linejoin:miter;" x="154.146467" xlink:href="#m8bed287d92" y="412.679359"/>
     <use style="fill:#ff0000;stroke:#000000;stroke-linejoin:miter;" x="161.320021" xlink:href="#m8bed287d92" y="406.713012"/>
     <use style="fill:#ff0000;stroke:#000000;stroke-linejoin:miter;" x="168.493574" xlink:href="#m8bed287d92" y="411.491325"/>
     <use style="fill:#ff0000;stroke:#000000;stroke-linejoin:miter;" x="175.667128" xlink:href="#m8bed287d92" y="434.436357"/>
     <use style="fill:#ff0000;stroke:#000000;stroke-linejoin:miter;" x="182.840682" xlink:href="#m8bed287d92" y="419.785152"/>
     <use style="fill:#ff0000;stroke:#000000;stroke-linejoin:miter;" x="190.014236" xlink:href="#m8bed287d92" y="424.793936"/>
     <use style="fill:#ff0000;stroke:#000000;stroke-linejoin:miter;" x="197.187789" xlink:href="#m8bed287d92" y="422.854263"/>
     <use style="fill:#ff0000;stroke:#000000;stroke-linejoin:miter;" x="204.361343" xlink:href="#m8bed287d92" y="439.814353"/>
     <use style="fill:#ff0000;stroke:#000000;stroke-linejoin:miter;" x="211.534897" xlink:href="#m8bed287d92" y="429.420269"/>
     <use style="fill:#ff0000;stroke:#000000;stroke-linejoin:miter;" x="218.70845" xlink:href="#m8bed287d92" y="435.842555"/>
     <use style="fill:#ff0000;stroke:#000000;stroke-linejoin:miter;" x="225.882004" xlink:href="#m8bed287d92" y="437.423073"/>
     <use style="fill:#ff0000;stroke:#000000;stroke-linejoin:miter;" x="233.055558" xlink:href="#m8bed287d92" y="435.486455"/>
     <use style="fill:#ff0000;stroke:#000000;stroke-linejoin:miter;" x="240.229112" xlink:href="#m8bed287d92" y="426.27351"/>
     <use style="fill:#ff0000;stroke:#000000;stroke-linejoin:miter;" x="247.402665" xlink:href="#m8bed287d92" y="440.677153"/>
     <use style="fill:#ff0000;stroke:#000000;stroke-linejoin:miter;" x="254.576219" xlink:href="#m8bed287d92" y="442.405287"/>
     <use style="fill:#ff0000;stroke:#000000;stroke-linejoin:miter;" x="261.749773" xlink:href="#m8bed287d92" y="437.425122"/>
     <use style="fill:#ff0000;stroke:#000000;stroke-linejoin:miter;" x="268.923326" xlink:href="#m8bed287d92" y="447.564956"/>
     <use style="fill:#ff0000;stroke:#000000;stroke-linejoin:miter;" x="276.09688" xlink:href="#m8bed287d92" y="441.521254"/>
     <use style="fill:#ff0000;stroke:#000000;stroke-linejoin:miter;" x="283.270434" xlink:href="#m8bed287d92" y="442.745169"/>
     <use style="fill:#ff0000;stroke:#000000;stroke-linejoin:miter;" x="290.443988" xlink:href="#m8bed287d92" y="448.497757"/>
     <use style="fill:#ff0000;stroke:#000000;stroke-linejoin:miter;" x="297.617541" xlink:href="#m8bed287d92" y="429.274545"/>
     <use style="fill:#ff0000;stroke:#000000;stroke-linejoin:miter;" x="304.791095" xlink:href="#m8bed287d92" y="429.549799"/>
     <use style="fill:#ff0000;stroke:#000000;stroke-linejoin:miter;" x="311.964649" xlink:href="#m8bed287d92" y="431.523935"/>
     <use style="fill:#ff0000;stroke:#000000;stroke-linejoin:miter;" x="319.138202" xlink:href="#m8bed287d92" y="428.994693"/>
     <use style="fill:#ff0000;stroke:#000000;stroke-linejoin:miter;" x="326.311756" xlink:href="#m8bed287d92" y="428.753245"/>
     <use style="fill:#ff0000;stroke:#000000;stroke-linejoin:miter;" x="333.48531" xlink:href="#m8bed287d92" y="430.994085"/>
     <use style="fill:#ff0000;stroke:#000000;stroke-linejoin:miter;" x="340.658864" xlink:href="#m8bed287d92" y="436.056798"/>
     <use style="fill:#ff0000;stroke:#000000;stroke-linejoin:miter;" x="347.832417" xlink:href="#m8bed287d92" y="429.721077"/>
     <use style="fill:#ff0000;stroke:#000000;stroke-linejoin:miter;" x="355.005971" xlink:href="#m8bed287d92" y="425.615285"/>
     <use style="fill:#ff0000;stroke:#000000;stroke-linejoin:miter;" x="362.179525" xlink:href="#m8bed287d92" y="428.938035"/>
     <use style="fill:#ff0000;stroke:#000000;stroke-linejoin:miter;" x="369.353079" xlink:href="#m8bed287d92" y="438.127739"/>
     <use style="fill:#ff0000;stroke:#000000;stroke-linejoin:miter;" x="376.526632" xlink:href="#m8bed287d92" y="444.249702"/>
     <use style="fill:#ff0000;stroke:#000000;stroke-linejoin:miter;" x="383.700186" xlink:href="#m8bed287d92" y="449.212393"/>
     <use style="fill:#ff0000;stroke:#000000;stroke-linejoin:miter;" x="390.87374" xlink:href="#m8bed287d92" y="455.976941"/>
     <use style="fill:#ff0000;stroke:#000000;stroke-linejoin:miter;" x="398.047293" xlink:href="#m8bed287d92" y="450.933608"/>
     <use style="fill:#ff0000;stroke:#000000;stroke-linejoin:miter;" x="405.220847" xlink:href="#m8bed287d92" y="449.911165"/>
     <use style="fill:#ff0000;stroke:#000000;stroke-linejoin:miter;" x="412.394401" xlink:href="#m8bed287d92" y="450.110175"/>
     <use style="fill:#ff0000;stroke:#000000;stroke-linejoin:miter;" x="419.567955" xlink:href="#m8bed287d92" y="454.51933"/>
     <use style="fill:#ff0000;stroke:#000000;stroke-linejoin:miter;" x="426.741508" xlink:href="#m8bed287d92" y="452.647765"/>
     <use style="fill:#ff0000;stroke:#000000;stroke-linejoin:miter;" x="433.915062" xlink:href="#m8bed287d92" y="449.643657"/>
     <use style="fill:#ff0000;stroke:#000000;stroke-linejoin:miter;" x="441.088616" xlink:href="#m8bed287d92" y="448.961383"/>
     <use style="fill:#ff0000;stroke:#000000;stroke-linejoin:miter;" x="448.262169" xlink:href="#m8bed287d92" y="440.335383"/>
     <use style="fill:#ff0000;stroke:#000000;stroke-linejoin:miter;" x="455.435723" xlink:href="#m8bed287d92" y="443.487592"/>
     <use style="fill:#ff0000;stroke:#000000;stroke-linejoin:miter;" x="462.609277" xlink:href="#m8bed287d92" y="451.369352"/>
     <use style="fill:#ff0000;stroke:#000000;stroke-linejoin:miter;" x="469.782831" xlink:href="#m8bed287d92" y="452.309868"/>
     <use style="fill:#ff0000;stroke:#000000;stroke-linejoin:miter;" x="476.956384" xlink:href="#m8bed287d92" y="454.11331"/>
     <use style="fill:#ff0000;stroke:#000000;stroke-linejoin:miter;" x="484.129938" xlink:href="#m8bed287d92" y="455.63169"/>
     <use style="fill:#ff0000;stroke:#000000;stroke-linejoin:miter;" x="491.303492" xlink:href="#m8bed287d92" y="458.140272"/>
     <use style="fill:#ff0000;stroke:#000000;stroke-linejoin:miter;" x="498.477045" xlink:href="#m8bed287d92" y="461.782688"/>
     <use style="fill:#ff0000;stroke:#000000;stroke-linejoin:miter;" x="505.650599" xlink:href="#m8bed287d92" y="456.906411"/>
     <use style="fill:#ff0000;stroke:#000000;stroke-linejoin:miter;" x="512.824153" xlink:href="#m8bed287d92" y="455.831239"/>
     <use style="fill:#ff0000;stroke:#000000;stroke-linejoin:miter;" x="519.997707" xlink:href="#m8bed287d92" y="451.231512"/>
     <use style="fill:#ff0000;stroke:#000000;stroke-linejoin:miter;" x="527.17126" xlink:href="#m8bed287d92" y="460.383252"/>
     <use style="fill:#ff0000;stroke:#000000;stroke-linejoin:miter;" x="534.344814" xlink:href="#m8bed287d92" y="461.284717"/>
     <use style="fill:#ff0000;stroke:#000000;stroke-linejoin:miter;" x="541.518368" xlink:href="#m8bed287d92" y="461.930107"/>
     <use style="fill:#ff0000;stroke:#000000;stroke-linejoin:miter;" x="548.691921" xlink:href="#m8bed287d92" y="460.205864"/>
     <use style="fill:#ff0000;stroke:#000000;stroke-linejoin:miter;" x="555.865475" xlink:href="#m8bed287d92" y="465.150696"/>
     <use style="fill:#ff0000;stroke:#000000;stroke-linejoin:miter;" x="563.039029" xlink:href="#m8bed287d92" y="468.712727"/>
     <use style="fill:#ff0000;stroke:#000000;stroke-linejoin:miter;" x="570.212583" xlink:href="#m8bed287d92" y="465.588715"/>
     <use style="fill:#ff0000;stroke:#000000;stroke-linejoin:miter;" x="577.386136" xlink:href="#m8bed287d92" y="463.741028"/>
     <use style="fill:#ff0000;stroke:#000000;stroke-linejoin:miter;" x="584.55969" xlink:href="#m8bed287d92" y="460.988984"/>
     <use style="fill:#ff0000;stroke:#000000;stroke-linejoin:miter;" x="591.733244" xlink:href="#m8bed287d92" y="453.885834"/>
     <use style="fill:#ff0000;stroke:#000000;stroke-linejoin:miter;" x="598.906798" xlink:href="#m8bed287d92" y="453.987524"/>
     <use style="fill:#ff0000;stroke:#000000;stroke-linejoin:miter;" x="606.080351" xlink:href="#m8bed287d92" y="451.589386"/>
     <use style="fill:#ff0000;stroke:#000000;stroke-linejoin:miter;" x="613.253905" xlink:href="#m8bed287d92" y="454.975699"/>
     <use style="fill:#ff0000;stroke:#000000;stroke-linejoin:miter;" x="620.427459" xlink:href="#m8bed287d92" y="458.752775"/>
     <use style="fill:#ff0000;stroke:#000000;stroke-linejoin:miter;" x="627.601012" xlink:href="#m8bed287d92" y="458.085273"/>
     <use style="fill:#ff0000;stroke:#000000;stroke-linejoin:miter;" x="634.774566" xlink:href="#m8bed287d92" y="456.461876"/>
     <use style="fill:#ff0000;stroke:#000000;stroke-linejoin:miter;" x="641.94812" xlink:href="#m8bed287d92" y="455.622188"/>
     <use style="fill:#ff0000;stroke:#000000;stroke-linejoin:miter;" x="649.121674" xlink:href="#m8bed287d92" y="457.792098"/>
     <use style="fill:#ff0000;stroke:#000000;stroke-linejoin:miter;" x="656.295227" xlink:href="#m8bed287d92" y="450.539419"/>
     <use style="fill:#ff0000;stroke:#000000;stroke-linejoin:miter;" x="663.468781" xlink:href="#m8bed287d92" y="447.275371"/>
     <use style="fill:#ff0000;stroke:#000000;stroke-linejoin:miter;" x="670.642335" xlink:href="#m8bed287d92" y="445.673398"/>
     <use style="fill:#ff0000;stroke:#000000;stroke-linejoin:miter;" x="677.815888" xlink:href="#m8bed287d92" y="451.398008"/>
     <use style="fill:#ff0000;stroke:#000000;stroke-linejoin:miter;" x="684.989442" xlink:href="#m8bed287d92" y="450.548685"/>
     <use style="fill:#ff0000;stroke:#000000;stroke-linejoin:miter;" x="692.162996" xlink:href="#m8bed287d92" y="454.136635"/>
     <use style="fill:#ff0000;stroke:#000000;stroke-linejoin:miter;" x="699.33655" xlink:href="#m8bed287d92" y="464.65026"/>
     <use style="fill:#ff0000;stroke:#000000;stroke-linejoin:miter;" x="706.510103" xlink:href="#m8bed287d92" y="455.143944"/>
     <use style="fill:#ff0000;stroke:#000000;stroke-linejoin:miter;" x="713.683657" xlink:href="#m8bed287d92" y="460.890056"/>
     <use style="fill:#ff0000;stroke:#000000;stroke-linejoin:miter;" x="720.857211" xlink:href="#m8bed287d92" y="457.268016"/>
     <use style="fill:#ff0000;stroke:#000000;stroke-linejoin:miter;" x="728.030764" xlink:href="#m8bed287d92" y="450.457898"/>
     <use style="fill:#ff0000;stroke:#000000;stroke-linejoin:miter;" x="735.204318" xlink:href="#m8bed287d92" y="444.956072"/>
     <use style="fill:#ff0000;stroke:#000000;stroke-linejoin:miter;" x="742.377872" xlink:href="#m8bed287d92" y="443.236465"/>
     <use style="fill:#ff0000;stroke:#000000;stroke-linejoin:miter;" x="749.551426" xlink:href="#m8bed287d92" y="441.895118"/>
     <use style="fill:#ff0000;stroke:#000000;stroke-linejoin:miter;" x="756.724979" xlink:href="#m8bed287d92" y="439.199546"/>
     <use style="fill:#ff0000;stroke:#000000;stroke-linejoin:miter;" x="763.898533" xlink:href="#m8bed287d92" y="451.915726"/>
     <use style="fill:#ff0000;stroke:#000000;stroke-linejoin:miter;" x="771.072087" xlink:href="#m8bed287d92" y="449.039513"/>
     <use style="fill:#ff0000;stroke:#000000;stroke-linejoin:miter;" x="778.24564" xlink:href="#m8bed287d92" y="444.52287"/>
     <use style="fill:#ff0000;stroke:#000000;stroke-linejoin:miter;" x="785.419194" xlink:href="#m8bed287d92" y="443.440978"/>
     <use style="fill:#ff0000;stroke:#000000;stroke-linejoin:miter;" x="792.592748" xlink:href="#m8bed287d92" y="444.452495"/>
     <use style="fill:#ff0000;stroke:#000000;stroke-linejoin:miter;" x="799.766302" xlink:href="#m8bed287d92" y="439.024288"/>
     <use style="fill:#ff0000;stroke:#000000;stroke-linejoin:miter;" x="806.939855" xlink:href="#m8bed287d92" y="435.155629"/>
     <use style="fill:#ff0000;stroke:#000000;stroke-linejoin:miter;" x="814.113409" xlink:href="#m8bed287d92" y="433.83304"/>
    </g>
   </g>
   <g id="patch_5">
    <path d="M 68.4225 488.48 
L 68.4225 53.6 
" style="fill:none;stroke:#000000;stroke-linecap:square;stroke-linejoin:miter;stroke-width:0.8;"/>
   </g>
   <g id="patch_6">
    <path d="M 849.6225 488.48 
L 849.6225 53.6 
" style="fill:none;stroke:#000000;stroke-linecap:square;stroke-linejoin:miter;stroke-width:0.8;"/>
   </g>
   <g id="patch_7">
    <path d="M 68.4225 488.48 
L 849.6225 488.48 
" style="fill:none;stroke:#000000;stroke-linecap:square;stroke-linejoin:miter;stroke-width:0.8;"/>
   </g>
   <g id="patch_8">
    <path d="M 68.4225 53.6 
L 849.6225 53.6 
" style="fill:none;stroke:#000000;stroke-linecap:square;stroke-linejoin:miter;stroke-width:0.8;"/>
   </g>
   <g id="text_16">
    <!-- Percent Difference $\dfrac{(|| - \perp)}{||}$ -->
    <defs>
     <path d="M 31 75.875 
Q 24.46875 64.65625 21.28125 53.65625 
Q 18.109375 42.671875 18.109375 31.390625 
Q 18.109375 20.125 21.3125 9.0625 
Q 24.515625 -2 31 -13.1875 
L 23.1875 -13.1875 
Q 15.875 -1.703125 12.234375 9.375 
Q 8.59375 20.453125 8.59375 31.390625 
Q 8.59375 42.28125 12.203125 53.3125 
Q 15.828125 64.359375 23.1875 75.875 
z
" id="DejaVuSans-40"/>
     <path d="M 21 76.421875 
L 21 -23.578125 
L 12.703125 -23.578125 
L 12.703125 76.421875 
z
" id="DejaVuSans-124"/>
     <path d="M 10.59375 35.5 
L 73.1875 35.5 
L 73.1875 27.203125 
L 10.59375 27.203125 
z
" id="DejaVuSans-8722"/>
     <path d="M 64.09375 0 
L 5.203125 0 
L 5.203125 6.59375 
L 31.40625 6.59375 
L 31.40625 66.203125 
L 38 66.203125 
L 38 6.59375 
L 64.09375 6.59375 
z
" id="STIXGeneral-Regular-10178"/>
     <path d="M 8.015625 75.875 
L 15.828125 75.875 
Q 23.140625 64.359375 26.78125 53.3125 
Q 30.421875 42.28125 30.421875 31.390625 
Q 30.421875 20.453125 26.78125 9.375 
Q 23.140625 -1.703125 15.828125 -13.1875 
L 8.015625 -13.1875 
Q 14.5 -2 17.703125 9.0625 
Q 20.90625 20.125 20.90625 31.390625 
Q 20.90625 42.671875 17.703125 53.65625 
Q 14.5 64.65625 8.015625 75.875 
z
" id="DejaVuSans-41"/>
    </defs>
    <g transform="translate(334.5225 36)scale(0.2 -0.2)">
     <use transform="translate(0 0.203125)" xlink:href="#ArialMT-80"/>
     <use transform="translate(66.699219 0.203125)" xlink:href="#ArialMT-101"/>
     <use transform="translate(122.314453 0.203125)" xlink:href="#ArialMT-114"/>
     <use transform="translate(155.615234 0.203125)" xlink:href="#ArialMT-99"/>
     <use transform="translate(205.615234 0.203125)" xlink:href="#ArialMT-101"/>
     <use transform="translate(261.230469 0.203125)" xlink:href="#ArialMT-110"/>
     <use transform="translate(316.845703 0.203125)" xlink:href="#ArialMT-116"/>
     <use transform="translate(344.628906 0.203125)" xlink:href="#ArialMT-32"/>
     <use transform="translate(372.412109 0.203125)" xlink:href="#ArialMT-68"/>
     <use transform="translate(444.628906 0.203125)" xlink:href="#ArialMT-105"/>
     <use transform="translate(466.845703 0.203125)" xlink:href="#ArialMT-102"/>
     <use transform="translate(494.628906 0.203125)" xlink:href="#ArialMT-102"/>
     <use transform="translate(522.412109 0.203125)" xlink:href="#ArialMT-101"/>
     <use transform="translate(578.027344 0.203125)" xlink:href="#ArialMT-114"/>
     <use transform="translate(611.328125 0.203125)" xlink:href="#ArialMT-101"/>
     <use transform="translate(666.943359 0.203125)" xlink:href="#ArialMT-110"/>
     <use transform="translate(722.558594 0.203125)" xlink:href="#ArialMT-99"/>
     <use transform="translate(772.558594 0.203125)" xlink:href="#ArialMT-101"/>
     <use transform="translate(828.173828 0.203125)" xlink:href="#ArialMT-32"/>
     <use transform="translate(855.957031 67.578125)" xlink:href="#DejaVuSans-40"/>
     <use transform="translate(894.970703 67.578125)" xlink:href="#DejaVuSans-124"/>
     <use transform="translate(928.662109 67.578125)" xlink:href="#DejaVuSans-124"/>
     <use transform="translate(981.835938 67.578125)" xlink:href="#DejaVuSans-8722"/>
     <use transform="translate(1104.589844 67.578125)" xlink:href="#STIXGeneral-Regular-10178"/>
     <use transform="translate(1193.372253 67.578125)" xlink:href="#DejaVuSans-41"/>
     <use transform="translate(1010.957031 -63.671875)" xlink:href="#DejaVuSans-124"/>
     <use transform="translate(1044.648438 -63.671875)" xlink:href="#DejaVuSans-124"/>
     <path d="M 855.957031 19 
L 855.957031 25.25 
L 1232.385925 25.25 
L 1232.385925 19 
L 855.957031 19 
z
"/>
    </g>
   </g>
  </g>
  <g id="axes_2">
   <g id="patch_9">
    <path d="M 380.9025 358.016 
L 771.5025 358.016 
L 771.5025 140.576 
L 380.9025 140.576 
z
" style="fill:#ffffff;"/>
   </g>
   <g id="patch_10">
    <path d="M 380.9025 140.576 
L 83.486963 402.739581 
" style="fill:none;stroke:#808080;stroke-linejoin:miter;"/>
   </g>
   <g id="patch_11">
    <path d="M 771.5025 358.016 
L 848.905145 479.495121 
" style="fill:none;stroke:#808080;stroke-linejoin:miter;"/>
   </g>
   <g id="patch_12">
    <path d="M 771.5025 140.576 
L 848.905145 402.739581 
" style="fill:none;stroke:#808080;stroke-linejoin:miter;"/>
   </g>
   <g id="patch_13">
    <path d="M 380.9025 358.016 
L 83.486963 479.495121 
" style="fill:none;stroke:#808080;stroke-linejoin:miter;"/>
   </g>
   <g id="matplotlib.axis_3">
    <g id="xtick_7">
     <g id="line2d_28">
      <path clip-path="url(#pee4c0c9498)" d="M 391.335583 358.016 
L 391.335583 140.576 
" style="fill:none;stroke:#b0b0b0;stroke-linecap:square;stroke-width:0.8;"/>
     </g>
     <g id="line2d_29">
      <g>
       <use style="stroke:#000000;stroke-width:0.8;" x="391.335583" xlink:href="#m2022d92f42" y="358.016"/>
      </g>
     </g>
     <g id="text_17">
      <!-- 0 -->
      <g transform="translate(386.886833 376.4685)scale(0.16 -0.16)">
       <use xlink:href="#ArialMT-48"/>
      </g>
     </g>
    </g>
    <g id="xtick_8">
     <g id="line2d_30">
      <path clip-path="url(#pee4c0c9498)" d="M 464.550204 358.016 
L 464.550204 140.576 
" style="fill:none;stroke:#b0b0b0;stroke-linecap:square;stroke-width:0.8;"/>
     </g>
     <g id="line2d_31">
      <g>
       <use style="stroke:#000000;stroke-width:0.8;" x="464.550204" xlink:href="#m2022d92f42" y="358.016"/>
      </g>
     </g>
     <g id="text_18">
      <!-- 20 -->
      <g transform="translate(455.652704 376.4685)scale(0.16 -0.16)">
       <use xlink:href="#ArialMT-50"/>
       <use x="55.615234" xlink:href="#ArialMT-48"/>
      </g>
     </g>
    </g>
    <g id="xtick_9">
     <g id="line2d_32">
      <path clip-path="url(#pee4c0c9498)" d="M 537.764824 358.016 
L 537.764824 140.576 
" style="fill:none;stroke:#b0b0b0;stroke-linecap:square;stroke-width:0.8;"/>
     </g>
     <g id="line2d_33">
      <g>
       <use style="stroke:#000000;stroke-width:0.8;" x="537.764824" xlink:href="#m2022d92f42" y="358.016"/>
      </g>
     </g>
     <g id="text_19">
      <!-- 40 -->
      <g transform="translate(528.867324 376.4685)scale(0.16 -0.16)">
       <use xlink:href="#ArialMT-52"/>
       <use x="55.615234" xlink:href="#ArialMT-48"/>
      </g>
     </g>
    </g>
    <g id="xtick_10">
     <g id="line2d_34">
      <path clip-path="url(#pee4c0c9498)" d="M 610.979445 358.016 
L 610.979445 140.576 
" style="fill:none;stroke:#b0b0b0;stroke-linecap:square;stroke-width:0.8;"/>
     </g>
     <g id="line2d_35">
      <g>
       <use style="stroke:#000000;stroke-width:0.8;" x="610.979445" xlink:href="#m2022d92f42" y="358.016"/>
      </g>
     </g>
     <g id="text_20">
      <!-- 60 -->
      <g transform="translate(602.081945 376.4685)scale(0.16 -0.16)">
       <use xlink:href="#ArialMT-54"/>
       <use x="55.615234" xlink:href="#ArialMT-48"/>
      </g>
     </g>
    </g>
    <g id="xtick_11">
     <g id="line2d_36">
      <path clip-path="url(#pee4c0c9498)" d="M 684.194065 358.016 
L 684.194065 140.576 
" style="fill:none;stroke:#b0b0b0;stroke-linecap:square;stroke-width:0.8;"/>
     </g>
     <g id="line2d_37">
      <g>
       <use style="stroke:#000000;stroke-width:0.8;" x="684.194065" xlink:href="#m2022d92f42" y="358.016"/>
      </g>
     </g>
     <g id="text_21">
      <!-- 80 -->
      <g transform="translate(675.296565 376.4685)scale(0.16 -0.16)">
       <use xlink:href="#ArialMT-56"/>
       <use x="55.615234" xlink:href="#ArialMT-48"/>
      </g>
     </g>
    </g>
    <g id="xtick_12">
     <g id="line2d_38">
      <path clip-path="url(#pee4c0c9498)" d="M 757.408686 358.016 
L 757.408686 140.576 
" style="fill:none;stroke:#b0b0b0;stroke-linecap:square;stroke-width:0.8;"/>
     </g>
     <g id="line2d_39">
      <g>
       <use style="stroke:#000000;stroke-width:0.8;" x="757.408686" xlink:href="#m2022d92f42" y="358.016"/>
      </g>
     </g>
     <g id="text_22">
      <!-- 100 -->
      <g transform="translate(744.062436 376.4685)scale(0.16 -0.16)">
       <use xlink:href="#ArialMT-49"/>
       <use x="55.615234" xlink:href="#ArialMT-48"/>
       <use x="111.230469" xlink:href="#ArialMT-48"/>
      </g>
     </g>
    </g>
   </g>
   <g id="matplotlib.axis_4">
    <g id="ytick_8">
     <g id="line2d_40">
      <path clip-path="url(#pee4c0c9498)" d="M 380.9025 358.016 
L 771.5025 358.016 
" style="fill:none;stroke:#b0b0b0;stroke-linecap:square;stroke-width:0.8;"/>
     </g>
     <g id="line2d_41">
      <g>
       <use style="stroke:#000000;stroke-width:0.8;" x="380.9025" xlink:href="#ma4ea997bd7" y="358.016"/>
      </g>
     </g>
     <g id="text_23">
      <!-- 0 -->
      <g transform="translate(365.005 363.74225)scale(0.16 -0.16)">
       <use xlink:href="#ArialMT-48"/>
      </g>
     </g>
    </g>
    <g id="ytick_9">
     <g id="line2d_42">
      <path clip-path="url(#pee4c0c9498)" d="M 380.9025 314.428191 
L 771.5025 314.428191 
" style="fill:none;stroke:#b0b0b0;stroke-linecap:square;stroke-width:0.8;"/>
     </g>
     <g id="line2d_43">
      <g>
       <use style="stroke:#000000;stroke-width:0.8;" x="380.9025" xlink:href="#ma4ea997bd7" y="314.428191"/>
      </g>
     </g>
     <g id="text_24">
      <!-- 50 -->
      <defs>
       <path d="M 4.15625 18.75 
L 13.375 19.53125 
Q 14.40625 12.796875 18.140625 9.390625 
Q 21.875 6 27.15625 6 
Q 33.5 6 37.890625 10.78125 
Q 42.28125 15.578125 42.28125 23.484375 
Q 42.28125 31 38.0625 35.34375 
Q 33.84375 39.703125 27 39.703125 
Q 22.75 39.703125 19.328125 37.765625 
Q 15.921875 35.84375 13.96875 32.765625 
L 5.71875 33.84375 
L 12.640625 70.609375 
L 48.25 70.609375 
L 48.25 62.203125 
L 19.671875 62.203125 
L 15.828125 42.96875 
Q 22.265625 47.46875 29.34375 47.46875 
Q 38.71875 47.46875 45.15625 40.96875 
Q 51.609375 34.46875 51.609375 24.265625 
Q 51.609375 14.546875 45.953125 7.46875 
Q 39.0625 -1.21875 27.15625 -1.21875 
Q 17.390625 -1.21875 11.203125 4.25 
Q 5.03125 9.71875 4.15625 18.75 
z
" id="ArialMT-53"/>
      </defs>
      <g transform="translate(356.1075 320.154441)scale(0.16 -0.16)">
       <use xlink:href="#ArialMT-53"/>
       <use x="55.615234" xlink:href="#ArialMT-48"/>
      </g>
     </g>
    </g>
    <g id="ytick_10">
     <g id="line2d_44">
      <path clip-path="url(#pee4c0c9498)" d="M 380.9025 270.840381 
L 771.5025 270.840381 
" style="fill:none;stroke:#b0b0b0;stroke-linecap:square;stroke-width:0.8;"/>
     </g>
     <g id="line2d_45">
      <g>
       <use style="stroke:#000000;stroke-width:0.8;" x="380.9025" xlink:href="#ma4ea997bd7" y="270.840381"/>
      </g>
     </g>
     <g id="text_25">
      <!-- 100 -->
      <g transform="translate(347.21 276.566631)scale(0.16 -0.16)">
       <use xlink:href="#ArialMT-49"/>
       <use x="55.615234" xlink:href="#ArialMT-48"/>
       <use x="111.230469" xlink:href="#ArialMT-48"/>
      </g>
     </g>
    </g>
    <g id="ytick_11">
     <g id="line2d_46">
      <path clip-path="url(#pee4c0c9498)" d="M 380.9025 227.252572 
L 771.5025 227.252572 
" style="fill:none;stroke:#b0b0b0;stroke-linecap:square;stroke-width:0.8;"/>
     </g>
     <g id="line2d_47">
      <g>
       <use style="stroke:#000000;stroke-width:0.8;" x="380.9025" xlink:href="#ma4ea997bd7" y="227.252572"/>
      </g>
     </g>
     <g id="text_26">
      <!-- 150 -->
      <g transform="translate(347.21 232.978822)scale(0.16 -0.16)">
       <use xlink:href="#ArialMT-49"/>
       <use x="55.615234" xlink:href="#ArialMT-53"/>
       <use x="111.230469" xlink:href="#ArialMT-48"/>
      </g>
     </g>
    </g>
    <g id="ytick_12">
     <g id="line2d_48">
      <path clip-path="url(#pee4c0c9498)" d="M 380.9025 183.664763 
L 771.5025 183.664763 
" style="fill:none;stroke:#b0b0b0;stroke-linecap:square;stroke-width:0.8;"/>
     </g>
     <g id="line2d_49">
      <g>
       <use style="stroke:#000000;stroke-width:0.8;" x="380.9025" xlink:href="#ma4ea997bd7" y="183.664763"/>
      </g>
     </g>
     <g id="text_27">
      <!-- 200 -->
      <g transform="translate(347.21 189.391013)scale(0.16 -0.16)">
       <use xlink:href="#ArialMT-50"/>
       <use x="55.615234" xlink:href="#ArialMT-48"/>
       <use x="111.230469" xlink:href="#ArialMT-48"/>
      </g>
     </g>
    </g>
   </g>
   <g id="line2d_50">
    <path clip-path="url(#pee4c0c9498)" d="M 398.657045 169.642625 
L 402.317776 149.475746 
L 405.978507 186.786378 
L 409.639239 230.165323 
L 413.29997 239.821233 
L 416.960701 168.734296 
L 420.621432 151.832293 
L 424.282163 165.368728 
L 427.942894 230.369478 
L 431.603625 188.864225 
L 435.264356 203.053561 
L 438.925087 197.55868 
L 442.585818 245.604748 
L 446.246549 216.159452 
L 449.90728 234.353082 
L 453.568011 238.830515 
L 457.228742 233.344289 
L 460.889473 207.245031 
L 464.550204 248.048967 
L 468.210935 252.944579 
L 471.871666 238.83632 
L 475.532397 267.561355 
L 479.193128 250.440212 
L 482.853859 253.907428 
L 486.51459 270.203876 
L 490.175321 215.746634 
L 493.836052 216.526396 
L 497.496783 222.118908 
L 501.157514 214.953843 
L 504.818245 214.269847 
L 508.478976 220.617901 
L 512.139707 234.96001 
L 515.800438 217.01161 
L 519.461169 205.380352 
L 523.1219 214.793336 
L 526.782631 240.826756 
L 530.443362 258.169604 
L 534.104093 272.228362 
L 537.764824 291.391584 
L 541.425555 277.104374 
L 545.086286 274.207905 
L 548.747017 274.77168 
L 552.407748 287.262333 
L 556.068479 281.960393 
L 559.72921 273.450087 
L 563.389941 271.517278 
L 567.050672 247.080771 
L 570.711403 256.010633 
L 574.372134 278.33879 
L 578.032866 281.003169 
L 581.693597 286.112121 
L 585.354328 290.413525 
L 589.015059 297.520062 
L 592.67579 307.838626 
L 596.336521 294.02467 
L 599.997252 290.978826 
L 603.657983 277.948305 
L 607.318714 303.874176 
L 610.979445 306.427927 
L 614.640176 308.256248 
L 618.300907 303.371657 
L 621.961638 317.379822 
L 625.622369 327.470664 
L 629.2831 318.620682 
L 632.943831 313.386386 
L 636.604562 305.590149 
L 640.265293 285.467707 
L 643.926024 285.755784 
L 647.586755 278.962122 
L 651.247486 288.555175 
L 654.908217 299.255216 
L 658.568948 297.364254 
L 662.229679 292.765351 
L 665.89041 290.386608 
L 669.551141 296.533723 
L 673.211872 275.987682 
L 676.872603 266.740991 
L 680.533334 262.202779 
L 684.194065 278.419969 
L 687.854796 276.013931 
L 691.515527 286.178198 
L 695.176258 315.96214 
L 698.836989 289.031795 
L 702.49772 305.309897 
L 706.158451 295.049057 
L 709.819182 275.756743 
L 713.479913 260.170675 
L 717.140644 255.299217 
L 720.801375 251.499327 
L 724.462106 243.863069 
L 728.122837 279.886608 
L 731.783568 271.738614 
L 735.444299 258.943459 
L 739.10503 255.878579 
L 742.765761 258.744095 
L 746.426493 243.366582 
L 750.087224 232.407096 
L 753.747955 228.660349 
" style="fill:none;stroke:#ff0000;stroke-linecap:square;stroke-width:1.5;"/>
    <defs>
     <path d="M -0 3 
L 3 -3 
L -3 -3 
z
" id="mc235787c89" style="stroke:#000000;stroke-linejoin:miter;"/>
    </defs>
    <g clip-path="url(#pee4c0c9498)">
     <use style="fill:#ff0000;stroke:#000000;stroke-linejoin:miter;" x="398.657045" xlink:href="#mc235787c89" y="169.642625"/>
     <use style="fill:#ff0000;stroke:#000000;stroke-linejoin:miter;" x="402.317776" xlink:href="#mc235787c89" y="149.475746"/>
     <use style="fill:#ff0000;stroke:#000000;stroke-linejoin:miter;" x="405.978507" xlink:href="#mc235787c89" y="186.786378"/>
     <use style="fill:#ff0000;stroke:#000000;stroke-linejoin:miter;" x="409.639239" xlink:href="#mc235787c89" y="230.165323"/>
     <use style="fill:#ff0000;stroke:#000000;stroke-linejoin:miter;" x="413.29997" xlink:href="#mc235787c89" y="239.821233"/>
     <use style="fill:#ff0000;stroke:#000000;stroke-linejoin:miter;" x="416.960701" xlink:href="#mc235787c89" y="168.734296"/>
     <use style="fill:#ff0000;stroke:#000000;stroke-linejoin:miter;" x="420.621432" xlink:href="#mc235787c89" y="151.832293"/>
     <use style="fill:#ff0000;stroke:#000000;stroke-linejoin:miter;" x="424.282163" xlink:href="#mc235787c89" y="165.368728"/>
     <use style="fill:#ff0000;stroke:#000000;stroke-linejoin:miter;" x="427.942894" xlink:href="#mc235787c89" y="230.369478"/>
     <use style="fill:#ff0000;stroke:#000000;stroke-linejoin:miter;" x="431.603625" xlink:href="#mc235787c89" y="188.864225"/>
     <use style="fill:#ff0000;stroke:#000000;stroke-linejoin:miter;" x="435.264356" xlink:href="#mc235787c89" y="203.053561"/>
     <use style="fill:#ff0000;stroke:#000000;stroke-linejoin:miter;" x="438.925087" xlink:href="#mc235787c89" y="197.55868"/>
     <use style="fill:#ff0000;stroke:#000000;stroke-linejoin:miter;" x="442.585818" xlink:href="#mc235787c89" y="245.604748"/>
     <use style="fill:#ff0000;stroke:#000000;stroke-linejoin:miter;" x="446.246549" xlink:href="#mc235787c89" y="216.159452"/>
     <use style="fill:#ff0000;stroke:#000000;stroke-linejoin:miter;" x="449.90728" xlink:href="#mc235787c89" y="234.353082"/>
     <use style="fill:#ff0000;stroke:#000000;stroke-linejoin:miter;" x="453.568011" xlink:href="#mc235787c89" y="238.830515"/>
     <use style="fill:#ff0000;stroke:#000000;stroke-linejoin:miter;" x="457.228742" xlink:href="#mc235787c89" y="233.344289"/>
     <use style="fill:#ff0000;stroke:#000000;stroke-linejoin:miter;" x="460.889473" xlink:href="#mc235787c89" y="207.245031"/>
     <use style="fill:#ff0000;stroke:#000000;stroke-linejoin:miter;" x="464.550204" xlink:href="#mc235787c89" y="248.048967"/>
     <use style="fill:#ff0000;stroke:#000000;stroke-linejoin:miter;" x="468.210935" xlink:href="#mc235787c89" y="252.944579"/>
     <use style="fill:#ff0000;stroke:#000000;stroke-linejoin:miter;" x="471.871666" xlink:href="#mc235787c89" y="238.83632"/>
     <use style="fill:#ff0000;stroke:#000000;stroke-linejoin:miter;" x="475.532397" xlink:href="#mc235787c89" y="267.561355"/>
     <use style="fill:#ff0000;stroke:#000000;stroke-linejoin:miter;" x="479.193128" xlink:href="#mc235787c89" y="250.440212"/>
     <use style="fill:#ff0000;stroke:#000000;stroke-linejoin:miter;" x="482.853859" xlink:href="#mc235787c89" y="253.907428"/>
     <use style="fill:#ff0000;stroke:#000000;stroke-linejoin:miter;" x="486.51459" xlink:href="#mc235787c89" y="270.203876"/>
     <use style="fill:#ff0000;stroke:#000000;stroke-linejoin:miter;" x="490.175321" xlink:href="#mc235787c89" y="215.746634"/>
     <use style="fill:#ff0000;stroke:#000000;stroke-linejoin:miter;" x="493.836052" xlink:href="#mc235787c89" y="216.526396"/>
     <use style="fill:#ff0000;stroke:#000000;stroke-linejoin:miter;" x="497.496783" xlink:href="#mc235787c89" y="222.118908"/>
     <use style="fill:#ff0000;stroke:#000000;stroke-linejoin:miter;" x="501.157514" xlink:href="#mc235787c89" y="214.953843"/>
     <use style="fill:#ff0000;stroke:#000000;stroke-linejoin:miter;" x="504.818245" xlink:href="#mc235787c89" y="214.269847"/>
     <use style="fill:#ff0000;stroke:#000000;stroke-linejoin:miter;" x="508.478976" xlink:href="#mc235787c89" y="220.617901"/>
     <use style="fill:#ff0000;stroke:#000000;stroke-linejoin:miter;" x="512.139707" xlink:href="#mc235787c89" y="234.96001"/>
     <use style="fill:#ff0000;stroke:#000000;stroke-linejoin:miter;" x="515.800438" xlink:href="#mc235787c89" y="217.01161"/>
     <use style="fill:#ff0000;stroke:#000000;stroke-linejoin:miter;" x="519.461169" xlink:href="#mc235787c89" y="205.380352"/>
     <use style="fill:#ff0000;stroke:#000000;stroke-linejoin:miter;" x="523.1219" xlink:href="#mc235787c89" y="214.793336"/>
     <use style="fill:#ff0000;stroke:#000000;stroke-linejoin:miter;" x="526.782631" xlink:href="#mc235787c89" y="240.826756"/>
     <use style="fill:#ff0000;stroke:#000000;stroke-linejoin:miter;" x="530.443362" xlink:href="#mc235787c89" y="258.169604"/>
     <use style="fill:#ff0000;stroke:#000000;stroke-linejoin:miter;" x="534.104093" xlink:href="#mc235787c89" y="272.228362"/>
     <use style="fill:#ff0000;stroke:#000000;stroke-linejoin:miter;" x="537.764824" xlink:href="#mc235787c89" y="291.391584"/>
     <use style="fill:#ff0000;stroke:#000000;stroke-linejoin:miter;" x="541.425555" xlink:href="#mc235787c89" y="277.104374"/>
     <use style="fill:#ff0000;stroke:#000000;stroke-linejoin:miter;" x="545.086286" xlink:href="#mc235787c89" y="274.207905"/>
     <use style="fill:#ff0000;stroke:#000000;stroke-linejoin:miter;" x="548.747017" xlink:href="#mc235787c89" y="274.77168"/>
     <use style="fill:#ff0000;stroke:#000000;stroke-linejoin:miter;" x="552.407748" xlink:href="#mc235787c89" y="287.262333"/>
     <use style="fill:#ff0000;stroke:#000000;stroke-linejoin:miter;" x="556.068479" xlink:href="#mc235787c89" y="281.960393"/>
     <use style="fill:#ff0000;stroke:#000000;stroke-linejoin:miter;" x="559.72921" xlink:href="#mc235787c89" y="273.450087"/>
     <use style="fill:#ff0000;stroke:#000000;stroke-linejoin:miter;" x="563.389941" xlink:href="#mc235787c89" y="271.517278"/>
     <use style="fill:#ff0000;stroke:#000000;stroke-linejoin:miter;" x="567.050672" xlink:href="#mc235787c89" y="247.080771"/>
     <use style="fill:#ff0000;stroke:#000000;stroke-linejoin:miter;" x="570.711403" xlink:href="#mc235787c89" y="256.010633"/>
     <use style="fill:#ff0000;stroke:#000000;stroke-linejoin:miter;" x="574.372134" xlink:href="#mc235787c89" y="278.33879"/>
     <use style="fill:#ff0000;stroke:#000000;stroke-linejoin:miter;" x="578.032866" xlink:href="#mc235787c89" y="281.003169"/>
     <use style="fill:#ff0000;stroke:#000000;stroke-linejoin:miter;" x="581.693597" xlink:href="#mc235787c89" y="286.112121"/>
     <use style="fill:#ff0000;stroke:#000000;stroke-linejoin:miter;" x="585.354328" xlink:href="#mc235787c89" y="290.413525"/>
     <use style="fill:#ff0000;stroke:#000000;stroke-linejoin:miter;" x="589.015059" xlink:href="#mc235787c89" y="297.520062"/>
     <use style="fill:#ff0000;stroke:#000000;stroke-linejoin:miter;" x="592.67579" xlink:href="#mc235787c89" y="307.838626"/>
     <use style="fill:#ff0000;stroke:#000000;stroke-linejoin:miter;" x="596.336521" xlink:href="#mc235787c89" y="294.02467"/>
     <use style="fill:#ff0000;stroke:#000000;stroke-linejoin:miter;" x="599.997252" xlink:href="#mc235787c89" y="290.978826"/>
     <use style="fill:#ff0000;stroke:#000000;stroke-linejoin:miter;" x="603.657983" xlink:href="#mc235787c89" y="277.948305"/>
     <use style="fill:#ff0000;stroke:#000000;stroke-linejoin:miter;" x="607.318714" xlink:href="#mc235787c89" y="303.874176"/>
     <use style="fill:#ff0000;stroke:#000000;stroke-linejoin:miter;" x="610.979445" xlink:href="#mc235787c89" y="306.427927"/>
     <use style="fill:#ff0000;stroke:#000000;stroke-linejoin:miter;" x="614.640176" xlink:href="#mc235787c89" y="308.256248"/>
     <use style="fill:#ff0000;stroke:#000000;stroke-linejoin:miter;" x="618.300907" xlink:href="#mc235787c89" y="303.371657"/>
     <use style="fill:#ff0000;stroke:#000000;stroke-linejoin:miter;" x="621.961638" xlink:href="#mc235787c89" y="317.379822"/>
     <use style="fill:#ff0000;stroke:#000000;stroke-linejoin:miter;" x="625.622369" xlink:href="#mc235787c89" y="327.470664"/>
     <use style="fill:#ff0000;stroke:#000000;stroke-linejoin:miter;" x="629.2831" xlink:href="#mc235787c89" y="318.620682"/>
     <use style="fill:#ff0000;stroke:#000000;stroke-linejoin:miter;" x="632.943831" xlink:href="#mc235787c89" y="313.386386"/>
     <use style="fill:#ff0000;stroke:#000000;stroke-linejoin:miter;" x="636.604562" xlink:href="#mc235787c89" y="305.590149"/>
     <use style="fill:#ff0000;stroke:#000000;stroke-linejoin:miter;" x="640.265293" xlink:href="#mc235787c89" y="285.467707"/>
     <use style="fill:#ff0000;stroke:#000000;stroke-linejoin:miter;" x="643.926024" xlink:href="#mc235787c89" y="285.755784"/>
     <use style="fill:#ff0000;stroke:#000000;stroke-linejoin:miter;" x="647.586755" xlink:href="#mc235787c89" y="278.962122"/>
     <use style="fill:#ff0000;stroke:#000000;stroke-linejoin:miter;" x="651.247486" xlink:href="#mc235787c89" y="288.555175"/>
     <use style="fill:#ff0000;stroke:#000000;stroke-linejoin:miter;" x="654.908217" xlink:href="#mc235787c89" y="299.255216"/>
     <use style="fill:#ff0000;stroke:#000000;stroke-linejoin:miter;" x="658.568948" xlink:href="#mc235787c89" y="297.364254"/>
     <use style="fill:#ff0000;stroke:#000000;stroke-linejoin:miter;" x="662.229679" xlink:href="#mc235787c89" y="292.765351"/>
     <use style="fill:#ff0000;stroke:#000000;stroke-linejoin:miter;" x="665.89041" xlink:href="#mc235787c89" y="290.386608"/>
     <use style="fill:#ff0000;stroke:#000000;stroke-linejoin:miter;" x="669.551141" xlink:href="#mc235787c89" y="296.533723"/>
     <use style="fill:#ff0000;stroke:#000000;stroke-linejoin:miter;" x="673.211872" xlink:href="#mc235787c89" y="275.987682"/>
     <use style="fill:#ff0000;stroke:#000000;stroke-linejoin:miter;" x="676.872603" xlink:href="#mc235787c89" y="266.740991"/>
     <use style="fill:#ff0000;stroke:#000000;stroke-linejoin:miter;" x="680.533334" xlink:href="#mc235787c89" y="262.202779"/>
     <use style="fill:#ff0000;stroke:#000000;stroke-linejoin:miter;" x="684.194065" xlink:href="#mc235787c89" y="278.419969"/>
     <use style="fill:#ff0000;stroke:#000000;stroke-linejoin:miter;" x="687.854796" xlink:href="#mc235787c89" y="276.013931"/>
     <use style="fill:#ff0000;stroke:#000000;stroke-linejoin:miter;" x="691.515527" xlink:href="#mc235787c89" y="286.178198"/>
     <use style="fill:#ff0000;stroke:#000000;stroke-linejoin:miter;" x="695.176258" xlink:href="#mc235787c89" y="315.96214"/>
     <use style="fill:#ff0000;stroke:#000000;stroke-linejoin:miter;" x="698.836989" xlink:href="#mc235787c89" y="289.031795"/>
     <use style="fill:#ff0000;stroke:#000000;stroke-linejoin:miter;" x="702.49772" xlink:href="#mc235787c89" y="305.309897"/>
     <use style="fill:#ff0000;stroke:#000000;stroke-linejoin:miter;" x="706.158451" xlink:href="#mc235787c89" y="295.049057"/>
     <use style="fill:#ff0000;stroke:#000000;stroke-linejoin:miter;" x="709.819182" xlink:href="#mc235787c89" y="275.756743"/>
     <use style="fill:#ff0000;stroke:#000000;stroke-linejoin:miter;" x="713.479913" xlink:href="#mc235787c89" y="260.170675"/>
     <use style="fill:#ff0000;stroke:#000000;stroke-linejoin:miter;" x="717.140644" xlink:href="#mc235787c89" y="255.299217"/>
     <use style="fill:#ff0000;stroke:#000000;stroke-linejoin:miter;" x="720.801375" xlink:href="#mc235787c89" y="251.499327"/>
     <use style="fill:#ff0000;stroke:#000000;stroke-linejoin:miter;" x="724.462106" xlink:href="#mc235787c89" y="243.863069"/>
     <use style="fill:#ff0000;stroke:#000000;stroke-linejoin:miter;" x="728.122837" xlink:href="#mc235787c89" y="279.886608"/>
     <use style="fill:#ff0000;stroke:#000000;stroke-linejoin:miter;" x="731.783568" xlink:href="#mc235787c89" y="271.738614"/>
     <use style="fill:#ff0000;stroke:#000000;stroke-linejoin:miter;" x="735.444299" xlink:href="#mc235787c89" y="258.943459"/>
     <use style="fill:#ff0000;stroke:#000000;stroke-linejoin:miter;" x="739.10503" xlink:href="#mc235787c89" y="255.878579"/>
     <use style="fill:#ff0000;stroke:#000000;stroke-linejoin:miter;" x="742.765761" xlink:href="#mc235787c89" y="258.744095"/>
     <use style="fill:#ff0000;stroke:#000000;stroke-linejoin:miter;" x="746.426493" xlink:href="#mc235787c89" y="243.366582"/>
     <use style="fill:#ff0000;stroke:#000000;stroke-linejoin:miter;" x="750.087224" xlink:href="#mc235787c89" y="232.407096"/>
     <use style="fill:#ff0000;stroke:#000000;stroke-linejoin:miter;" x="753.747955" xlink:href="#mc235787c89" y="228.660349"/>
    </g>
   </g>
   <g id="patch_14">
    <path d="M 380.9025 358.016 
L 380.9025 140.576 
" style="fill:none;stroke:#000000;stroke-linecap:square;stroke-linejoin:miter;stroke-width:0.8;"/>
   </g>
   <g id="patch_15">
    <path d="M 771.5025 358.016 
L 771.5025 140.576 
" style="fill:none;stroke:#000000;stroke-linecap:square;stroke-linejoin:miter;stroke-width:0.8;"/>
   </g>
   <g id="patch_16">
    <path d="M 380.9025 358.016 
L 771.5025 358.016 
" style="fill:none;stroke:#000000;stroke-linecap:square;stroke-linejoin:miter;stroke-width:0.8;"/>
   </g>
   <g id="patch_17">
    <path d="M 380.9025 140.576 
L 771.5025 140.576 
" style="fill:none;stroke:#000000;stroke-linecap:square;stroke-linejoin:miter;stroke-width:0.8;"/>
   </g>
  </g>
 </g>
 <defs>
  <clipPath id="pe5103f18ba">
   <rect height="434.88" width="781.2" x="68.4225" y="53.6"/>
  </clipPath>
  <clipPath id="pee4c0c9498">
   <rect height="217.44" width="390.6" x="380.9025" y="140.576"/>
  </clipPath>
 </defs>
</svg>
