<?xml version="1.0" encoding="utf-8" standalone="no"?>
<!DOCTYPE svg PUBLIC "-//W3C//DTD SVG 1.1//EN"
  "http://www.w3.org/Graphics/SVG/1.1/DTD/svg11.dtd">
<!-- Created with matplotlib (https://matplotlib.org/) -->
<svg height="490.1125pt" version="1.1" viewBox="0 0 839.41 490.1125" width="839.41pt" xmlns="http://www.w3.org/2000/svg" xmlns:xlink="http://www.w3.org/1999/xlink">
 <defs>
  <style type="text/css">
*{stroke-linecap:butt;stroke-linejoin:round;}
  </style>
 </defs>
 <g id="figure_1">
  <g id="patch_1">
   <path d="M 0 490.1125 
L 839.41 490.1125 
L 839.41 0 
L 0 0 
z
" style="fill:#ffffff;"/>
  </g>
  <g id="axes_1">
   <g id="patch_2">
    <path d="M 51.01 442.08 
L 832.21 442.08 
L 832.21 7.2 
L 51.01 7.2 
z
" style="fill:#ffffff;"/>
   </g>
   <g id="matplotlib.axis_1">
    <g id="xtick_1">
     <g id="line2d_1">
      <path clip-path="url(#p85d5eb5ab1)" d="M 86.519091 442.08 
L 86.519091 7.2 
" style="fill:none;stroke:#b0b0b0;stroke-linecap:square;stroke-width:0.8;"/>
     </g>
     <g id="line2d_2">
      <defs>
       <path d="M 0 0 
L 0 3.5 
" id="m46280f9265" style="stroke:#000000;stroke-width:0.8;"/>
      </defs>
      <g>
       <use style="stroke:#000000;stroke-width:0.8;" x="86.519091" xlink:href="#m46280f9265" y="442.08"/>
      </g>
     </g>
     <g id="text_1">
      <!-- 0 -->
      <defs>
       <path d="M 4.15625 35.296875 
Q 4.15625 48 6.765625 55.734375 
Q 9.375 63.484375 14.515625 67.671875 
Q 19.671875 71.875 27.484375 71.875 
Q 33.25 71.875 37.59375 69.546875 
Q 41.9375 67.234375 44.765625 62.859375 
Q 47.609375 58.5 49.21875 52.21875 
Q 50.828125 45.953125 50.828125 35.296875 
Q 50.828125 22.703125 48.234375 14.96875 
Q 45.65625 7.234375 40.5 3 
Q 35.359375 -1.21875 27.484375 -1.21875 
Q 17.140625 -1.21875 11.234375 6.203125 
Q 4.15625 15.140625 4.15625 35.296875 
z
M 13.1875 35.296875 
Q 13.1875 17.671875 17.3125 11.828125 
Q 21.4375 6 27.484375 6 
Q 33.546875 6 37.671875 11.859375 
Q 41.796875 17.71875 41.796875 35.296875 
Q 41.796875 52.984375 37.671875 58.78125 
Q 33.546875 64.59375 27.390625 64.59375 
Q 21.34375 64.59375 17.71875 59.46875 
Q 13.1875 52.9375 13.1875 35.296875 
z
" id="ArialMT-48"/>
      </defs>
      <g transform="translate(82.070341 460.5325)scale(0.16 -0.16)">
       <use xlink:href="#ArialMT-48"/>
      </g>
     </g>
    </g>
    <g id="xtick_2">
     <g id="line2d_3">
      <path clip-path="url(#p85d5eb5ab1)" d="M 158.254628 442.08 
L 158.254628 7.2 
" style="fill:none;stroke:#b0b0b0;stroke-linecap:square;stroke-width:0.8;"/>
     </g>
     <g id="line2d_4">
      <g>
       <use style="stroke:#000000;stroke-width:0.8;" x="158.254628" xlink:href="#m46280f9265" y="442.08"/>
      </g>
     </g>
     <g id="text_2">
      <!-- 10 -->
      <defs>
       <path d="M 37.25 0 
L 28.46875 0 
L 28.46875 56 
Q 25.296875 52.984375 20.140625 49.953125 
Q 14.984375 46.921875 10.890625 45.40625 
L 10.890625 53.90625 
Q 18.265625 57.375 23.78125 62.296875 
Q 29.296875 67.234375 31.59375 71.875 
L 37.25 71.875 
z
" id="ArialMT-49"/>
      </defs>
      <g transform="translate(149.357128 460.5325)scale(0.16 -0.16)">
       <use xlink:href="#ArialMT-49"/>
       <use x="55.615234" xlink:href="#ArialMT-48"/>
      </g>
     </g>
    </g>
    <g id="xtick_3">
     <g id="line2d_5">
      <path clip-path="url(#p85d5eb5ab1)" d="M 229.990165 442.08 
L 229.990165 7.2 
" style="fill:none;stroke:#b0b0b0;stroke-linecap:square;stroke-width:0.8;"/>
     </g>
     <g id="line2d_6">
      <g>
       <use style="stroke:#000000;stroke-width:0.8;" x="229.990165" xlink:href="#m46280f9265" y="442.08"/>
      </g>
     </g>
     <g id="text_3">
      <!-- 20 -->
      <defs>
       <path d="M 50.34375 8.453125 
L 50.34375 0 
L 3.03125 0 
Q 2.9375 3.171875 4.046875 6.109375 
Q 5.859375 10.9375 9.828125 15.625 
Q 13.8125 20.3125 21.34375 26.46875 
Q 33.015625 36.03125 37.109375 41.625 
Q 41.21875 47.21875 41.21875 52.203125 
Q 41.21875 57.421875 37.46875 61 
Q 33.734375 64.59375 27.734375 64.59375 
Q 21.390625 64.59375 17.578125 60.78125 
Q 13.765625 56.984375 13.71875 50.25 
L 4.6875 51.171875 
Q 5.609375 61.28125 11.65625 66.578125 
Q 17.71875 71.875 27.9375 71.875 
Q 38.234375 71.875 44.234375 66.15625 
Q 50.25 60.453125 50.25 52 
Q 50.25 47.703125 48.484375 43.546875 
Q 46.734375 39.40625 42.65625 34.8125 
Q 38.578125 30.21875 29.109375 22.21875 
Q 21.1875 15.578125 18.9375 13.203125 
Q 16.703125 10.84375 15.234375 8.453125 
z
" id="ArialMT-50"/>
      </defs>
      <g transform="translate(221.092665 460.5325)scale(0.16 -0.16)">
       <use xlink:href="#ArialMT-50"/>
       <use x="55.615234" xlink:href="#ArialMT-48"/>
      </g>
     </g>
    </g>
    <g id="xtick_4">
     <g id="line2d_7">
      <path clip-path="url(#p85d5eb5ab1)" d="M 301.725702 442.08 
L 301.725702 7.2 
" style="fill:none;stroke:#b0b0b0;stroke-linecap:square;stroke-width:0.8;"/>
     </g>
     <g id="line2d_8">
      <g>
       <use style="stroke:#000000;stroke-width:0.8;" x="301.725702" xlink:href="#m46280f9265" y="442.08"/>
      </g>
     </g>
     <g id="text_4">
      <!-- 30 -->
      <defs>
       <path d="M 4.203125 18.890625 
L 12.984375 20.0625 
Q 14.5 12.59375 18.140625 9.296875 
Q 21.78125 6 27 6 
Q 33.203125 6 37.46875 10.296875 
Q 41.75 14.59375 41.75 20.953125 
Q 41.75 27 37.796875 30.921875 
Q 33.84375 34.859375 27.734375 34.859375 
Q 25.25 34.859375 21.53125 33.890625 
L 22.515625 41.609375 
Q 23.390625 41.5 23.921875 41.5 
Q 29.546875 41.5 34.03125 44.421875 
Q 38.53125 47.359375 38.53125 53.46875 
Q 38.53125 58.296875 35.25 61.46875 
Q 31.984375 64.65625 26.8125 64.65625 
Q 21.6875 64.65625 18.265625 61.421875 
Q 14.84375 58.203125 13.875 51.765625 
L 5.078125 53.328125 
Q 6.6875 62.15625 12.390625 67.015625 
Q 18.109375 71.875 26.609375 71.875 
Q 32.46875 71.875 37.390625 69.359375 
Q 42.328125 66.84375 44.9375 62.5 
Q 47.5625 58.15625 47.5625 53.265625 
Q 47.5625 48.640625 45.0625 44.828125 
Q 42.578125 41.015625 37.703125 38.765625 
Q 44.046875 37.3125 47.5625 32.6875 
Q 51.078125 28.078125 51.078125 21.140625 
Q 51.078125 11.765625 44.234375 5.25 
Q 37.40625 -1.265625 26.953125 -1.265625 
Q 17.53125 -1.265625 11.296875 4.34375 
Q 5.078125 9.96875 4.203125 18.890625 
z
" id="ArialMT-51"/>
      </defs>
      <g transform="translate(292.828202 460.5325)scale(0.16 -0.16)">
       <use xlink:href="#ArialMT-51"/>
       <use x="55.615234" xlink:href="#ArialMT-48"/>
      </g>
     </g>
    </g>
    <g id="xtick_5">
     <g id="line2d_9">
      <path clip-path="url(#p85d5eb5ab1)" d="M 373.46124 442.08 
L 373.46124 7.2 
" style="fill:none;stroke:#b0b0b0;stroke-linecap:square;stroke-width:0.8;"/>
     </g>
     <g id="line2d_10">
      <g>
       <use style="stroke:#000000;stroke-width:0.8;" x="373.46124" xlink:href="#m46280f9265" y="442.08"/>
      </g>
     </g>
     <g id="text_5">
      <!-- 40 -->
      <defs>
       <path d="M 32.328125 0 
L 32.328125 17.140625 
L 1.265625 17.140625 
L 1.265625 25.203125 
L 33.9375 71.578125 
L 41.109375 71.578125 
L 41.109375 25.203125 
L 50.78125 25.203125 
L 50.78125 17.140625 
L 41.109375 17.140625 
L 41.109375 0 
z
M 32.328125 25.203125 
L 32.328125 57.46875 
L 9.90625 25.203125 
z
" id="ArialMT-52"/>
      </defs>
      <g transform="translate(364.56374 460.5325)scale(0.16 -0.16)">
       <use xlink:href="#ArialMT-52"/>
       <use x="55.615234" xlink:href="#ArialMT-48"/>
      </g>
     </g>
    </g>
    <g id="xtick_6">
     <g id="line2d_11">
      <path clip-path="url(#p85d5eb5ab1)" d="M 445.196777 442.08 
L 445.196777 7.2 
" style="fill:none;stroke:#b0b0b0;stroke-linecap:square;stroke-width:0.8;"/>
     </g>
     <g id="line2d_12">
      <g>
       <use style="stroke:#000000;stroke-width:0.8;" x="445.196777" xlink:href="#m46280f9265" y="442.08"/>
      </g>
     </g>
     <g id="text_6">
      <!-- 50 -->
      <defs>
       <path d="M 4.15625 18.75 
L 13.375 19.53125 
Q 14.40625 12.796875 18.140625 9.390625 
Q 21.875 6 27.15625 6 
Q 33.5 6 37.890625 10.78125 
Q 42.28125 15.578125 42.28125 23.484375 
Q 42.28125 31 38.0625 35.34375 
Q 33.84375 39.703125 27 39.703125 
Q 22.75 39.703125 19.328125 37.765625 
Q 15.921875 35.84375 13.96875 32.765625 
L 5.71875 33.84375 
L 12.640625 70.609375 
L 48.25 70.609375 
L 48.25 62.203125 
L 19.671875 62.203125 
L 15.828125 42.96875 
Q 22.265625 47.46875 29.34375 47.46875 
Q 38.71875 47.46875 45.15625 40.96875 
Q 51.609375 34.46875 51.609375 24.265625 
Q 51.609375 14.546875 45.953125 7.46875 
Q 39.0625 -1.21875 27.15625 -1.21875 
Q 17.390625 -1.21875 11.203125 4.25 
Q 5.03125 9.71875 4.15625 18.75 
z
" id="ArialMT-53"/>
      </defs>
      <g transform="translate(436.299277 460.5325)scale(0.16 -0.16)">
       <use xlink:href="#ArialMT-53"/>
       <use x="55.615234" xlink:href="#ArialMT-48"/>
      </g>
     </g>
    </g>
    <g id="xtick_7">
     <g id="line2d_13">
      <path clip-path="url(#p85d5eb5ab1)" d="M 516.932314 442.08 
L 516.932314 7.2 
" style="fill:none;stroke:#b0b0b0;stroke-linecap:square;stroke-width:0.8;"/>
     </g>
     <g id="line2d_14">
      <g>
       <use style="stroke:#000000;stroke-width:0.8;" x="516.932314" xlink:href="#m46280f9265" y="442.08"/>
      </g>
     </g>
     <g id="text_7">
      <!-- 60 -->
      <defs>
       <path d="M 49.75 54.046875 
L 41.015625 53.375 
Q 39.84375 58.546875 37.703125 60.890625 
Q 34.125 64.65625 28.90625 64.65625 
Q 24.703125 64.65625 21.53125 62.3125 
Q 17.390625 59.28125 14.984375 53.46875 
Q 12.59375 47.65625 12.5 36.921875 
Q 15.671875 41.75 20.265625 44.09375 
Q 24.859375 46.4375 29.890625 46.4375 
Q 38.671875 46.4375 44.84375 39.96875 
Q 51.03125 33.5 51.03125 23.25 
Q 51.03125 16.5 48.125 10.71875 
Q 45.21875 4.9375 40.140625 1.859375 
Q 35.0625 -1.21875 28.609375 -1.21875 
Q 17.625 -1.21875 10.6875 6.859375 
Q 3.765625 14.9375 3.765625 33.5 
Q 3.765625 54.25 11.421875 63.671875 
Q 18.109375 71.875 29.4375 71.875 
Q 37.890625 71.875 43.28125 67.140625 
Q 48.6875 62.40625 49.75 54.046875 
z
M 13.875 23.1875 
Q 13.875 18.65625 15.796875 14.5 
Q 17.71875 10.359375 21.1875 8.171875 
Q 24.65625 6 28.46875 6 
Q 34.03125 6 38.03125 10.484375 
Q 42.046875 14.984375 42.046875 22.703125 
Q 42.046875 30.125 38.078125 34.390625 
Q 34.125 38.671875 28.125 38.671875 
Q 22.171875 38.671875 18.015625 34.390625 
Q 13.875 30.125 13.875 23.1875 
z
" id="ArialMT-54"/>
      </defs>
      <g transform="translate(508.034814 460.5325)scale(0.16 -0.16)">
       <use xlink:href="#ArialMT-54"/>
       <use x="55.615234" xlink:href="#ArialMT-48"/>
      </g>
     </g>
    </g>
    <g id="xtick_8">
     <g id="line2d_15">
      <path clip-path="url(#p85d5eb5ab1)" d="M 588.667851 442.08 
L 588.667851 7.2 
" style="fill:none;stroke:#b0b0b0;stroke-linecap:square;stroke-width:0.8;"/>
     </g>
     <g id="line2d_16">
      <g>
       <use style="stroke:#000000;stroke-width:0.8;" x="588.667851" xlink:href="#m46280f9265" y="442.08"/>
      </g>
     </g>
     <g id="text_8">
      <!-- 70 -->
      <defs>
       <path d="M 4.734375 62.203125 
L 4.734375 70.65625 
L 51.078125 70.65625 
L 51.078125 63.8125 
Q 44.234375 56.546875 37.515625 44.484375 
Q 30.8125 32.421875 27.15625 19.671875 
Q 24.515625 10.6875 23.78125 0 
L 14.75 0 
Q 14.890625 8.453125 18.0625 20.40625 
Q 21.234375 32.375 27.171875 43.484375 
Q 33.109375 54.59375 39.796875 62.203125 
z
" id="ArialMT-55"/>
      </defs>
      <g transform="translate(579.770351 460.5325)scale(0.16 -0.16)">
       <use xlink:href="#ArialMT-55"/>
       <use x="55.615234" xlink:href="#ArialMT-48"/>
      </g>
     </g>
    </g>
    <g id="xtick_9">
     <g id="line2d_17">
      <path clip-path="url(#p85d5eb5ab1)" d="M 660.403388 442.08 
L 660.403388 7.2 
" style="fill:none;stroke:#b0b0b0;stroke-linecap:square;stroke-width:0.8;"/>
     </g>
     <g id="line2d_18">
      <g>
       <use style="stroke:#000000;stroke-width:0.8;" x="660.403388" xlink:href="#m46280f9265" y="442.08"/>
      </g>
     </g>
     <g id="text_9">
      <!-- 80 -->
      <defs>
       <path d="M 17.671875 38.8125 
Q 12.203125 40.828125 9.5625 44.53125 
Q 6.9375 48.25 6.9375 53.421875 
Q 6.9375 61.234375 12.546875 66.546875 
Q 18.171875 71.875 27.484375 71.875 
Q 36.859375 71.875 42.578125 66.421875 
Q 48.296875 60.984375 48.296875 53.171875 
Q 48.296875 48.1875 45.671875 44.5 
Q 43.0625 40.828125 37.75 38.8125 
Q 44.34375 36.671875 47.78125 31.875 
Q 51.21875 27.09375 51.21875 20.453125 
Q 51.21875 11.28125 44.71875 5.03125 
Q 38.234375 -1.21875 27.640625 -1.21875 
Q 17.046875 -1.21875 10.546875 5.046875 
Q 4.046875 11.328125 4.046875 20.703125 
Q 4.046875 27.6875 7.59375 32.390625 
Q 11.140625 37.109375 17.671875 38.8125 
z
M 15.921875 53.71875 
Q 15.921875 48.640625 19.1875 45.40625 
Q 22.46875 42.1875 27.6875 42.1875 
Q 32.765625 42.1875 36.015625 45.375 
Q 39.265625 48.578125 39.265625 53.21875 
Q 39.265625 58.0625 35.90625 61.359375 
Q 32.5625 64.65625 27.59375 64.65625 
Q 22.5625 64.65625 19.234375 61.421875 
Q 15.921875 58.203125 15.921875 53.71875 
z
M 13.09375 20.65625 
Q 13.09375 16.890625 14.875 13.375 
Q 16.65625 9.859375 20.171875 7.921875 
Q 23.6875 6 27.734375 6 
Q 34.03125 6 38.125 10.046875 
Q 42.234375 14.109375 42.234375 20.359375 
Q 42.234375 26.703125 38.015625 30.859375 
Q 33.796875 35.015625 27.4375 35.015625 
Q 21.234375 35.015625 17.15625 30.90625 
Q 13.09375 26.8125 13.09375 20.65625 
z
" id="ArialMT-56"/>
      </defs>
      <g transform="translate(651.505888 460.5325)scale(0.16 -0.16)">
       <use xlink:href="#ArialMT-56"/>
       <use x="55.615234" xlink:href="#ArialMT-48"/>
      </g>
     </g>
    </g>
    <g id="xtick_10">
     <g id="line2d_19">
      <path clip-path="url(#p85d5eb5ab1)" d="M 732.138926 442.08 
L 732.138926 7.2 
" style="fill:none;stroke:#b0b0b0;stroke-linecap:square;stroke-width:0.8;"/>
     </g>
     <g id="line2d_20">
      <g>
       <use style="stroke:#000000;stroke-width:0.8;" x="732.138926" xlink:href="#m46280f9265" y="442.08"/>
      </g>
     </g>
     <g id="text_10">
      <!-- 90 -->
      <defs>
       <path d="M 5.46875 16.546875 
L 13.921875 17.328125 
Q 14.984375 11.375 18.015625 8.6875 
Q 21.046875 6 25.78125 6 
Q 29.828125 6 32.875 7.859375 
Q 35.9375 9.71875 37.890625 12.8125 
Q 39.84375 15.921875 41.15625 21.1875 
Q 42.484375 26.46875 42.484375 31.9375 
Q 42.484375 32.515625 42.4375 33.6875 
Q 39.796875 29.5 35.234375 26.875 
Q 30.671875 24.265625 25.34375 24.265625 
Q 16.453125 24.265625 10.296875 30.703125 
Q 4.15625 37.15625 4.15625 47.703125 
Q 4.15625 58.59375 10.578125 65.234375 
Q 17 71.875 26.65625 71.875 
Q 33.640625 71.875 39.421875 68.109375 
Q 45.21875 64.359375 48.21875 57.390625 
Q 51.21875 50.4375 51.21875 37.25 
Q 51.21875 23.53125 48.234375 15.40625 
Q 45.265625 7.28125 39.375 3.03125 
Q 33.5 -1.21875 25.59375 -1.21875 
Q 17.1875 -1.21875 11.859375 3.4375 
Q 6.546875 8.109375 5.46875 16.546875 
z
M 41.453125 48.140625 
Q 41.453125 55.71875 37.421875 60.15625 
Q 33.40625 64.59375 27.734375 64.59375 
Q 21.875 64.59375 17.53125 59.8125 
Q 13.1875 55.03125 13.1875 47.40625 
Q 13.1875 40.578125 17.3125 36.296875 
Q 21.4375 32.03125 27.484375 32.03125 
Q 33.59375 32.03125 37.515625 36.296875 
Q 41.453125 40.578125 41.453125 48.140625 
z
" id="ArialMT-57"/>
      </defs>
      <g transform="translate(723.241426 460.5325)scale(0.16 -0.16)">
       <use xlink:href="#ArialMT-57"/>
       <use x="55.615234" xlink:href="#ArialMT-48"/>
      </g>
     </g>
    </g>
    <g id="text_11">
     <!-- Transmission Delay ($\mu$s) -->
     <defs>
      <path d="M 25.921875 0 
L 25.921875 63.140625 
L 2.34375 63.140625 
L 2.34375 71.578125 
L 59.078125 71.578125 
L 59.078125 63.140625 
L 35.40625 63.140625 
L 35.40625 0 
z
" id="ArialMT-84"/>
      <path d="M 6.5 0 
L 6.5 51.859375 
L 14.40625 51.859375 
L 14.40625 44 
Q 17.4375 49.515625 20 51.265625 
Q 22.5625 53.03125 25.640625 53.03125 
Q 30.078125 53.03125 34.671875 50.203125 
L 31.640625 42.046875 
Q 28.421875 43.953125 25.203125 43.953125 
Q 22.3125 43.953125 20.015625 42.21875 
Q 17.71875 40.484375 16.75 37.40625 
Q 15.28125 32.71875 15.28125 27.15625 
L 15.28125 0 
z
" id="ArialMT-114"/>
      <path d="M 40.4375 6.390625 
Q 35.546875 2.25 31.03125 0.53125 
Q 26.515625 -1.171875 21.34375 -1.171875 
Q 12.796875 -1.171875 8.203125 3 
Q 3.609375 7.171875 3.609375 13.671875 
Q 3.609375 17.484375 5.34375 20.625 
Q 7.078125 23.78125 9.890625 25.6875 
Q 12.703125 27.59375 16.21875 28.5625 
Q 18.796875 29.25 24.03125 29.890625 
Q 34.671875 31.15625 39.703125 32.90625 
Q 39.75 34.71875 39.75 35.203125 
Q 39.75 40.578125 37.25 42.78125 
Q 33.890625 45.75 27.25 45.75 
Q 21.046875 45.75 18.09375 43.578125 
Q 15.140625 41.40625 13.71875 35.890625 
L 5.125 37.0625 
Q 6.296875 42.578125 8.984375 45.96875 
Q 11.671875 49.359375 16.75 51.1875 
Q 21.828125 53.03125 28.515625 53.03125 
Q 35.15625 53.03125 39.296875 51.46875 
Q 43.453125 49.90625 45.40625 47.53125 
Q 47.359375 45.171875 48.140625 41.546875 
Q 48.578125 39.3125 48.578125 33.453125 
L 48.578125 21.734375 
Q 48.578125 9.46875 49.140625 6.21875 
Q 49.703125 2.984375 51.375 0 
L 42.1875 0 
Q 40.828125 2.734375 40.4375 6.390625 
z
M 39.703125 26.03125 
Q 34.90625 24.078125 25.34375 22.703125 
Q 19.921875 21.921875 17.671875 20.9375 
Q 15.4375 19.96875 14.203125 18.09375 
Q 12.984375 16.21875 12.984375 13.921875 
Q 12.984375 10.40625 15.640625 8.0625 
Q 18.3125 5.71875 23.4375 5.71875 
Q 28.515625 5.71875 32.46875 7.9375 
Q 36.421875 10.15625 38.28125 14.015625 
Q 39.703125 17 39.703125 22.796875 
z
" id="ArialMT-97"/>
      <path d="M 6.59375 0 
L 6.59375 51.859375 
L 14.5 51.859375 
L 14.5 44.484375 
Q 20.21875 53.03125 31 53.03125 
Q 35.6875 53.03125 39.625 51.34375 
Q 43.5625 49.65625 45.515625 46.921875 
Q 47.46875 44.1875 48.25 40.4375 
Q 48.734375 37.984375 48.734375 31.890625 
L 48.734375 0 
L 39.9375 0 
L 39.9375 31.546875 
Q 39.9375 36.921875 38.90625 39.578125 
Q 37.890625 42.234375 35.28125 43.8125 
Q 32.671875 45.40625 29.15625 45.40625 
Q 23.53125 45.40625 19.453125 41.84375 
Q 15.375 38.28125 15.375 28.328125 
L 15.375 0 
z
" id="ArialMT-110"/>
      <path d="M 3.078125 15.484375 
L 11.765625 16.84375 
Q 12.5 11.625 15.84375 8.84375 
Q 19.1875 6.0625 25.203125 6.0625 
Q 31.25 6.0625 34.171875 8.515625 
Q 37.109375 10.984375 37.109375 14.3125 
Q 37.109375 17.28125 34.515625 19 
Q 32.71875 20.171875 25.53125 21.96875 
Q 15.875 24.421875 12.140625 26.203125 
Q 8.40625 27.984375 6.46875 31.125 
Q 4.546875 34.28125 4.546875 38.09375 
Q 4.546875 41.546875 6.125 44.5 
Q 7.71875 47.46875 10.453125 49.421875 
Q 12.5 50.921875 16.03125 51.96875 
Q 19.578125 53.03125 23.640625 53.03125 
Q 29.734375 53.03125 34.34375 51.265625 
Q 38.96875 49.515625 41.15625 46.5 
Q 43.359375 43.5 44.1875 38.484375 
L 35.59375 37.3125 
Q 35.015625 41.3125 32.203125 43.546875 
Q 29.390625 45.796875 24.265625 45.796875 
Q 18.21875 45.796875 15.625 43.796875 
Q 13.03125 41.796875 13.03125 39.109375 
Q 13.03125 37.40625 14.109375 36.03125 
Q 15.1875 34.625 17.484375 33.6875 
Q 18.796875 33.203125 25.25 31.453125 
Q 34.578125 28.953125 38.25 27.359375 
Q 41.9375 25.78125 44.03125 22.75 
Q 46.140625 19.734375 46.140625 15.234375 
Q 46.140625 10.84375 43.578125 6.953125 
Q 41.015625 3.078125 36.171875 0.953125 
Q 31.34375 -1.171875 25.25 -1.171875 
Q 15.140625 -1.171875 9.84375 3.03125 
Q 4.546875 7.234375 3.078125 15.484375 
z
" id="ArialMT-115"/>
      <path d="M 6.59375 0 
L 6.59375 51.859375 
L 14.453125 51.859375 
L 14.453125 44.578125 
Q 16.890625 48.390625 20.9375 50.703125 
Q 25 53.03125 30.171875 53.03125 
Q 35.9375 53.03125 39.625 50.640625 
Q 43.3125 48.25 44.828125 43.953125 
Q 50.984375 53.03125 60.84375 53.03125 
Q 68.5625 53.03125 72.703125 48.75 
Q 76.859375 44.484375 76.859375 35.59375 
L 76.859375 0 
L 68.109375 0 
L 68.109375 32.671875 
Q 68.109375 37.9375 67.25 40.25 
Q 66.40625 42.578125 64.15625 43.984375 
Q 61.921875 45.40625 58.890625 45.40625 
Q 53.421875 45.40625 49.796875 41.765625 
Q 46.1875 38.140625 46.1875 30.125 
L 46.1875 0 
L 37.40625 0 
L 37.40625 33.6875 
Q 37.40625 39.546875 35.25 42.46875 
Q 33.109375 45.40625 28.21875 45.40625 
Q 24.515625 45.40625 21.359375 43.453125 
Q 18.21875 41.5 16.796875 37.734375 
Q 15.375 33.984375 15.375 26.90625 
L 15.375 0 
z
" id="ArialMT-109"/>
      <path d="M 6.640625 61.46875 
L 6.640625 71.578125 
L 15.4375 71.578125 
L 15.4375 61.46875 
z
M 6.640625 0 
L 6.640625 51.859375 
L 15.4375 51.859375 
L 15.4375 0 
z
" id="ArialMT-105"/>
      <path d="M 3.328125 25.921875 
Q 3.328125 40.328125 11.328125 47.265625 
Q 18.015625 53.03125 27.640625 53.03125 
Q 38.328125 53.03125 45.109375 46.015625 
Q 51.90625 39.015625 51.90625 26.65625 
Q 51.90625 16.65625 48.90625 10.90625 
Q 45.90625 5.171875 40.15625 2 
Q 34.421875 -1.171875 27.640625 -1.171875 
Q 16.75 -1.171875 10.03125 5.8125 
Q 3.328125 12.796875 3.328125 25.921875 
z
M 12.359375 25.921875 
Q 12.359375 15.96875 16.703125 11.015625 
Q 21.046875 6.0625 27.640625 6.0625 
Q 34.1875 6.0625 38.53125 11.03125 
Q 42.875 16.015625 42.875 26.21875 
Q 42.875 35.84375 38.5 40.796875 
Q 34.125 45.75 27.640625 45.75 
Q 21.046875 45.75 16.703125 40.8125 
Q 12.359375 35.890625 12.359375 25.921875 
z
" id="ArialMT-111"/>
      <path id="ArialMT-32"/>
      <path d="M 7.71875 0 
L 7.71875 71.578125 
L 32.375 71.578125 
Q 40.71875 71.578125 45.125 70.5625 
Q 51.265625 69.140625 55.609375 65.4375 
Q 61.28125 60.640625 64.078125 53.1875 
Q 66.890625 45.75 66.890625 36.1875 
Q 66.890625 28.03125 64.984375 21.734375 
Q 63.09375 15.4375 60.109375 11.296875 
Q 57.125 7.171875 53.578125 4.796875 
Q 50.046875 2.4375 45.046875 1.21875 
Q 40.046875 0 33.546875 0 
z
M 17.1875 8.453125 
L 32.46875 8.453125 
Q 39.546875 8.453125 43.578125 9.765625 
Q 47.609375 11.078125 50 13.484375 
Q 53.375 16.84375 55.25 22.53125 
Q 57.125 28.21875 57.125 36.328125 
Q 57.125 47.5625 53.4375 53.59375 
Q 49.75 59.625 44.484375 61.671875 
Q 40.671875 63.140625 32.234375 63.140625 
L 17.1875 63.140625 
z
" id="ArialMT-68"/>
      <path d="M 42.09375 16.703125 
L 51.171875 15.578125 
Q 49.03125 7.625 43.21875 3.21875 
Q 37.40625 -1.171875 28.375 -1.171875 
Q 17 -1.171875 10.328125 5.828125 
Q 3.65625 12.84375 3.65625 25.484375 
Q 3.65625 38.578125 10.390625 45.796875 
Q 17.140625 53.03125 27.875 53.03125 
Q 38.28125 53.03125 44.875 45.953125 
Q 51.46875 38.875 51.46875 26.03125 
Q 51.46875 25.25 51.421875 23.6875 
L 12.75 23.6875 
Q 13.234375 15.140625 17.578125 10.59375 
Q 21.921875 6.0625 28.421875 6.0625 
Q 33.25 6.0625 36.671875 8.59375 
Q 40.09375 11.140625 42.09375 16.703125 
z
M 13.234375 30.90625 
L 42.1875 30.90625 
Q 41.609375 37.453125 38.875 40.71875 
Q 34.671875 45.796875 27.984375 45.796875 
Q 21.921875 45.796875 17.796875 41.75 
Q 13.671875 37.703125 13.234375 30.90625 
z
" id="ArialMT-101"/>
      <path d="M 6.390625 0 
L 6.390625 71.578125 
L 15.1875 71.578125 
L 15.1875 0 
z
" id="ArialMT-108"/>
      <path d="M 6.203125 -19.96875 
L 5.21875 -11.71875 
Q 8.109375 -12.5 10.25 -12.5 
Q 13.1875 -12.5 14.9375 -11.515625 
Q 16.703125 -10.546875 17.828125 -8.796875 
Q 18.65625 -7.46875 20.515625 -2.25 
Q 20.75 -1.515625 21.296875 -0.09375 
L 1.609375 51.859375 
L 11.078125 51.859375 
L 21.875 21.828125 
Q 23.96875 16.109375 25.640625 9.8125 
Q 27.15625 15.875 29.25 21.625 
L 40.328125 51.859375 
L 49.125 51.859375 
L 29.390625 -0.875 
Q 26.21875 -9.421875 24.46875 -12.640625 
Q 22.125 -17 19.09375 -19.015625 
Q 16.0625 -21.046875 11.859375 -21.046875 
Q 9.328125 -21.046875 6.203125 -19.96875 
z
" id="ArialMT-121"/>
      <path d="M 23.390625 -21.046875 
Q 16.109375 -11.859375 11.078125 0.4375 
Q 6.0625 12.75 6.0625 25.921875 
Q 6.0625 37.546875 9.8125 48.1875 
Q 14.203125 60.546875 23.390625 72.796875 
L 29.6875 72.796875 
Q 23.78125 62.640625 21.875 58.296875 
Q 18.890625 51.5625 17.1875 44.234375 
Q 15.09375 35.109375 15.09375 25.875 
Q 15.09375 2.390625 29.6875 -21.046875 
z
" id="ArialMT-40"/>
      <path d="M -1.3125 -20.796875 
L 13.375 54.6875 
L 22.40625 54.6875 
L 15.765625 20.65625 
Q 15.578125 19.625 15.421875 18.359375 
Q 15.28125 17.09375 15.28125 15.828125 
Q 15.28125 11.28125 18.140625 8.828125 
Q 21 6.390625 26.3125 6.390625 
Q 33.546875 6.390625 37.984375 10.484375 
Q 42.4375 14.59375 44 22.796875 
L 50.203125 54.6875 
L 59.1875 54.6875 
L 51.03125 12.640625 
Q 50.828125 11.71875 50.75 11.03125 
Q 50.6875 10.359375 50.6875 9.8125 
Q 50.6875 8.296875 51.296875 7.59375 
Q 51.90625 6.890625 53.21875 6.890625 
Q 53.71875 6.890625 54.5625 7.125 
Q 55.421875 7.375 56.984375 8.015625 
L 55.609375 0.78125 
Q 53.46875 -0.296875 51.515625 -0.859375 
Q 49.5625 -1.421875 47.703125 -1.421875 
Q 44.484375 -1.421875 42.65625 0.625 
Q 40.828125 2.6875 40.828125 6.296875 
Q 38.09375 2.390625 34.296875 0.484375 
Q 30.515625 -1.421875 25.390625 -1.421875 
Q 20.84375 -1.421875 17.453125 0.671875 
Q 14.0625 2.78125 12.984375 6.203125 
L 7.71875 -20.796875 
z
" id="DejaVuSans-Oblique-956"/>
      <path d="M 12.359375 -21.046875 
L 6.0625 -21.046875 
Q 20.65625 2.390625 20.65625 25.875 
Q 20.65625 35.0625 18.5625 44.09375 
Q 16.890625 51.421875 13.921875 58.15625 
Q 12.015625 62.546875 6.0625 72.796875 
L 12.359375 72.796875 
Q 21.53125 60.546875 25.921875 48.1875 
Q 29.6875 37.546875 29.6875 25.921875 
Q 29.6875 12.75 24.625 0.4375 
Q 19.578125 -11.859375 12.359375 -21.046875 
z
" id="ArialMT-41"/>
     </defs>
     <g transform="translate(354.65 479.3925)scale(0.16 -0.16)">
      <use transform="translate(0 0.203125)" xlink:href="#ArialMT-84"/>
      <use transform="translate(61.083984 0.203125)" xlink:href="#ArialMT-114"/>
      <use transform="translate(94.384766 0.203125)" xlink:href="#ArialMT-97"/>
      <use transform="translate(150 0.203125)" xlink:href="#ArialMT-110"/>
      <use transform="translate(205.615234 0.203125)" xlink:href="#ArialMT-115"/>
      <use transform="translate(255.615234 0.203125)" xlink:href="#ArialMT-109"/>
      <use transform="translate(338.916016 0.203125)" xlink:href="#ArialMT-105"/>
      <use transform="translate(361.132812 0.203125)" xlink:href="#ArialMT-115"/>
      <use transform="translate(411.132812 0.203125)" xlink:href="#ArialMT-115"/>
      <use transform="translate(461.132812 0.203125)" xlink:href="#ArialMT-105"/>
      <use transform="translate(483.349609 0.203125)" xlink:href="#ArialMT-111"/>
      <use transform="translate(538.964844 0.203125)" xlink:href="#ArialMT-110"/>
      <use transform="translate(594.580078 0.203125)" xlink:href="#ArialMT-32"/>
      <use transform="translate(622.363281 0.203125)" xlink:href="#ArialMT-68"/>
      <use transform="translate(694.580078 0.203125)" xlink:href="#ArialMT-101"/>
      <use transform="translate(750.195312 0.203125)" xlink:href="#ArialMT-108"/>
      <use transform="translate(772.412109 0.203125)" xlink:href="#ArialMT-97"/>
      <use transform="translate(828.027344 0.203125)" xlink:href="#ArialMT-121"/>
      <use transform="translate(878.027344 0.203125)" xlink:href="#ArialMT-32"/>
      <use transform="translate(905.810547 0.203125)" xlink:href="#ArialMT-40"/>
      <use transform="translate(939.111328 0.203125)" xlink:href="#DejaVuSans-Oblique-956"/>
      <use transform="translate(1002.734375 0.203125)" xlink:href="#ArialMT-115"/>
      <use transform="translate(1052.734375 0.203125)" xlink:href="#ArialMT-41"/>
     </g>
    </g>
   </g>
   <g id="matplotlib.axis_2">
    <g id="ytick_1">
     <g id="line2d_21">
      <path clip-path="url(#p85d5eb5ab1)" d="M 51.01 427.132612 
L 832.21 427.132612 
" style="fill:none;stroke:#b0b0b0;stroke-linecap:square;stroke-width:0.8;"/>
     </g>
     <g id="line2d_22">
      <defs>
       <path d="M 0 0 
L -3.5 0 
" id="mc723ee8cbd" style="stroke:#000000;stroke-width:0.8;"/>
      </defs>
      <g>
       <use style="stroke:#000000;stroke-width:0.8;" x="51.01" xlink:href="#mc723ee8cbd" y="427.132612"/>
      </g>
     </g>
     <g id="text_12">
      <!-- 0 -->
      <g transform="translate(35.1125 432.858862)scale(0.16 -0.16)">
       <use xlink:href="#ArialMT-48"/>
      </g>
     </g>
    </g>
    <g id="ytick_2">
     <g id="line2d_23">
      <path clip-path="url(#p85d5eb5ab1)" d="M 51.01 330.553991 
L 832.21 330.553991 
" style="fill:none;stroke:#b0b0b0;stroke-linecap:square;stroke-width:0.8;"/>
     </g>
     <g id="line2d_24">
      <g>
       <use style="stroke:#000000;stroke-width:0.8;" x="51.01" xlink:href="#mc723ee8cbd" y="330.553991"/>
      </g>
     </g>
     <g id="text_13">
      <!-- 5 -->
      <g transform="translate(35.1125 336.280241)scale(0.16 -0.16)">
       <use xlink:href="#ArialMT-53"/>
      </g>
     </g>
    </g>
    <g id="ytick_3">
     <g id="line2d_25">
      <path clip-path="url(#p85d5eb5ab1)" d="M 51.01 233.975371 
L 832.21 233.975371 
" style="fill:none;stroke:#b0b0b0;stroke-linecap:square;stroke-width:0.8;"/>
     </g>
     <g id="line2d_26">
      <g>
       <use style="stroke:#000000;stroke-width:0.8;" x="51.01" xlink:href="#mc723ee8cbd" y="233.975371"/>
      </g>
     </g>
     <g id="text_14">
      <!-- 10 -->
      <g transform="translate(26.215 239.701621)scale(0.16 -0.16)">
       <use xlink:href="#ArialMT-49"/>
       <use x="55.615234" xlink:href="#ArialMT-48"/>
      </g>
     </g>
    </g>
    <g id="ytick_4">
     <g id="line2d_27">
      <path clip-path="url(#p85d5eb5ab1)" d="M 51.01 137.396751 
L 832.21 137.396751 
" style="fill:none;stroke:#b0b0b0;stroke-linecap:square;stroke-width:0.8;"/>
     </g>
     <g id="line2d_28">
      <g>
       <use style="stroke:#000000;stroke-width:0.8;" x="51.01" xlink:href="#mc723ee8cbd" y="137.396751"/>
      </g>
     </g>
     <g id="text_15">
      <!-- 15 -->
      <g transform="translate(26.215 143.123001)scale(0.16 -0.16)">
       <use xlink:href="#ArialMT-49"/>
       <use x="55.615234" xlink:href="#ArialMT-53"/>
      </g>
     </g>
    </g>
    <g id="ytick_5">
     <g id="line2d_29">
      <path clip-path="url(#p85d5eb5ab1)" d="M 51.01 40.81813 
L 832.21 40.81813 
" style="fill:none;stroke:#b0b0b0;stroke-linecap:square;stroke-width:0.8;"/>
     </g>
     <g id="line2d_30">
      <g>
       <use style="stroke:#000000;stroke-width:0.8;" x="51.01" xlink:href="#mc723ee8cbd" y="40.81813"/>
      </g>
     </g>
     <g id="text_16">
      <!-- 20 -->
      <g transform="translate(26.215 46.54438)scale(0.16 -0.16)">
       <use xlink:href="#ArialMT-50"/>
       <use x="55.615234" xlink:href="#ArialMT-48"/>
      </g>
     </g>
    </g>
    <g id="text_17">
     <!-- Time Delay (ns) -->
     <g transform="translate(18.8475 281.08625)rotate(-90)scale(0.16 -0.16)">
      <use xlink:href="#ArialMT-84"/>
      <use x="61.037109" xlink:href="#ArialMT-105"/>
      <use x="83.253906" xlink:href="#ArialMT-109"/>
      <use x="166.554688" xlink:href="#ArialMT-101"/>
      <use x="222.169922" xlink:href="#ArialMT-32"/>
      <use x="249.953125" xlink:href="#ArialMT-68"/>
      <use x="322.169922" xlink:href="#ArialMT-101"/>
      <use x="377.785156" xlink:href="#ArialMT-108"/>
      <use x="400.001953" xlink:href="#ArialMT-97"/>
      <use x="455.617188" xlink:href="#ArialMT-121"/>
      <use x="505.617188" xlink:href="#ArialMT-32"/>
      <use x="533.400391" xlink:href="#ArialMT-40"/>
      <use x="566.701172" xlink:href="#ArialMT-110"/>
      <use x="622.316406" xlink:href="#ArialMT-115"/>
      <use x="672.316406" xlink:href="#ArialMT-41"/>
     </g>
    </g>
   </g>
   <g id="line2d_31">
    <defs>
     <path d="M 0 3 
C 0.795609 3 1.55874 2.683901 2.12132 2.12132 
C 2.683901 1.55874 3 0.795609 3 0 
C 3 -0.795609 2.683901 -1.55874 2.12132 -2.12132 
C 1.55874 -2.683901 0.795609 -3 0 -3 
C -0.795609 -3 -1.55874 -2.683901 -2.12132 -2.12132 
C -2.683901 -1.55874 -3 -0.795609 -3 0 
C -3 0.795609 -2.683901 1.55874 -2.12132 2.12132 
C -1.55874 2.683901 -0.795609 3 0 3 
z
" id="m32687e6327" style="stroke:#000000;"/>
    </defs>
    <g clip-path="url(#p85d5eb5ab1)">
     <use style="stroke:#000000;" x="86.519091" xlink:href="#m32687e6327" y="358.701458"/>
     <use style="stroke:#000000;" x="93.692645" xlink:href="#m32687e6327" y="337.234997"/>
     <use style="stroke:#000000;" x="100.866198" xlink:href="#m32687e6327" y="331.846938"/>
     <use style="stroke:#000000;" x="108.039752" xlink:href="#m32687e6327" y="322.277479"/>
     <use style="stroke:#000000;" x="115.213306" xlink:href="#m32687e6327" y="311.752682"/>
     <use style="stroke:#000000;" x="122.38686" xlink:href="#m32687e6327" y="322.302194"/>
     <use style="stroke:#000000;" x="129.560413" xlink:href="#m32687e6327" y="277.211563"/>
     <use style="stroke:#000000;" x="136.733967" xlink:href="#m32687e6327" y="288.340678"/>
     <use style="stroke:#000000;" x="143.907521" xlink:href="#m32687e6327" y="275.445539"/>
     <use style="stroke:#000000;" x="151.081074" xlink:href="#m32687e6327" y="273.318416"/>
     <use style="stroke:#000000;" x="158.254628" xlink:href="#m32687e6327" y="270.229176"/>
     <use style="stroke:#000000;" x="165.428182" xlink:href="#m32687e6327" y="255.153627"/>
     <use style="stroke:#000000;" x="172.601736" xlink:href="#m32687e6327" y="248.07028"/>
     <use style="stroke:#000000;" x="179.775289" xlink:href="#m32687e6327" y="247.855986"/>
     <use style="stroke:#000000;" x="186.948843" xlink:href="#m32687e6327" y="258.041311"/>
     <use style="stroke:#000000;" x="194.122397" xlink:href="#m32687e6327" y="241.221586"/>
     <use style="stroke:#000000;" x="201.29595" xlink:href="#m32687e6327" y="230.028218"/>
     <use style="stroke:#000000;" x="208.469504" xlink:href="#m32687e6327" y="234.455904"/>
     <use style="stroke:#000000;" x="215.643058" xlink:href="#m32687e6327" y="213.639031"/>
     <use style="stroke:#000000;" x="222.816612" xlink:href="#m32687e6327" y="185.853061"/>
     <use style="stroke:#000000;" x="229.990165" xlink:href="#m32687e6327" y="191.656654"/>
     <use style="stroke:#000000;" x="237.163719" xlink:href="#m32687e6327" y="184.618011"/>
     <use style="stroke:#000000;" x="244.337273" xlink:href="#m32687e6327" y="180.0215"/>
     <use style="stroke:#000000;" x="251.510826" xlink:href="#m32687e6327" y="179.33821"/>
     <use style="stroke:#000000;" x="258.68438" xlink:href="#m32687e6327" y="164.611113"/>
     <use style="stroke:#000000;" x="265.857934" xlink:href="#m32687e6327" y="151.304897"/>
     <use style="stroke:#000000;" x="273.031488" xlink:href="#m32687e6327" y="161.917333"/>
     <use style="stroke:#000000;" x="280.205041" xlink:href="#m32687e6327" y="133.614267"/>
     <use style="stroke:#000000;" x="287.378595" xlink:href="#m32687e6327" y="123.938076"/>
     <use style="stroke:#000000;" x="294.552149" xlink:href="#m32687e6327" y="123.958005"/>
     <use style="stroke:#000000;" x="301.725702" xlink:href="#m32687e6327" y="129.33689"/>
     <use style="stroke:#000000;" x="308.899256" xlink:href="#m32687e6327" y="104.711126"/>
     <use style="stroke:#000000;" x="316.07281" xlink:href="#m32687e6327" y="77.298075"/>
     <use style="stroke:#000000;" x="323.246364" xlink:href="#m32687e6327" y="95.404882"/>
     <use style="stroke:#000000;" x="330.419917" xlink:href="#m32687e6327" y="80.163941"/>
     <use style="stroke:#000000;" x="337.593471" xlink:href="#m32687e6327" y="79.639128"/>
     <use style="stroke:#000000;" x="344.767025" xlink:href="#m32687e6327" y="78.612595"/>
     <use style="stroke:#000000;" x="351.940579" xlink:href="#m32687e6327" y="99.4886"/>
     <use style="stroke:#000000;" x="359.114132" xlink:href="#m32687e6327" y="122.634497"/>
     <use style="stroke:#000000;" x="366.287686" xlink:href="#m32687e6327" y="120.544575"/>
     <use style="stroke:#000000;" x="373.46124" xlink:href="#m32687e6327" y="135.260923"/>
     <use style="stroke:#000000;" x="380.634793" xlink:href="#m32687e6327" y="105.542677"/>
     <use style="stroke:#000000;" x="387.808347" xlink:href="#m32687e6327" y="73.534137"/>
     <use style="stroke:#000000;" x="394.981901" xlink:href="#m32687e6327" y="55.497081"/>
     <use style="stroke:#000000;" x="402.155455" xlink:href="#m32687e6327" y="61.120403"/>
     <use style="stroke:#000000;" x="409.329008" xlink:href="#m32687e6327" y="69.761664"/>
     <use style="stroke:#000000;" x="416.502562" xlink:href="#m32687e6327" y="61.771224"/>
     <use style="stroke:#000000;" x="423.676116" xlink:href="#m32687e6327" y="76.331034"/>
     <use style="stroke:#000000;" x="430.849669" xlink:href="#m32687e6327" y="65.630473"/>
     <use style="stroke:#000000;" x="438.023223" xlink:href="#m32687e6327" y="71.389765"/>
     <use style="stroke:#000000;" x="445.196777" xlink:href="#m32687e6327" y="83.118024"/>
     <use style="stroke:#000000;" x="452.370331" xlink:href="#m32687e6327" y="76.532458"/>
     <use style="stroke:#000000;" x="459.543884" xlink:href="#m32687e6327" y="59.683281"/>
     <use style="stroke:#000000;" x="466.717438" xlink:href="#m32687e6327" y="63.86227"/>
     <use style="stroke:#000000;" x="473.890992" xlink:href="#m32687e6327" y="60.760061"/>
     <use style="stroke:#000000;" x="481.064545" xlink:href="#m32687e6327" y="79.1189"/>
     <use style="stroke:#000000;" x="488.238099" xlink:href="#m32687e6327" y="61.477385"/>
     <use style="stroke:#000000;" x="495.411653" xlink:href="#m32687e6327" y="52.274775"/>
     <use style="stroke:#000000;" x="502.585207" xlink:href="#m32687e6327" y="34.741861"/>
     <use style="stroke:#000000;" x="509.75876" xlink:href="#m32687e6327" y="85.798336"/>
     <use style="stroke:#000000;" x="516.932314" xlink:href="#m32687e6327" y="82.16224"/>
     <use style="stroke:#000000;" x="524.105868" xlink:href="#m32687e6327" y="70.765121"/>
     <use style="stroke:#000000;" x="531.279421" xlink:href="#m32687e6327" y="56.164585"/>
     <use style="stroke:#000000;" x="538.452975" xlink:href="#m32687e6327" y="57.790071"/>
     <use style="stroke:#000000;" x="545.626529" xlink:href="#m32687e6327" y="60.371136"/>
     <use style="stroke:#000000;" x="552.800083" xlink:href="#m32687e6327" y="60.653122"/>
     <use style="stroke:#000000;" x="559.973636" xlink:href="#m32687e6327" y="45.022925"/>
     <use style="stroke:#000000;" x="567.14719" xlink:href="#m32687e6327" y="56.165218"/>
     <use style="stroke:#000000;" x="574.320744" xlink:href="#m32687e6327" y="50.37351"/>
     <use style="stroke:#000000;" x="581.494298" xlink:href="#m32687e6327" y="69.295507"/>
     <use style="stroke:#000000;" x="588.667851" xlink:href="#m32687e6327" y="68.456295"/>
     <use style="stroke:#000000;" x="595.841405" xlink:href="#m32687e6327" y="58.314347"/>
     <use style="stroke:#000000;" x="603.014959" xlink:href="#m32687e6327" y="45.492249"/>
     <use style="stroke:#000000;" x="610.188512" xlink:href="#m32687e6327" y="32.577506"/>
     <use style="stroke:#000000;" x="617.362066" xlink:href="#m32687e6327" y="26.967273"/>
     <use style="stroke:#000000;" x="624.53562" xlink:href="#m32687e6327" y="29.594897"/>
     <use style="stroke:#000000;" x="631.709174" xlink:href="#m32687e6327" y="29.962483"/>
     <use style="stroke:#000000;" x="638.882727" xlink:href="#m32687e6327" y="27.362703"/>
     <use style="stroke:#000000;" x="646.056281" xlink:href="#m32687e6327" y="34.630168"/>
     <use style="stroke:#000000;" x="653.229835" xlink:href="#m32687e6327" y="47.376505"/>
     <use style="stroke:#000000;" x="660.403388" xlink:href="#m32687e6327" y="65.318857"/>
     <use style="stroke:#000000;" x="667.576942" xlink:href="#m32687e6327" y="65.389628"/>
     <use style="stroke:#000000;" x="674.750496" xlink:href="#m32687e6327" y="72.118746"/>
     <use style="stroke:#000000;" x="681.92405" xlink:href="#m32687e6327" y="108.969149"/>
     <use style="stroke:#000000;" x="689.097603" xlink:href="#m32687e6327" y="55.81479"/>
     <use style="stroke:#000000;" x="696.271157" xlink:href="#m32687e6327" y="46.828315"/>
     <use style="stroke:#000000;" x="703.444711" xlink:href="#m32687e6327" y="71.998502"/>
     <use style="stroke:#000000;" x="710.618264" xlink:href="#m32687e6327" y="65.414981"/>
     <use style="stroke:#000000;" x="717.791818" xlink:href="#m32687e6327" y="55.744742"/>
     <use style="stroke:#000000;" x="724.965372" xlink:href="#m32687e6327" y="101.067941"/>
     <use style="stroke:#000000;" x="732.138926" xlink:href="#m32687e6327" y="86.381481"/>
     <use style="stroke:#000000;" x="739.312479" xlink:href="#m32687e6327" y="82.229847"/>
     <use style="stroke:#000000;" x="746.486033" xlink:href="#m32687e6327" y="79.142388"/>
     <use style="stroke:#000000;" x="753.659587" xlink:href="#m32687e6327" y="55.988789"/>
     <use style="stroke:#000000;" x="760.83314" xlink:href="#m32687e6327" y="67.723638"/>
     <use style="stroke:#000000;" x="768.006694" xlink:href="#m32687e6327" y="76.641769"/>
     <use style="stroke:#000000;" x="775.180248" xlink:href="#m32687e6327" y="66.358087"/>
     <use style="stroke:#000000;" x="782.353802" xlink:href="#m32687e6327" y="89.55432"/>
     <use style="stroke:#000000;" x="789.527355" xlink:href="#m32687e6327" y="111.764823"/>
     <use style="stroke:#000000;" x="796.700909" xlink:href="#m32687e6327" y="113.614956"/>
    </g>
   </g>
   <g id="line2d_32">
    <path clip-path="url(#p85d5eb5ab1)" d="M 86.519091 358.701458 
L 93.692645 337.234997 
L 100.866198 331.846938 
L 108.039752 322.277479 
L 115.213306 311.752682 
L 122.38686 322.302194 
L 129.560413 277.211563 
L 136.733967 288.340678 
L 143.907521 275.445539 
L 151.081074 273.318416 
L 158.254628 270.229176 
L 165.428182 255.153627 
L 172.601736 248.07028 
L 179.775289 247.855986 
L 186.948843 258.041311 
L 194.122397 241.221586 
L 201.29595 230.028218 
L 208.469504 234.455904 
L 215.643058 213.639031 
L 222.816612 185.853061 
L 229.990165 191.656654 
L 237.163719 184.618011 
L 244.337273 180.0215 
L 251.510826 179.33821 
L 258.68438 164.611113 
L 265.857934 151.304897 
L 273.031488 161.917333 
L 280.205041 133.614267 
L 287.378595 123.938076 
L 294.552149 123.958005 
L 301.725702 129.33689 
L 308.899256 104.711126 
L 316.07281 77.298075 
L 323.246364 95.404882 
L 330.419917 80.163941 
L 337.593471 79.639128 
L 344.767025 78.612595 
L 351.940579 99.4886 
L 359.114132 122.634497 
L 366.287686 120.544575 
L 373.46124 135.260923 
L 380.634793 105.542677 
L 387.808347 73.534137 
L 394.981901 55.497081 
L 402.155455 61.120403 
L 409.329008 69.761664 
L 416.502562 61.771224 
L 423.676116 76.331034 
L 430.849669 65.630473 
L 438.023223 71.389765 
L 445.196777 83.118024 
L 452.370331 76.532458 
L 459.543884 59.683281 
L 466.717438 63.86227 
L 473.890992 60.760061 
L 481.064545 79.1189 
L 488.238099 61.477385 
L 495.411653 52.274775 
L 502.585207 34.741861 
L 509.75876 85.798336 
L 516.932314 82.16224 
L 524.105868 70.765121 
L 531.279421 56.164585 
L 538.452975 57.790071 
L 545.626529 60.371136 
L 552.800083 60.653122 
L 559.973636 45.022925 
L 567.14719 56.165218 
L 574.320744 50.37351 
L 581.494298 69.295507 
L 588.667851 68.456295 
L 595.841405 58.314347 
L 603.014959 45.492249 
L 610.188512 32.577506 
L 617.362066 26.967273 
L 624.53562 29.594897 
L 631.709174 29.962483 
L 638.882727 27.362703 
L 646.056281 34.630168 
L 653.229835 47.376505 
L 660.403388 65.318857 
L 667.576942 65.389628 
L 674.750496 72.118746 
L 681.92405 108.969149 
L 689.097603 55.81479 
L 696.271157 46.828315 
L 703.444711 71.998502 
L 710.618264 65.414981 
L 717.791818 55.744742 
L 724.965372 101.067941 
L 732.138926 86.381481 
L 739.312479 82.229847 
L 746.486033 79.142388 
L 753.659587 55.988789 
L 760.83314 67.723638 
L 768.006694 76.641769 
L 775.180248 66.358087 
L 782.353802 89.55432 
L 789.527355 111.764823 
L 796.700909 113.614956 
" style="fill:none;stroke:#ff0000;stroke-linecap:square;stroke-width:1.5;"/>
   </g>
   <g id="line2d_33">
    <defs>
     <path d="M 0 3 
C 0.795609 3 1.55874 2.683901 2.12132 2.12132 
C 2.683901 1.55874 3 0.795609 3 0 
C 3 -0.795609 2.683901 -1.55874 2.12132 -2.12132 
C 1.55874 -2.683901 0.795609 -3 0 -3 
C -0.795609 -3 -1.55874 -2.683901 -2.12132 -2.12132 
C -2.683901 -1.55874 -3 -0.795609 -3 0 
C -3 0.795609 -2.683901 1.55874 -2.12132 2.12132 
C -1.55874 2.683901 -0.795609 3 0 3 
z
" id="m85f6a0cdd0" style="stroke:#000080;"/>
    </defs>
    <g clip-path="url(#p85d5eb5ab1)">
     <use style="fill:#000080;stroke:#000080;" x="86.519091" xlink:href="#m85f6a0cdd0" y="422.312727"/>
     <use style="fill:#000080;stroke:#000080;" x="93.692645" xlink:href="#m85f6a0cdd0" y="412.88624"/>
     <use style="fill:#000080;stroke:#000080;" x="100.866198" xlink:href="#m85f6a0cdd0" y="396.98702"/>
     <use style="fill:#000080;stroke:#000080;" x="108.039752" xlink:href="#m85f6a0cdd0" y="396.221822"/>
     <use style="fill:#000080;stroke:#000080;" x="115.213306" xlink:href="#m85f6a0cdd0" y="388.208027"/>
     <use style="fill:#000080;stroke:#000080;" x="122.38686" xlink:href="#m85f6a0cdd0" y="384.632431"/>
     <use style="fill:#000080;stroke:#000080;" x="129.560413" xlink:href="#m85f6a0cdd0" y="363.494127"/>
     <use style="fill:#000080;stroke:#000080;" x="136.733967" xlink:href="#m85f6a0cdd0" y="383.367185"/>
     <use style="fill:#000080;stroke:#000080;" x="143.907521" xlink:href="#m85f6a0cdd0" y="382.056784"/>
     <use style="fill:#000080;stroke:#000080;" x="151.081074" xlink:href="#m85f6a0cdd0" y="379.21356"/>
     <use style="fill:#000080;stroke:#000080;" x="158.254628" xlink:href="#m85f6a0cdd0" y="363.460618"/>
     <use style="fill:#000080;stroke:#000080;" x="165.428182" xlink:href="#m85f6a0cdd0" y="368.64345"/>
     <use style="fill:#000080;stroke:#000080;" x="172.601736" xlink:href="#m85f6a0cdd0" y="362.665796"/>
     <use style="fill:#000080;stroke:#000080;" x="179.775289" xlink:href="#m85f6a0cdd0" y="364.020851"/>
     <use style="fill:#000080;stroke:#000080;" x="186.948843" xlink:href="#m85f6a0cdd0" y="353.276858"/>
     <use style="fill:#000080;stroke:#000080;" x="194.122397" xlink:href="#m85f6a0cdd0" y="356.370024"/>
     <use style="fill:#000080;stroke:#000080;" x="201.29595" xlink:href="#m85f6a0cdd0" y="345.635663"/>
     <use style="fill:#000080;stroke:#000080;" x="208.469504" xlink:href="#m85f6a0cdd0" y="345.737858"/>
     <use style="fill:#000080;stroke:#000080;" x="215.643058" xlink:href="#m85f6a0cdd0" y="339.279557"/>
     <use style="fill:#000080;stroke:#000080;" x="222.816612" xlink:href="#m85f6a0cdd0" y="338.735908"/>
     <use style="fill:#000080;stroke:#000080;" x="229.990165" xlink:href="#m85f6a0cdd0" y="323.006173"/>
     <use style="fill:#000080;stroke:#000080;" x="237.163719" xlink:href="#m85f6a0cdd0" y="317.162854"/>
     <use style="fill:#000080;stroke:#000080;" x="244.337273" xlink:href="#m85f6a0cdd0" y="322.739538"/>
     <use style="fill:#000080;stroke:#000080;" x="251.510826" xlink:href="#m85f6a0cdd0" y="305.522533"/>
     <use style="fill:#000080;stroke:#000080;" x="258.68438" xlink:href="#m85f6a0cdd0" y="309.621399"/>
     <use style="fill:#000080;stroke:#000080;" x="265.857934" xlink:href="#m85f6a0cdd0" y="301.427233"/>
     <use style="fill:#000080;stroke:#000080;" x="273.031488" xlink:href="#m85f6a0cdd0" y="295.007323"/>
     <use style="fill:#000080;stroke:#000080;" x="280.205041" xlink:href="#m85f6a0cdd0" y="315.612879"/>
     <use style="fill:#000080;stroke:#000080;" x="287.378595" xlink:href="#m85f6a0cdd0" y="311.543669"/>
     <use style="fill:#000080;stroke:#000080;" x="294.552149" xlink:href="#m85f6a0cdd0" y="308.653602"/>
     <use style="fill:#000080;stroke:#000080;" x="301.725702" xlink:href="#m85f6a0cdd0" y="314.377326"/>
     <use style="fill:#000080;stroke:#000080;" x="308.899256" xlink:href="#m85f6a0cdd0" y="305.414801"/>
     <use style="fill:#000080;stroke:#000080;" x="316.07281" xlink:href="#m85f6a0cdd0" y="291.332918"/>
     <use style="fill:#000080;stroke:#000080;" x="323.246364" xlink:href="#m85f6a0cdd0" y="289.576845"/>
     <use style="fill:#000080;stroke:#000080;" x="330.419917" xlink:href="#m85f6a0cdd0" y="294.574073"/>
     <use style="fill:#000080;stroke:#000080;" x="337.593471" xlink:href="#m85f6a0cdd0" y="300.812611"/>
     <use style="fill:#000080;stroke:#000080;" x="344.767025" xlink:href="#m85f6a0cdd0" y="295.263364"/>
     <use style="fill:#000080;stroke:#000080;" x="351.940579" xlink:href="#m85f6a0cdd0" y="287.369988"/>
     <use style="fill:#000080;stroke:#000080;" x="359.114132" xlink:href="#m85f6a0cdd0" y="285.198457"/>
     <use style="fill:#000080;stroke:#000080;" x="366.287686" xlink:href="#m85f6a0cdd0" y="272.608453"/>
     <use style="fill:#000080;stroke:#000080;" x="373.46124" xlink:href="#m85f6a0cdd0" y="261.696401"/>
     <use style="fill:#000080;stroke:#000080;" x="380.634793" xlink:href="#m85f6a0cdd0" y="260.345408"/>
     <use style="fill:#000080;stroke:#000080;" x="387.808347" xlink:href="#m85f6a0cdd0" y="246.851314"/>
     <use style="fill:#000080;stroke:#000080;" x="394.981901" xlink:href="#m85f6a0cdd0" y="237.028346"/>
     <use style="fill:#000080;stroke:#000080;" x="402.155455" xlink:href="#m85f6a0cdd0" y="225.096995"/>
     <use style="fill:#000080;stroke:#000080;" x="409.329008" xlink:href="#m85f6a0cdd0" y="236.274316"/>
     <use style="fill:#000080;stroke:#000080;" x="416.502562" xlink:href="#m85f6a0cdd0" y="241.675985"/>
     <use style="fill:#000080;stroke:#000080;" x="423.676116" xlink:href="#m85f6a0cdd0" y="251.048197"/>
     <use style="fill:#000080;stroke:#000080;" x="430.849669" xlink:href="#m85f6a0cdd0" y="268.059179"/>
     <use style="fill:#000080;stroke:#000080;" x="438.023223" xlink:href="#m85f6a0cdd0" y="263.204389"/>
     <use style="fill:#000080;stroke:#000080;" x="445.196777" xlink:href="#m85f6a0cdd0" y="247.395266"/>
     <use style="fill:#000080;stroke:#000080;" x="452.370331" xlink:href="#m85f6a0cdd0" y="240.98197"/>
     <use style="fill:#000080;stroke:#000080;" x="459.543884" xlink:href="#m85f6a0cdd0" y="225.770254"/>
     <use style="fill:#000080;stroke:#000080;" x="466.717438" xlink:href="#m85f6a0cdd0" y="222.527968"/>
     <use style="fill:#000080;stroke:#000080;" x="473.890992" xlink:href="#m85f6a0cdd0" y="210.850245"/>
     <use style="fill:#000080;stroke:#000080;" x="481.064545" xlink:href="#m85f6a0cdd0" y="206.254202"/>
     <use style="fill:#000080;stroke:#000080;" x="488.238099" xlink:href="#m85f6a0cdd0" y="216.264952"/>
     <use style="fill:#000080;stroke:#000080;" x="495.411653" xlink:href="#m85f6a0cdd0" y="215.227599"/>
     <use style="fill:#000080;stroke:#000080;" x="502.585207" xlink:href="#m85f6a0cdd0" y="222.598835"/>
     <use style="fill:#000080;stroke:#000080;" x="509.75876" xlink:href="#m85f6a0cdd0" y="216.571012"/>
     <use style="fill:#000080;stroke:#000080;" x="516.932314" xlink:href="#m85f6a0cdd0" y="210.411615"/>
     <use style="fill:#000080;stroke:#000080;" x="524.105868" xlink:href="#m85f6a0cdd0" y="200.2624"/>
     <use style="fill:#000080;stroke:#000080;" x="531.279421" xlink:href="#m85f6a0cdd0" y="199.101474"/>
     <use style="fill:#000080;stroke:#000080;" x="538.452975" xlink:href="#m85f6a0cdd0" y="175.217959"/>
     <use style="fill:#000080;stroke:#000080;" x="545.626529" xlink:href="#m85f6a0cdd0" y="155.535608"/>
     <use style="fill:#000080;stroke:#000080;" x="552.800083" xlink:href="#m85f6a0cdd0" y="174.720194"/>
     <use style="fill:#000080;stroke:#000080;" x="559.973636" xlink:href="#m85f6a0cdd0" y="174.406314"/>
     <use style="fill:#000080;stroke:#000080;" x="567.14719" xlink:href="#m85f6a0cdd0" y="195.478087"/>
     <use style="fill:#000080;stroke:#000080;" x="574.320744" xlink:href="#m85f6a0cdd0" y="221.501485"/>
     <use style="fill:#000080;stroke:#000080;" x="581.494298" xlink:href="#m85f6a0cdd0" y="231.476026"/>
     <use style="fill:#000080;stroke:#000080;" x="588.667851" xlink:href="#m85f6a0cdd0" y="239.032242"/>
     <use style="fill:#000080;stroke:#000080;" x="595.841405" xlink:href="#m85f6a0cdd0" y="221.867734"/>
     <use style="fill:#000080;stroke:#000080;" x="603.014959" xlink:href="#m85f6a0cdd0" y="199.158411"/>
     <use style="fill:#000080;stroke:#000080;" x="610.188512" xlink:href="#m85f6a0cdd0" y="194.458603"/>
     <use style="fill:#000080;stroke:#000080;" x="617.362066" xlink:href="#m85f6a0cdd0" y="198.270083"/>
     <use style="fill:#000080;stroke:#000080;" x="624.53562" xlink:href="#m85f6a0cdd0" y="203.266498"/>
     <use style="fill:#000080;stroke:#000080;" x="631.709174" xlink:href="#m85f6a0cdd0" y="194.225026"/>
     <use style="fill:#000080;stroke:#000080;" x="638.882727" xlink:href="#m85f6a0cdd0" y="221.167019"/>
     <use style="fill:#000080;stroke:#000080;" x="646.056281" xlink:href="#m85f6a0cdd0" y="235.389698"/>
     <use style="fill:#000080;stroke:#000080;" x="653.229835" xlink:href="#m85f6a0cdd0" y="246.217351"/>
     <use style="fill:#000080;stroke:#000080;" x="660.403388" xlink:href="#m85f6a0cdd0" y="238.003716"/>
     <use style="fill:#000080;stroke:#000080;" x="667.576942" xlink:href="#m85f6a0cdd0" y="240.729968"/>
     <use style="fill:#000080;stroke:#000080;" x="674.750496" xlink:href="#m85f6a0cdd0" y="232.50405"/>
     <use style="fill:#000080;stroke:#000080;" x="681.92405" xlink:href="#m85f6a0cdd0" y="212.505911"/>
     <use style="fill:#000080;stroke:#000080;" x="689.097603" xlink:href="#m85f6a0cdd0" y="219.845872"/>
     <use style="fill:#000080;stroke:#000080;" x="696.271157" xlink:href="#m85f6a0cdd0" y="190.123358"/>
     <use style="fill:#000080;stroke:#000080;" x="703.444711" xlink:href="#m85f6a0cdd0" y="220.935013"/>
     <use style="fill:#000080;stroke:#000080;" x="710.618264" xlink:href="#m85f6a0cdd0" y="241.025956"/>
     <use style="fill:#000080;stroke:#000080;" x="717.791818" xlink:href="#m85f6a0cdd0" y="252.147193"/>
     <use style="fill:#000080;stroke:#000080;" x="724.965372" xlink:href="#m85f6a0cdd0" y="277.44316"/>
     <use style="fill:#000080;stroke:#000080;" x="732.138926" xlink:href="#m85f6a0cdd0" y="273.76982"/>
     <use style="fill:#000080;stroke:#000080;" x="739.312479" xlink:href="#m85f6a0cdd0" y="277.789104"/>
     <use style="fill:#000080;stroke:#000080;" x="746.486033" xlink:href="#m85f6a0cdd0" y="243.615712"/>
     <use style="fill:#000080;stroke:#000080;" x="753.659587" xlink:href="#m85f6a0cdd0" y="240.59971"/>
     <use style="fill:#000080;stroke:#000080;" x="760.83314" xlink:href="#m85f6a0cdd0" y="258.907058"/>
     <use style="fill:#000080;stroke:#000080;" x="768.006694" xlink:href="#m85f6a0cdd0" y="265.7372"/>
     <use style="fill:#000080;stroke:#000080;" x="775.180248" xlink:href="#m85f6a0cdd0" y="258.44846"/>
     <use style="fill:#000080;stroke:#000080;" x="782.353802" xlink:href="#m85f6a0cdd0" y="281.320194"/>
     <use style="fill:#000080;stroke:#000080;" x="789.527355" xlink:href="#m85f6a0cdd0" y="297.92969"/>
     <use style="fill:#000080;stroke:#000080;" x="796.700909" xlink:href="#m85f6a0cdd0" y="300.910216"/>
    </g>
   </g>
   <g id="line2d_34">
    <path clip-path="url(#p85d5eb5ab1)" d="M 86.519091 422.312727 
L 93.692645 412.88624 
L 100.866198 396.98702 
L 108.039752 396.221822 
L 115.213306 388.208027 
L 122.38686 384.632431 
L 129.560413 363.494127 
L 136.733967 383.367185 
L 143.907521 382.056784 
L 151.081074 379.21356 
L 158.254628 363.460618 
L 165.428182 368.64345 
L 172.601736 362.665796 
L 179.775289 364.020851 
L 186.948843 353.276858 
L 194.122397 356.370024 
L 201.29595 345.635663 
L 208.469504 345.737858 
L 215.643058 339.279557 
L 222.816612 338.735908 
L 229.990165 323.006173 
L 237.163719 317.162854 
L 244.337273 322.739538 
L 251.510826 305.522533 
L 258.68438 309.621399 
L 265.857934 301.427233 
L 273.031488 295.007323 
L 280.205041 315.612879 
L 287.378595 311.543669 
L 294.552149 308.653602 
L 301.725702 314.377326 
L 308.899256 305.414801 
L 316.07281 291.332918 
L 323.246364 289.576845 
L 330.419917 294.574073 
L 337.593471 300.812611 
L 344.767025 295.263364 
L 351.940579 287.369988 
L 359.114132 285.198457 
L 366.287686 272.608453 
L 373.46124 261.696401 
L 380.634793 260.345408 
L 387.808347 246.851314 
L 394.981901 237.028346 
L 402.155455 225.096995 
L 409.329008 236.274316 
L 416.502562 241.675985 
L 423.676116 251.048197 
L 430.849669 268.059179 
L 438.023223 263.204389 
L 445.196777 247.395266 
L 452.370331 240.98197 
L 459.543884 225.770254 
L 466.717438 222.527968 
L 473.890992 210.850245 
L 481.064545 206.254202 
L 488.238099 216.264952 
L 495.411653 215.227599 
L 502.585207 222.598835 
L 509.75876 216.571012 
L 516.932314 210.411615 
L 524.105868 200.2624 
L 531.279421 199.101474 
L 538.452975 175.217959 
L 545.626529 155.535608 
L 552.800083 174.720194 
L 559.973636 174.406314 
L 567.14719 195.478087 
L 574.320744 221.501485 
L 581.494298 231.476026 
L 588.667851 239.032242 
L 595.841405 221.867734 
L 603.014959 199.158411 
L 610.188512 194.458603 
L 617.362066 198.270083 
L 624.53562 203.266498 
L 631.709174 194.225026 
L 638.882727 221.167019 
L 646.056281 235.389698 
L 653.229835 246.217351 
L 660.403388 238.003716 
L 667.576942 240.729968 
L 674.750496 232.50405 
L 681.92405 212.505911 
L 689.097603 219.845872 
L 696.271157 190.123358 
L 703.444711 220.935013 
L 710.618264 241.025956 
L 717.791818 252.147193 
L 724.965372 277.44316 
L 732.138926 273.76982 
L 739.312479 277.789104 
L 746.486033 243.615712 
L 753.659587 240.59971 
L 760.83314 258.907058 
L 768.006694 265.7372 
L 775.180248 258.44846 
L 782.353802 281.320194 
L 789.527355 297.92969 
L 796.700909 300.910216 
" style="fill:none;stroke:#808080;stroke-linecap:square;stroke-width:1.5;"/>
   </g>
   <g id="line2d_35">
    <path clip-path="url(#p85d5eb5ab1)" d="M 86.519091 363.521342 
L 93.692645 351.481369 
L 100.866198 361.99253 
L 108.039752 353.188268 
L 115.213306 350.677267 
L 122.38686 364.802375 
L 129.560413 340.850048 
L 136.733967 332.106105 
L 143.907521 320.521366 
L 151.081074 321.237468 
L 158.254628 333.90117 
L 165.428182 313.642789 
L 172.601736 312.537096 
L 179.775289 310.967747 
L 186.948843 331.897065 
L 194.122397 311.984173 
L 201.29595 311.525167 
L 208.469504 315.850658 
L 215.643058 301.492085 
L 222.816612 274.249765 
L 229.990165 295.783093 
L 237.163719 294.587769 
L 244.337273 284.414574 
L 251.510826 300.948288 
L 258.68438 282.122326 
L 265.857934 277.010275 
L 273.031488 294.042622 
L 280.205041 245.133999 
L 287.378595 239.527019 
L 294.552149 242.437015 
L 301.725702 242.092176 
L 308.899256 226.428937 
L 316.07281 213.097769 
L 323.246364 232.960648 
L 330.419917 212.72248 
L 337.593471 205.959129 
L 344.767025 210.481842 
L 351.940579 239.251224 
L 359.114132 264.568652 
L 366.287686 275.068734 
L 373.46124 300.697134 
L 380.634793 272.329881 
L 387.808347 253.815435 
L 394.981901 245.601347 
L 402.155455 263.15602 
L 409.329008 260.61996 
L 416.502562 247.22785 
L 423.676116 252.415449 
L 430.849669 224.703906 
L 438.023223 235.317987 
L 445.196777 262.855369 
L 452.370331 262.6831 
L 459.543884 261.04564 
L 466.717438 268.466913 
L 473.890992 277.042427 
L 481.064545 299.997309 
L 488.238099 272.345045 
L 495.411653 264.179788 
L 502.585207 239.275637 
L 509.75876 296.359935 
L 516.932314 298.883237 
L 524.105868 297.635332 
L 531.279421 284.195722 
L 538.452975 309.704724 
L 545.626529 331.96814 
L 552.800083 313.06554 
L 559.973636 297.749223 
L 567.14719 287.819743 
L 574.320744 256.004636 
L 581.494298 264.952092 
L 588.667851 256.556665 
L 595.841405 263.579225 
L 603.014959 273.46645 
L 610.188512 265.251514 
L 617.362066 255.829801 
L 624.53562 253.461011 
L 631.709174 262.870069 
L 638.882727 233.328295 
L 646.056281 226.373082 
L 653.229835 228.291765 
L 660.403388 254.447753 
L 667.576942 251.792272 
L 674.750496 266.747307 
L 681.92405 323.59585 
L 689.097603 263.10153 
L 696.271157 283.837569 
L 703.444711 278.1961 
L 710.618264 251.521637 
L 717.791818 230.730161 
L 724.965372 250.757392 
L 732.138926 239.744273 
L 739.312479 231.573355 
L 746.486033 262.659287 
L 753.659587 242.521691 
L 760.83314 235.949191 
L 768.006694 238.037181 
L 775.180248 235.042239 
L 782.353802 235.366737 
L 789.527355 240.967745 
L 796.700909 239.837351 
" style="fill:none;stroke:#008000;stroke-dasharray:5.55,2.4;stroke-dashoffset:0;stroke-width:1.5;"/>
   </g>
   <g id="patch_3">
    <path d="M 51.01 442.08 
L 51.01 7.2 
" style="fill:none;stroke:#000000;stroke-linecap:square;stroke-linejoin:miter;stroke-width:0.8;"/>
   </g>
   <g id="patch_4">
    <path d="M 832.21 442.08 
L 832.21 7.2 
" style="fill:none;stroke:#000000;stroke-linecap:square;stroke-linejoin:miter;stroke-width:0.8;"/>
   </g>
   <g id="patch_5">
    <path d="M 51.01 442.08 
L 832.21 442.08 
" style="fill:none;stroke:#000000;stroke-linecap:square;stroke-linejoin:miter;stroke-width:0.8;"/>
   </g>
   <g id="patch_6">
    <path d="M 51.01 7.2 
L 832.21 7.2 
" style="fill:none;stroke:#000000;stroke-linecap:square;stroke-linejoin:miter;stroke-width:0.8;"/>
   </g>
   <g id="legend_1">
    <g id="patch_7">
     <path d="M 62.21 133.9275 
L 208.13 133.9275 
Q 211.33 133.9275 211.33 130.7275 
L 211.33 18.4 
Q 211.33 15.2 208.13 15.2 
L 62.21 15.2 
Q 59.01 15.2 59.01 18.4 
L 59.01 130.7275 
Q 59.01 133.9275 62.21 133.9275 
z
" style="fill:#ffffff;opacity:0.8;stroke:#cccccc;stroke-linejoin:miter;"/>
    </g>
    <g id="line2d_36"/>
    <g id="line2d_37">
     <g>
      <use style="stroke:#000000;" x="81.41" xlink:href="#m32687e6327" y="27.6475"/>
     </g>
    </g>
    <g id="text_18">
     <!-- Raw || -->
     <defs>
      <path d="M 7.859375 0 
L 7.859375 71.578125 
L 39.59375 71.578125 
Q 49.171875 71.578125 54.140625 69.640625 
Q 59.125 67.71875 62.109375 62.828125 
Q 65.09375 57.953125 65.09375 52.046875 
Q 65.09375 44.4375 60.15625 39.203125 
Q 55.21875 33.984375 44.921875 32.5625 
Q 48.6875 30.765625 50.640625 29 
Q 54.78125 25.203125 58.5 19.484375 
L 70.953125 0 
L 59.03125 0 
L 49.5625 14.890625 
Q 45.40625 21.34375 42.71875 24.75 
Q 40.046875 28.171875 37.921875 29.53125 
Q 35.796875 30.90625 33.59375 31.453125 
Q 31.984375 31.78125 28.328125 31.78125 
L 17.328125 31.78125 
L 17.328125 0 
z
M 17.328125 39.984375 
L 37.703125 39.984375 
Q 44.1875 39.984375 47.84375 41.328125 
Q 51.515625 42.671875 53.421875 45.625 
Q 55.328125 48.578125 55.328125 52.046875 
Q 55.328125 57.125 51.640625 60.390625 
Q 47.953125 63.671875 39.984375 63.671875 
L 17.328125 63.671875 
z
" id="ArialMT-82"/>
      <path d="M 16.15625 0 
L 0.296875 51.859375 
L 9.375 51.859375 
L 17.625 21.921875 
L 20.703125 10.796875 
Q 20.90625 11.625 23.390625 21.484375 
L 31.640625 51.859375 
L 40.671875 51.859375 
L 48.4375 21.78125 
L 51.03125 11.859375 
L 54 21.875 
L 62.890625 51.859375 
L 71.4375 51.859375 
L 55.21875 0 
L 46.09375 0 
L 37.84375 31.0625 
L 35.84375 39.890625 
L 25.34375 0 
z
" id="ArialMT-119"/>
      <path d="M 9.1875 -21.046875 
L 9.1875 72.796875 
L 16.84375 72.796875 
L 16.84375 -21.046875 
z
" id="ArialMT-124"/>
     </defs>
     <g transform="translate(110.21 33.2475)scale(0.16 -0.16)">
      <use xlink:href="#ArialMT-82"/>
      <use x="72.216797" xlink:href="#ArialMT-97"/>
      <use x="127.832031" xlink:href="#ArialMT-119"/>
      <use x="200.048828" xlink:href="#ArialMT-32"/>
      <use x="227.832031" xlink:href="#ArialMT-124"/>
      <use x="253.808594" xlink:href="#ArialMT-124"/>
     </g>
    </g>
    <g id="line2d_38">
     <path d="M 65.41 50.6625 
L 97.41 50.6625 
" style="fill:none;stroke:#ff0000;stroke-linecap:square;stroke-width:1.5;"/>
    </g>
    <g id="line2d_39"/>
    <g id="text_19">
     <!-- Smoothed || -->
     <defs>
      <path d="M 4.5 23 
L 13.421875 23.78125 
Q 14.0625 18.40625 16.375 14.96875 
Q 18.703125 11.53125 23.578125 9.40625 
Q 28.46875 7.28125 34.578125 7.28125 
Q 39.984375 7.28125 44.140625 8.890625 
Q 48.296875 10.5 50.3125 13.296875 
Q 52.34375 16.109375 52.34375 19.4375 
Q 52.34375 22.796875 50.390625 25.3125 
Q 48.4375 27.828125 43.953125 29.546875 
Q 41.0625 30.671875 31.203125 33.03125 
Q 21.34375 35.40625 17.390625 37.5 
Q 12.25 40.1875 9.734375 44.15625 
Q 7.234375 48.140625 7.234375 53.078125 
Q 7.234375 58.5 10.296875 63.203125 
Q 13.375 67.921875 19.28125 70.359375 
Q 25.203125 72.796875 32.421875 72.796875 
Q 40.375 72.796875 46.453125 70.234375 
Q 52.546875 67.671875 55.8125 62.6875 
Q 59.078125 57.71875 59.328125 51.421875 
L 50.25 50.734375 
Q 49.515625 57.515625 45.28125 60.984375 
Q 41.0625 64.453125 32.8125 64.453125 
Q 24.21875 64.453125 20.28125 61.296875 
Q 16.359375 58.15625 16.359375 53.71875 
Q 16.359375 49.859375 19.140625 47.359375 
Q 21.875 44.875 33.421875 42.265625 
Q 44.96875 39.65625 49.265625 37.703125 
Q 55.515625 34.8125 58.484375 30.390625 
Q 61.46875 25.984375 61.46875 20.21875 
Q 61.46875 14.5 58.203125 9.4375 
Q 54.9375 4.390625 48.796875 1.578125 
Q 42.671875 -1.21875 35.015625 -1.21875 
Q 25.296875 -1.21875 18.71875 1.609375 
Q 12.15625 4.4375 8.421875 10.125 
Q 4.6875 15.828125 4.5 23 
z
" id="ArialMT-83"/>
      <path d="M 25.78125 7.859375 
L 27.046875 0.09375 
Q 23.34375 -0.6875 20.40625 -0.6875 
Q 15.625 -0.6875 12.984375 0.828125 
Q 10.359375 2.34375 9.28125 4.8125 
Q 8.203125 7.28125 8.203125 15.1875 
L 8.203125 45.015625 
L 1.765625 45.015625 
L 1.765625 51.859375 
L 8.203125 51.859375 
L 8.203125 64.703125 
L 16.9375 69.96875 
L 16.9375 51.859375 
L 25.78125 51.859375 
L 25.78125 45.015625 
L 16.9375 45.015625 
L 16.9375 14.703125 
Q 16.9375 10.9375 17.40625 9.859375 
Q 17.875 8.796875 18.921875 8.15625 
Q 19.96875 7.515625 21.921875 7.515625 
Q 23.390625 7.515625 25.78125 7.859375 
z
" id="ArialMT-116"/>
      <path d="M 6.59375 0 
L 6.59375 71.578125 
L 15.375 71.578125 
L 15.375 45.90625 
Q 21.53125 53.03125 30.90625 53.03125 
Q 36.671875 53.03125 40.921875 50.75 
Q 45.171875 48.484375 47 44.484375 
Q 48.828125 40.484375 48.828125 32.859375 
L 48.828125 0 
L 40.046875 0 
L 40.046875 32.859375 
Q 40.046875 39.453125 37.1875 42.453125 
Q 34.328125 45.453125 29.109375 45.453125 
Q 25.203125 45.453125 21.75 43.421875 
Q 18.3125 41.40625 16.84375 37.9375 
Q 15.375 34.46875 15.375 28.375 
L 15.375 0 
z
" id="ArialMT-104"/>
      <path d="M 40.234375 0 
L 40.234375 6.546875 
Q 35.296875 -1.171875 25.734375 -1.171875 
Q 19.53125 -1.171875 14.328125 2.25 
Q 9.125 5.671875 6.265625 11.796875 
Q 3.421875 17.921875 3.421875 25.875 
Q 3.421875 33.640625 6 39.96875 
Q 8.59375 46.296875 13.765625 49.65625 
Q 18.953125 53.03125 25.34375 53.03125 
Q 30.03125 53.03125 33.6875 51.046875 
Q 37.359375 49.078125 39.65625 45.90625 
L 39.65625 71.578125 
L 48.390625 71.578125 
L 48.390625 0 
z
M 12.453125 25.875 
Q 12.453125 15.921875 16.640625 10.984375 
Q 20.84375 6.0625 26.5625 6.0625 
Q 32.328125 6.0625 36.34375 10.765625 
Q 40.375 15.484375 40.375 25.140625 
Q 40.375 35.796875 36.265625 40.765625 
Q 32.171875 45.75 26.171875 45.75 
Q 20.3125 45.75 16.375 40.96875 
Q 12.453125 36.1875 12.453125 25.875 
z
" id="ArialMT-100"/>
     </defs>
     <g transform="translate(110.21 56.2625)scale(0.16 -0.16)">
      <use xlink:href="#ArialMT-83"/>
      <use x="66.699219" xlink:href="#ArialMT-109"/>
      <use x="150" xlink:href="#ArialMT-111"/>
      <use x="205.615234" xlink:href="#ArialMT-111"/>
      <use x="261.230469" xlink:href="#ArialMT-116"/>
      <use x="289.013672" xlink:href="#ArialMT-104"/>
      <use x="344.628906" xlink:href="#ArialMT-101"/>
      <use x="400.244141" xlink:href="#ArialMT-100"/>
      <use x="455.859375" xlink:href="#ArialMT-32"/>
      <use x="483.642578" xlink:href="#ArialMT-124"/>
      <use x="509.619141" xlink:href="#ArialMT-124"/>
     </g>
    </g>
    <g id="line2d_40"/>
    <g id="line2d_41">
     <g>
      <use style="fill:#000080;stroke:#000080;" x="81.41" xlink:href="#m85f6a0cdd0" y="73.4825"/>
     </g>
    </g>
    <g id="text_20">
     <!-- Raw $\perp$ -->
     <defs>
      <path d="M 64.09375 0 
L 5.203125 0 
L 5.203125 6.59375 
L 31.40625 6.59375 
L 31.40625 66.203125 
L 38 66.203125 
L 38 6.59375 
L 64.09375 6.59375 
z
" id="STIXGeneral-Regular-10178"/>
     </defs>
     <g transform="translate(110.21 79.0825)scale(0.16 -0.16)">
      <use transform="translate(0 0.421875)" xlink:href="#ArialMT-82"/>
      <use transform="translate(72.216797 0.421875)" xlink:href="#ArialMT-97"/>
      <use transform="translate(127.832031 0.421875)" xlink:href="#ArialMT-119"/>
      <use transform="translate(200.048828 0.421875)" xlink:href="#ArialMT-32"/>
      <use transform="translate(247.314453 0.421875)" xlink:href="#STIXGeneral-Regular-10178"/>
     </g>
    </g>
    <g id="line2d_42">
     <path d="M 65.41 96.115 
L 97.41 96.115 
" style="fill:none;stroke:#808080;stroke-linecap:square;stroke-width:1.5;"/>
    </g>
    <g id="line2d_43"/>
    <g id="text_21">
     <!-- Smoothed $\perp$ -->
     <g transform="translate(110.21 101.715)scale(0.16 -0.16)">
      <use transform="translate(0 0.203125)" xlink:href="#ArialMT-83"/>
      <use transform="translate(66.699219 0.203125)" xlink:href="#ArialMT-109"/>
      <use transform="translate(150 0.203125)" xlink:href="#ArialMT-111"/>
      <use transform="translate(205.615234 0.203125)" xlink:href="#ArialMT-111"/>
      <use transform="translate(261.230469 0.203125)" xlink:href="#ArialMT-116"/>
      <use transform="translate(289.013672 0.203125)" xlink:href="#ArialMT-104"/>
      <use transform="translate(344.628906 0.203125)" xlink:href="#ArialMT-101"/>
      <use transform="translate(400.244141 0.203125)" xlink:href="#ArialMT-100"/>
      <use transform="translate(455.859375 0.203125)" xlink:href="#ArialMT-32"/>
      <use transform="translate(503.125 0.203125)" xlink:href="#STIXGeneral-Regular-10178"/>
     </g>
    </g>
    <g id="line2d_44">
     <path d="M 65.41 118.7475 
L 97.41 118.7475 
" style="fill:none;stroke:#008000;stroke-dasharray:5.55,2.4;stroke-dashoffset:0;stroke-width:1.5;"/>
    </g>
    <g id="line2d_45"/>
    <g id="text_22">
     <!-- Difference -->
     <defs>
      <path d="M 8.6875 0 
L 8.6875 45.015625 
L 0.921875 45.015625 
L 0.921875 51.859375 
L 8.6875 51.859375 
L 8.6875 57.375 
Q 8.6875 62.59375 9.625 65.140625 
Q 10.890625 68.5625 14.078125 70.671875 
Q 17.28125 72.796875 23.046875 72.796875 
Q 26.765625 72.796875 31.25 71.921875 
L 29.9375 64.265625 
Q 27.203125 64.75 24.75 64.75 
Q 20.75 64.75 19.09375 63.03125 
Q 17.4375 61.328125 17.4375 56.640625 
L 17.4375 51.859375 
L 27.546875 51.859375 
L 27.546875 45.015625 
L 17.4375 45.015625 
L 17.4375 0 
z
" id="ArialMT-102"/>
      <path d="M 40.4375 19 
L 49.078125 17.875 
Q 47.65625 8.9375 41.8125 3.875 
Q 35.984375 -1.171875 27.484375 -1.171875 
Q 16.84375 -1.171875 10.375 5.78125 
Q 3.90625 12.75 3.90625 25.734375 
Q 3.90625 34.125 6.6875 40.421875 
Q 9.46875 46.734375 15.15625 49.875 
Q 20.84375 53.03125 27.546875 53.03125 
Q 35.984375 53.03125 41.359375 48.75 
Q 46.734375 44.484375 48.25 36.625 
L 39.703125 35.296875 
Q 38.484375 40.53125 35.375 43.15625 
Q 32.28125 45.796875 27.875 45.796875 
Q 21.234375 45.796875 17.078125 41.03125 
Q 12.9375 36.28125 12.9375 25.984375 
Q 12.9375 15.53125 16.9375 10.796875 
Q 20.953125 6.0625 27.390625 6.0625 
Q 32.5625 6.0625 36.03125 9.234375 
Q 39.5 12.40625 40.4375 19 
z
" id="ArialMT-99"/>
     </defs>
     <g transform="translate(110.21 124.3475)scale(0.16 -0.16)">
      <use xlink:href="#ArialMT-68"/>
      <use x="72.216797" xlink:href="#ArialMT-105"/>
      <use x="94.433594" xlink:href="#ArialMT-102"/>
      <use x="122.201172" xlink:href="#ArialMT-102"/>
      <use x="149.984375" xlink:href="#ArialMT-101"/>
      <use x="205.599609" xlink:href="#ArialMT-114"/>
      <use x="238.900391" xlink:href="#ArialMT-101"/>
      <use x="294.515625" xlink:href="#ArialMT-110"/>
      <use x="350.130859" xlink:href="#ArialMT-99"/>
      <use x="400.130859" xlink:href="#ArialMT-101"/>
     </g>
    </g>
   </g>
  </g>
 </g>
 <defs>
  <clipPath id="p85d5eb5ab1">
   <rect height="434.88" width="781.2" x="51.01" y="7.2"/>
  </clipPath>
 </defs>
</svg>
