<?xml version="1.0" encoding="utf-8" standalone="no"?>
<!DOCTYPE svg PUBLIC "-//W3C//DTD SVG 1.1//EN"
  "http://www.w3.org/Graphics/SVG/1.1/DTD/svg11.dtd">
<!-- Created with matplotlib (https://matplotlib.org/) -->
<svg height="228.036136pt" version="1.1" viewBox="0 0 723.87586 228.036136" width="723.87586pt" xmlns="http://www.w3.org/2000/svg" xmlns:xlink="http://www.w3.org/1999/xlink">
 <defs>
  <style type="text/css">
*{stroke-linecap:butt;stroke-linejoin:round;}
  </style>
 </defs>
 <g id="figure_1">
  <g id="patch_1">
   <path d="M 0 228.036136 
L 723.87586 228.036136 
L 723.87586 0 
L 0 0 
z
" style="fill:#ffffff;"/>
  </g>
  <g id="axes_1">
   <g id="patch_2">
    <path d="M 41.9175 180.163636 
L 346.281136 180.163636 
L 346.281136 7.2 
L 41.9175 7.2 
z
" style="fill:#ffffff;"/>
   </g>
   <g id="matplotlib.axis_1">
    <g id="xtick_1">
     <g id="line2d_1">
      <defs>
       <path d="M 0 0 
L 0 3.5 
" id="m4b8089ea4c" style="stroke:#000000;stroke-width:0.8;"/>
      </defs>
      <g>
       <use style="stroke:#000000;stroke-width:0.8;" x="55.752211" xlink:href="#m4b8089ea4c" y="180.163636"/>
      </g>
     </g>
     <g id="text_1">
      <!-- 0 -->
      <defs>
       <path d="M 4.15625 35.296875 
Q 4.15625 48 6.765625 55.734375 
Q 9.375 63.484375 14.515625 67.671875 
Q 19.671875 71.875 27.484375 71.875 
Q 33.25 71.875 37.59375 69.546875 
Q 41.9375 67.234375 44.765625 62.859375 
Q 47.609375 58.5 49.21875 52.21875 
Q 50.828125 45.953125 50.828125 35.296875 
Q 50.828125 22.703125 48.234375 14.96875 
Q 45.65625 7.234375 40.5 3 
Q 35.359375 -1.21875 27.484375 -1.21875 
Q 17.140625 -1.21875 11.234375 6.203125 
Q 4.15625 15.140625 4.15625 35.296875 
z
M 13.1875 35.296875 
Q 13.1875 17.671875 17.3125 11.828125 
Q 21.4375 6 27.484375 6 
Q 33.546875 6 37.671875 11.859375 
Q 41.796875 17.71875 41.796875 35.296875 
Q 41.796875 52.984375 37.671875 58.78125 
Q 33.546875 64.59375 27.390625 64.59375 
Q 21.34375 64.59375 17.71875 59.46875 
Q 13.1875 52.9375 13.1875 35.296875 
z
" id="ArialMT-48"/>
      </defs>
      <g transform="translate(51.303461 198.616136)scale(0.16 -0.16)">
       <use xlink:href="#ArialMT-48"/>
      </g>
     </g>
    </g>
    <g id="xtick_2">
     <g id="line2d_2">
      <g>
       <use style="stroke:#000000;stroke-width:0.8;" x="112.220418" xlink:href="#m4b8089ea4c" y="180.163636"/>
      </g>
     </g>
     <g id="text_2">
      <!-- 20 -->
      <defs>
       <path d="M 50.34375 8.453125 
L 50.34375 0 
L 3.03125 0 
Q 2.9375 3.171875 4.046875 6.109375 
Q 5.859375 10.9375 9.828125 15.625 
Q 13.8125 20.3125 21.34375 26.46875 
Q 33.015625 36.03125 37.109375 41.625 
Q 41.21875 47.21875 41.21875 52.203125 
Q 41.21875 57.421875 37.46875 61 
Q 33.734375 64.59375 27.734375 64.59375 
Q 21.390625 64.59375 17.578125 60.78125 
Q 13.765625 56.984375 13.71875 50.25 
L 4.6875 51.171875 
Q 5.609375 61.28125 11.65625 66.578125 
Q 17.71875 71.875 27.9375 71.875 
Q 38.234375 71.875 44.234375 66.15625 
Q 50.25 60.453125 50.25 52 
Q 50.25 47.703125 48.484375 43.546875 
Q 46.734375 39.40625 42.65625 34.8125 
Q 38.578125 30.21875 29.109375 22.21875 
Q 21.1875 15.578125 18.9375 13.203125 
Q 16.703125 10.84375 15.234375 8.453125 
z
" id="ArialMT-50"/>
      </defs>
      <g transform="translate(103.322918 198.616136)scale(0.16 -0.16)">
       <use xlink:href="#ArialMT-50"/>
       <use x="55.615234" xlink:href="#ArialMT-48"/>
      </g>
     </g>
    </g>
    <g id="xtick_3">
     <g id="line2d_3">
      <g>
       <use style="stroke:#000000;stroke-width:0.8;" x="168.688625" xlink:href="#m4b8089ea4c" y="180.163636"/>
      </g>
     </g>
     <g id="text_3">
      <!-- 40 -->
      <defs>
       <path d="M 32.328125 0 
L 32.328125 17.140625 
L 1.265625 17.140625 
L 1.265625 25.203125 
L 33.9375 71.578125 
L 41.109375 71.578125 
L 41.109375 25.203125 
L 50.78125 25.203125 
L 50.78125 17.140625 
L 41.109375 17.140625 
L 41.109375 0 
z
M 32.328125 25.203125 
L 32.328125 57.46875 
L 9.90625 25.203125 
z
" id="ArialMT-52"/>
      </defs>
      <g transform="translate(159.791125 198.616136)scale(0.16 -0.16)">
       <use xlink:href="#ArialMT-52"/>
       <use x="55.615234" xlink:href="#ArialMT-48"/>
      </g>
     </g>
    </g>
    <g id="xtick_4">
     <g id="line2d_4">
      <g>
       <use style="stroke:#000000;stroke-width:0.8;" x="225.156832" xlink:href="#m4b8089ea4c" y="180.163636"/>
      </g>
     </g>
     <g id="text_4">
      <!-- 60 -->
      <defs>
       <path d="M 49.75 54.046875 
L 41.015625 53.375 
Q 39.84375 58.546875 37.703125 60.890625 
Q 34.125 64.65625 28.90625 64.65625 
Q 24.703125 64.65625 21.53125 62.3125 
Q 17.390625 59.28125 14.984375 53.46875 
Q 12.59375 47.65625 12.5 36.921875 
Q 15.671875 41.75 20.265625 44.09375 
Q 24.859375 46.4375 29.890625 46.4375 
Q 38.671875 46.4375 44.84375 39.96875 
Q 51.03125 33.5 51.03125 23.25 
Q 51.03125 16.5 48.125 10.71875 
Q 45.21875 4.9375 40.140625 1.859375 
Q 35.0625 -1.21875 28.609375 -1.21875 
Q 17.625 -1.21875 10.6875 6.859375 
Q 3.765625 14.9375 3.765625 33.5 
Q 3.765625 54.25 11.421875 63.671875 
Q 18.109375 71.875 29.4375 71.875 
Q 37.890625 71.875 43.28125 67.140625 
Q 48.6875 62.40625 49.75 54.046875 
z
M 13.875 23.1875 
Q 13.875 18.65625 15.796875 14.5 
Q 17.71875 10.359375 21.1875 8.171875 
Q 24.65625 6 28.46875 6 
Q 34.03125 6 38.03125 10.484375 
Q 42.046875 14.984375 42.046875 22.703125 
Q 42.046875 30.125 38.078125 34.390625 
Q 34.125 38.671875 28.125 38.671875 
Q 22.171875 38.671875 18.015625 34.390625 
Q 13.875 30.125 13.875 23.1875 
z
" id="ArialMT-54"/>
      </defs>
      <g transform="translate(216.259332 198.616136)scale(0.16 -0.16)">
       <use xlink:href="#ArialMT-54"/>
       <use x="55.615234" xlink:href="#ArialMT-48"/>
      </g>
     </g>
    </g>
    <g id="xtick_5">
     <g id="line2d_5">
      <g>
       <use style="stroke:#000000;stroke-width:0.8;" x="281.625039" xlink:href="#m4b8089ea4c" y="180.163636"/>
      </g>
     </g>
     <g id="text_5">
      <!-- 80 -->
      <defs>
       <path d="M 17.671875 38.8125 
Q 12.203125 40.828125 9.5625 44.53125 
Q 6.9375 48.25 6.9375 53.421875 
Q 6.9375 61.234375 12.546875 66.546875 
Q 18.171875 71.875 27.484375 71.875 
Q 36.859375 71.875 42.578125 66.421875 
Q 48.296875 60.984375 48.296875 53.171875 
Q 48.296875 48.1875 45.671875 44.5 
Q 43.0625 40.828125 37.75 38.8125 
Q 44.34375 36.671875 47.78125 31.875 
Q 51.21875 27.09375 51.21875 20.453125 
Q 51.21875 11.28125 44.71875 5.03125 
Q 38.234375 -1.21875 27.640625 -1.21875 
Q 17.046875 -1.21875 10.546875 5.046875 
Q 4.046875 11.328125 4.046875 20.703125 
Q 4.046875 27.6875 7.59375 32.390625 
Q 11.140625 37.109375 17.671875 38.8125 
z
M 15.921875 53.71875 
Q 15.921875 48.640625 19.1875 45.40625 
Q 22.46875 42.1875 27.6875 42.1875 
Q 32.765625 42.1875 36.015625 45.375 
Q 39.265625 48.578125 39.265625 53.21875 
Q 39.265625 58.0625 35.90625 61.359375 
Q 32.5625 64.65625 27.59375 64.65625 
Q 22.5625 64.65625 19.234375 61.421875 
Q 15.921875 58.203125 15.921875 53.71875 
z
M 13.09375 20.65625 
Q 13.09375 16.890625 14.875 13.375 
Q 16.65625 9.859375 20.171875 7.921875 
Q 23.6875 6 27.734375 6 
Q 34.03125 6 38.125 10.046875 
Q 42.234375 14.109375 42.234375 20.359375 
Q 42.234375 26.703125 38.015625 30.859375 
Q 33.796875 35.015625 27.4375 35.015625 
Q 21.234375 35.015625 17.15625 30.90625 
Q 13.09375 26.8125 13.09375 20.65625 
z
" id="ArialMT-56"/>
      </defs>
      <g transform="translate(272.727539 198.616136)scale(0.16 -0.16)">
       <use xlink:href="#ArialMT-56"/>
       <use x="55.615234" xlink:href="#ArialMT-48"/>
      </g>
     </g>
    </g>
    <g id="xtick_6">
     <g id="line2d_6">
      <g>
       <use style="stroke:#000000;stroke-width:0.8;" x="338.093246" xlink:href="#m4b8089ea4c" y="180.163636"/>
      </g>
     </g>
     <g id="text_6">
      <!-- 100 -->
      <defs>
       <path d="M 37.25 0 
L 28.46875 0 
L 28.46875 56 
Q 25.296875 52.984375 20.140625 49.953125 
Q 14.984375 46.921875 10.890625 45.40625 
L 10.890625 53.90625 
Q 18.265625 57.375 23.78125 62.296875 
Q 29.296875 67.234375 31.59375 71.875 
L 37.25 71.875 
z
" id="ArialMT-49"/>
      </defs>
      <g transform="translate(324.746996 198.616136)scale(0.16 -0.16)">
       <use xlink:href="#ArialMT-49"/>
       <use x="55.615234" xlink:href="#ArialMT-48"/>
       <use x="111.230469" xlink:href="#ArialMT-48"/>
      </g>
     </g>
    </g>
    <g id="text_7">
     <!-- Transmission Delays [$\mu$s] -->
     <defs>
      <path d="M 25.921875 0 
L 25.921875 63.140625 
L 2.34375 63.140625 
L 2.34375 71.578125 
L 59.078125 71.578125 
L 59.078125 63.140625 
L 35.40625 63.140625 
L 35.40625 0 
z
" id="ArialMT-84"/>
      <path d="M 6.5 0 
L 6.5 51.859375 
L 14.40625 51.859375 
L 14.40625 44 
Q 17.4375 49.515625 20 51.265625 
Q 22.5625 53.03125 25.640625 53.03125 
Q 30.078125 53.03125 34.671875 50.203125 
L 31.640625 42.046875 
Q 28.421875 43.953125 25.203125 43.953125 
Q 22.3125 43.953125 20.015625 42.21875 
Q 17.71875 40.484375 16.75 37.40625 
Q 15.28125 32.71875 15.28125 27.15625 
L 15.28125 0 
z
" id="ArialMT-114"/>
      <path d="M 40.4375 6.390625 
Q 35.546875 2.25 31.03125 0.53125 
Q 26.515625 -1.171875 21.34375 -1.171875 
Q 12.796875 -1.171875 8.203125 3 
Q 3.609375 7.171875 3.609375 13.671875 
Q 3.609375 17.484375 5.34375 20.625 
Q 7.078125 23.78125 9.890625 25.6875 
Q 12.703125 27.59375 16.21875 28.5625 
Q 18.796875 29.25 24.03125 29.890625 
Q 34.671875 31.15625 39.703125 32.90625 
Q 39.75 34.71875 39.75 35.203125 
Q 39.75 40.578125 37.25 42.78125 
Q 33.890625 45.75 27.25 45.75 
Q 21.046875 45.75 18.09375 43.578125 
Q 15.140625 41.40625 13.71875 35.890625 
L 5.125 37.0625 
Q 6.296875 42.578125 8.984375 45.96875 
Q 11.671875 49.359375 16.75 51.1875 
Q 21.828125 53.03125 28.515625 53.03125 
Q 35.15625 53.03125 39.296875 51.46875 
Q 43.453125 49.90625 45.40625 47.53125 
Q 47.359375 45.171875 48.140625 41.546875 
Q 48.578125 39.3125 48.578125 33.453125 
L 48.578125 21.734375 
Q 48.578125 9.46875 49.140625 6.21875 
Q 49.703125 2.984375 51.375 0 
L 42.1875 0 
Q 40.828125 2.734375 40.4375 6.390625 
z
M 39.703125 26.03125 
Q 34.90625 24.078125 25.34375 22.703125 
Q 19.921875 21.921875 17.671875 20.9375 
Q 15.4375 19.96875 14.203125 18.09375 
Q 12.984375 16.21875 12.984375 13.921875 
Q 12.984375 10.40625 15.640625 8.0625 
Q 18.3125 5.71875 23.4375 5.71875 
Q 28.515625 5.71875 32.46875 7.9375 
Q 36.421875 10.15625 38.28125 14.015625 
Q 39.703125 17 39.703125 22.796875 
z
" id="ArialMT-97"/>
      <path d="M 6.59375 0 
L 6.59375 51.859375 
L 14.5 51.859375 
L 14.5 44.484375 
Q 20.21875 53.03125 31 53.03125 
Q 35.6875 53.03125 39.625 51.34375 
Q 43.5625 49.65625 45.515625 46.921875 
Q 47.46875 44.1875 48.25 40.4375 
Q 48.734375 37.984375 48.734375 31.890625 
L 48.734375 0 
L 39.9375 0 
L 39.9375 31.546875 
Q 39.9375 36.921875 38.90625 39.578125 
Q 37.890625 42.234375 35.28125 43.8125 
Q 32.671875 45.40625 29.15625 45.40625 
Q 23.53125 45.40625 19.453125 41.84375 
Q 15.375 38.28125 15.375 28.328125 
L 15.375 0 
z
" id="ArialMT-110"/>
      <path d="M 3.078125 15.484375 
L 11.765625 16.84375 
Q 12.5 11.625 15.84375 8.84375 
Q 19.1875 6.0625 25.203125 6.0625 
Q 31.25 6.0625 34.171875 8.515625 
Q 37.109375 10.984375 37.109375 14.3125 
Q 37.109375 17.28125 34.515625 19 
Q 32.71875 20.171875 25.53125 21.96875 
Q 15.875 24.421875 12.140625 26.203125 
Q 8.40625 27.984375 6.46875 31.125 
Q 4.546875 34.28125 4.546875 38.09375 
Q 4.546875 41.546875 6.125 44.5 
Q 7.71875 47.46875 10.453125 49.421875 
Q 12.5 50.921875 16.03125 51.96875 
Q 19.578125 53.03125 23.640625 53.03125 
Q 29.734375 53.03125 34.34375 51.265625 
Q 38.96875 49.515625 41.15625 46.5 
Q 43.359375 43.5 44.1875 38.484375 
L 35.59375 37.3125 
Q 35.015625 41.3125 32.203125 43.546875 
Q 29.390625 45.796875 24.265625 45.796875 
Q 18.21875 45.796875 15.625 43.796875 
Q 13.03125 41.796875 13.03125 39.109375 
Q 13.03125 37.40625 14.109375 36.03125 
Q 15.1875 34.625 17.484375 33.6875 
Q 18.796875 33.203125 25.25 31.453125 
Q 34.578125 28.953125 38.25 27.359375 
Q 41.9375 25.78125 44.03125 22.75 
Q 46.140625 19.734375 46.140625 15.234375 
Q 46.140625 10.84375 43.578125 6.953125 
Q 41.015625 3.078125 36.171875 0.953125 
Q 31.34375 -1.171875 25.25 -1.171875 
Q 15.140625 -1.171875 9.84375 3.03125 
Q 4.546875 7.234375 3.078125 15.484375 
z
" id="ArialMT-115"/>
      <path d="M 6.59375 0 
L 6.59375 51.859375 
L 14.453125 51.859375 
L 14.453125 44.578125 
Q 16.890625 48.390625 20.9375 50.703125 
Q 25 53.03125 30.171875 53.03125 
Q 35.9375 53.03125 39.625 50.640625 
Q 43.3125 48.25 44.828125 43.953125 
Q 50.984375 53.03125 60.84375 53.03125 
Q 68.5625 53.03125 72.703125 48.75 
Q 76.859375 44.484375 76.859375 35.59375 
L 76.859375 0 
L 68.109375 0 
L 68.109375 32.671875 
Q 68.109375 37.9375 67.25 40.25 
Q 66.40625 42.578125 64.15625 43.984375 
Q 61.921875 45.40625 58.890625 45.40625 
Q 53.421875 45.40625 49.796875 41.765625 
Q 46.1875 38.140625 46.1875 30.125 
L 46.1875 0 
L 37.40625 0 
L 37.40625 33.6875 
Q 37.40625 39.546875 35.25 42.46875 
Q 33.109375 45.40625 28.21875 45.40625 
Q 24.515625 45.40625 21.359375 43.453125 
Q 18.21875 41.5 16.796875 37.734375 
Q 15.375 33.984375 15.375 26.90625 
L 15.375 0 
z
" id="ArialMT-109"/>
      <path d="M 6.640625 61.46875 
L 6.640625 71.578125 
L 15.4375 71.578125 
L 15.4375 61.46875 
z
M 6.640625 0 
L 6.640625 51.859375 
L 15.4375 51.859375 
L 15.4375 0 
z
" id="ArialMT-105"/>
      <path d="M 3.328125 25.921875 
Q 3.328125 40.328125 11.328125 47.265625 
Q 18.015625 53.03125 27.640625 53.03125 
Q 38.328125 53.03125 45.109375 46.015625 
Q 51.90625 39.015625 51.90625 26.65625 
Q 51.90625 16.65625 48.90625 10.90625 
Q 45.90625 5.171875 40.15625 2 
Q 34.421875 -1.171875 27.640625 -1.171875 
Q 16.75 -1.171875 10.03125 5.8125 
Q 3.328125 12.796875 3.328125 25.921875 
z
M 12.359375 25.921875 
Q 12.359375 15.96875 16.703125 11.015625 
Q 21.046875 6.0625 27.640625 6.0625 
Q 34.1875 6.0625 38.53125 11.03125 
Q 42.875 16.015625 42.875 26.21875 
Q 42.875 35.84375 38.5 40.796875 
Q 34.125 45.75 27.640625 45.75 
Q 21.046875 45.75 16.703125 40.8125 
Q 12.359375 35.890625 12.359375 25.921875 
z
" id="ArialMT-111"/>
      <path id="ArialMT-32"/>
      <path d="M 7.71875 0 
L 7.71875 71.578125 
L 32.375 71.578125 
Q 40.71875 71.578125 45.125 70.5625 
Q 51.265625 69.140625 55.609375 65.4375 
Q 61.28125 60.640625 64.078125 53.1875 
Q 66.890625 45.75 66.890625 36.1875 
Q 66.890625 28.03125 64.984375 21.734375 
Q 63.09375 15.4375 60.109375 11.296875 
Q 57.125 7.171875 53.578125 4.796875 
Q 50.046875 2.4375 45.046875 1.21875 
Q 40.046875 0 33.546875 0 
z
M 17.1875 8.453125 
L 32.46875 8.453125 
Q 39.546875 8.453125 43.578125 9.765625 
Q 47.609375 11.078125 50 13.484375 
Q 53.375 16.84375 55.25 22.53125 
Q 57.125 28.21875 57.125 36.328125 
Q 57.125 47.5625 53.4375 53.59375 
Q 49.75 59.625 44.484375 61.671875 
Q 40.671875 63.140625 32.234375 63.140625 
L 17.1875 63.140625 
z
" id="ArialMT-68"/>
      <path d="M 42.09375 16.703125 
L 51.171875 15.578125 
Q 49.03125 7.625 43.21875 3.21875 
Q 37.40625 -1.171875 28.375 -1.171875 
Q 17 -1.171875 10.328125 5.828125 
Q 3.65625 12.84375 3.65625 25.484375 
Q 3.65625 38.578125 10.390625 45.796875 
Q 17.140625 53.03125 27.875 53.03125 
Q 38.28125 53.03125 44.875 45.953125 
Q 51.46875 38.875 51.46875 26.03125 
Q 51.46875 25.25 51.421875 23.6875 
L 12.75 23.6875 
Q 13.234375 15.140625 17.578125 10.59375 
Q 21.921875 6.0625 28.421875 6.0625 
Q 33.25 6.0625 36.671875 8.59375 
Q 40.09375 11.140625 42.09375 16.703125 
z
M 13.234375 30.90625 
L 42.1875 30.90625 
Q 41.609375 37.453125 38.875 40.71875 
Q 34.671875 45.796875 27.984375 45.796875 
Q 21.921875 45.796875 17.796875 41.75 
Q 13.671875 37.703125 13.234375 30.90625 
z
" id="ArialMT-101"/>
      <path d="M 6.390625 0 
L 6.390625 71.578125 
L 15.1875 71.578125 
L 15.1875 0 
z
" id="ArialMT-108"/>
      <path d="M 6.203125 -19.96875 
L 5.21875 -11.71875 
Q 8.109375 -12.5 10.25 -12.5 
Q 13.1875 -12.5 14.9375 -11.515625 
Q 16.703125 -10.546875 17.828125 -8.796875 
Q 18.65625 -7.46875 20.515625 -2.25 
Q 20.75 -1.515625 21.296875 -0.09375 
L 1.609375 51.859375 
L 11.078125 51.859375 
L 21.875 21.828125 
Q 23.96875 16.109375 25.640625 9.8125 
Q 27.15625 15.875 29.25 21.625 
L 40.328125 51.859375 
L 49.125 51.859375 
L 29.390625 -0.875 
Q 26.21875 -9.421875 24.46875 -12.640625 
Q 22.125 -17 19.09375 -19.015625 
Q 16.0625 -21.046875 11.859375 -21.046875 
Q 9.328125 -21.046875 6.203125 -19.96875 
z
" id="ArialMT-121"/>
      <path d="M 6.78125 -19.875 
L 6.78125 71.578125 
L 26.171875 71.578125 
L 26.171875 64.3125 
L 15.578125 64.3125 
L 15.578125 -12.59375 
L 26.171875 -12.59375 
L 26.171875 -19.875 
z
" id="ArialMT-91"/>
      <path d="M -1.3125 -20.796875 
L 13.375 54.6875 
L 22.40625 54.6875 
L 15.765625 20.65625 
Q 15.578125 19.625 15.421875 18.359375 
Q 15.28125 17.09375 15.28125 15.828125 
Q 15.28125 11.28125 18.140625 8.828125 
Q 21 6.390625 26.3125 6.390625 
Q 33.546875 6.390625 37.984375 10.484375 
Q 42.4375 14.59375 44 22.796875 
L 50.203125 54.6875 
L 59.1875 54.6875 
L 51.03125 12.640625 
Q 50.828125 11.71875 50.75 11.03125 
Q 50.6875 10.359375 50.6875 9.8125 
Q 50.6875 8.296875 51.296875 7.59375 
Q 51.90625 6.890625 53.21875 6.890625 
Q 53.71875 6.890625 54.5625 7.125 
Q 55.421875 7.375 56.984375 8.015625 
L 55.609375 0.78125 
Q 53.46875 -0.296875 51.515625 -0.859375 
Q 49.5625 -1.421875 47.703125 -1.421875 
Q 44.484375 -1.421875 42.65625 0.625 
Q 40.828125 2.6875 40.828125 6.296875 
Q 38.09375 2.390625 34.296875 0.484375 
Q 30.515625 -1.421875 25.390625 -1.421875 
Q 20.84375 -1.421875 17.453125 0.671875 
Q 14.0625 2.78125 12.984375 6.203125 
L 7.71875 -20.796875 
z
" id="DejaVuSans-Oblique-956"/>
      <path d="M 21.296875 -19.875 
L 1.90625 -19.875 
L 1.90625 -12.59375 
L 12.5 -12.59375 
L 12.5 64.3125 
L 1.90625 64.3125 
L 1.90625 71.578125 
L 21.296875 71.578125 
z
" id="ArialMT-93"/>
     </defs>
     <g transform="translate(104.099318 217.316136)scale(0.16 -0.16)">
      <use transform="translate(0 0.421875)" xlink:href="#ArialMT-84"/>
      <use transform="translate(61.083984 0.421875)" xlink:href="#ArialMT-114"/>
      <use transform="translate(94.384766 0.421875)" xlink:href="#ArialMT-97"/>
      <use transform="translate(150 0.421875)" xlink:href="#ArialMT-110"/>
      <use transform="translate(205.615234 0.421875)" xlink:href="#ArialMT-115"/>
      <use transform="translate(255.615234 0.421875)" xlink:href="#ArialMT-109"/>
      <use transform="translate(338.916016 0.421875)" xlink:href="#ArialMT-105"/>
      <use transform="translate(361.132812 0.421875)" xlink:href="#ArialMT-115"/>
      <use transform="translate(411.132812 0.421875)" xlink:href="#ArialMT-115"/>
      <use transform="translate(461.132812 0.421875)" xlink:href="#ArialMT-105"/>
      <use transform="translate(483.349609 0.421875)" xlink:href="#ArialMT-111"/>
      <use transform="translate(538.964844 0.421875)" xlink:href="#ArialMT-110"/>
      <use transform="translate(594.580078 0.421875)" xlink:href="#ArialMT-32"/>
      <use transform="translate(622.363281 0.421875)" xlink:href="#ArialMT-68"/>
      <use transform="translate(694.580078 0.421875)" xlink:href="#ArialMT-101"/>
      <use transform="translate(750.195312 0.421875)" xlink:href="#ArialMT-108"/>
      <use transform="translate(772.412109 0.421875)" xlink:href="#ArialMT-97"/>
      <use transform="translate(828.027344 0.421875)" xlink:href="#ArialMT-121"/>
      <use transform="translate(878.027344 0.421875)" xlink:href="#ArialMT-115"/>
      <use transform="translate(928.027344 0.421875)" xlink:href="#ArialMT-32"/>
      <use transform="translate(955.810547 0.421875)" xlink:href="#ArialMT-91"/>
      <use transform="translate(983.59375 0.421875)" xlink:href="#DejaVuSans-Oblique-956"/>
      <use transform="translate(1047.216797 0.421875)" xlink:href="#ArialMT-115"/>
      <use transform="translate(1097.216797 0.421875)" xlink:href="#ArialMT-93"/>
     </g>
    </g>
   </g>
   <g id="matplotlib.axis_2">
    <g id="ytick_1">
     <g id="line2d_7">
      <defs>
       <path d="M 0 0 
L -3.5 0 
" id="m9e08751991" style="stroke:#000000;stroke-width:0.8;"/>
      </defs>
      <g>
       <use style="stroke:#000000;stroke-width:0.8;" x="41.9175" xlink:href="#m9e08751991" y="139.578145"/>
      </g>
     </g>
     <g id="text_8">
      <!-- 2 -->
      <g transform="translate(26.02 145.304395)scale(0.16 -0.16)">
       <use xlink:href="#ArialMT-50"/>
      </g>
     </g>
    </g>
    <g id="ytick_2">
     <g id="line2d_8">
      <g>
       <use style="stroke:#000000;stroke-width:0.8;" x="41.9175" xlink:href="#m9e08751991" y="83.170133"/>
      </g>
     </g>
     <g id="text_9">
      <!-- 4 -->
      <g transform="translate(26.02 88.896383)scale(0.16 -0.16)">
       <use xlink:href="#ArialMT-52"/>
      </g>
     </g>
    </g>
    <g id="ytick_3">
     <g id="line2d_9">
      <g>
       <use style="stroke:#000000;stroke-width:0.8;" x="41.9175" xlink:href="#m9e08751991" y="26.762121"/>
      </g>
     </g>
     <g id="text_10">
      <!-- 6 -->
      <g transform="translate(26.02 32.488371)scale(0.16 -0.16)">
       <use xlink:href="#ArialMT-54"/>
      </g>
     </g>
    </g>
    <g id="text_11">
     <!-- Time Delays [ns] -->
     <g transform="translate(18.6525 153.245568)rotate(-90)scale(0.16 -0.16)">
      <use xlink:href="#ArialMT-84"/>
      <use x="61.037109" xlink:href="#ArialMT-105"/>
      <use x="83.253906" xlink:href="#ArialMT-109"/>
      <use x="166.554688" xlink:href="#ArialMT-101"/>
      <use x="222.169922" xlink:href="#ArialMT-32"/>
      <use x="249.953125" xlink:href="#ArialMT-68"/>
      <use x="322.169922" xlink:href="#ArialMT-101"/>
      <use x="377.785156" xlink:href="#ArialMT-108"/>
      <use x="400.001953" xlink:href="#ArialMT-97"/>
      <use x="455.617188" xlink:href="#ArialMT-121"/>
      <use x="505.617188" xlink:href="#ArialMT-115"/>
      <use x="555.617188" xlink:href="#ArialMT-32"/>
      <use x="583.400391" xlink:href="#ArialMT-91"/>
      <use x="611.183594" xlink:href="#ArialMT-110"/>
      <use x="666.798828" xlink:href="#ArialMT-115"/>
      <use x="716.798828" xlink:href="#ArialMT-93"/>
     </g>
    </g>
   </g>
   <g id="line2d_10">
    <path clip-path="url(#p7f943ca9ca)" d="M 55.752211 172.301653 
L 58.575621 164.994547 
L 61.399031 157.656495 
L 64.222442 151.85893 
L 67.045852 147.455592 
L 69.869263 143.733165 
L 72.692673 141.638387 
L 75.516083 125.307859 
L 78.339494 128.250102 
L 81.162904 129.851956 
L 83.986314 133.243649 
L 86.809725 122.630555 
L 89.633135 130.503765 
L 92.456545 127.39107 
L 95.279956 127.458609 
L 98.103366 129.016064 
L 100.926776 127.491112 
L 103.750187 125.245553 
L 106.573597 126.078919 
L 109.397008 114.945758 
L 112.220418 120.098199 
L 115.043828 113.89301 
L 117.867239 111.670869 
L 120.690649 118.034493 
L 123.514059 114.868115 
L 126.33747 119.13174 
L 129.16088 125.139155 
L 131.98429 114.453775 
L 134.807701 111.294627 
L 137.631111 98.158544 
L 140.454521 95.969678 
L 143.277932 83.042038 
L 146.101342 82.585503 
L 148.924752 82.96329 
L 151.748163 89.630441 
L 154.571573 89.495866 
L 157.394984 89.43831 
L 160.218394 94.466429 
L 163.041804 81.050008 
L 165.865215 79.756666 
L 168.688625 68.176735 
L 171.512035 76.702726 
L 174.335446 68.521374 
L 177.158856 85.052419 
L 179.982266 85.421734 
L 182.805677 100.950323 
L 185.629087 92.444607 
L 188.452497 93.265387 
L 191.275908 78.366375 
L 194.099318 65.942599 
L 196.922729 51.139559 
L 199.746139 48.067549 
L 202.569549 40.025816 
L 205.39296 55.894208 
L 208.21637 48.693627 
L 211.03978 69.26474 
L 213.863191 58.983679 
L 216.686601 62.938174 
L 219.510011 52.91782 
L 222.333422 43.146612 
L 225.156832 44.299593 
L 227.980242 39.947202 
L 230.803653 45.650664 
L 233.627063 50.196557 
L 236.450474 54.486176 
L 239.273884 58.971596 
L 242.097294 52.958593 
L 244.920705 36.96228 
L 247.744115 34.437315 
L 250.567525 21.580518 
L 253.390936 15.061983 
L 256.214346 27.542336 
L 259.037756 32.339801 
L 261.861167 49.887601 
L 264.684577 58.037542 
L 267.507987 53.747533 
L 270.331398 55.261693 
L 273.154808 41.312587 
L 275.978219 33.61295 
L 278.801629 21.354807 
L 281.625039 16.829841 
L 284.44845 18.288973 
L 287.27186 26.699712 
L 290.09527 42.751655 
L 292.918681 54.247294 
L 295.742091 65.120242 
L 298.565501 58.413599 
L 301.388912 57.410061 
L 304.212322 45.247084 
L 307.035732 36.391516 
L 309.859143 31.138228 
L 312.682553 37.267365 
L 315.505963 47.328365 
L 318.329374 58.038158 
L 321.152784 71.632365 
L 323.976195 81.327822 
L 326.799605 85.554745 
L 329.623015 68.009712 
L 332.446426 72.677483 
" style="fill:none;stroke:#ff0000;stroke-linecap:square;stroke-width:4;"/>
   </g>
   <g id="patch_3">
    <path d="M 41.9175 180.163636 
L 41.9175 7.2 
" style="fill:none;stroke:#000000;stroke-linecap:square;stroke-linejoin:miter;stroke-width:0.8;"/>
   </g>
   <g id="patch_4">
    <path d="M 346.281136 180.163636 
L 346.281136 7.2 
" style="fill:none;stroke:#000000;stroke-linecap:square;stroke-linejoin:miter;stroke-width:0.8;"/>
   </g>
   <g id="patch_5">
    <path d="M 41.9175 180.163636 
L 346.281136 180.163636 
" style="fill:none;stroke:#000000;stroke-linecap:square;stroke-linejoin:miter;stroke-width:0.8;"/>
   </g>
   <g id="patch_6">
    <path d="M 41.9175 7.2 
L 346.281136 7.2 
" style="fill:none;stroke:#000000;stroke-linecap:square;stroke-linejoin:miter;stroke-width:0.8;"/>
   </g>
   <g id="legend_1">
    <g id="patch_7">
     <path d="M 252.756136 172.163636 
L 335.081136 172.163636 
Q 338.281136 172.163636 338.281136 168.963636 
L 338.281136 147.931136 
Q 338.281136 144.731136 335.081136 144.731136 
L 252.756136 144.731136 
Q 249.556136 144.731136 249.556136 147.931136 
L 249.556136 168.963636 
Q 249.556136 172.163636 252.756136 172.163636 
z
" style="fill:#ffffff;opacity:0.8;stroke:#cccccc;stroke-linejoin:miter;"/>
    </g>
    <g id="line2d_11">
     <path d="M 255.956136 156.983636 
L 287.956136 156.983636 
" style="fill:none;stroke:#ff0000;stroke-linecap:square;stroke-width:4;"/>
    </g>
    <g id="line2d_12"/>
    <g id="text_12">
     <!-- NS5 -->
     <defs>
      <path d="M 7.625 0 
L 7.625 71.578125 
L 17.328125 71.578125 
L 54.9375 15.375 
L 54.9375 71.578125 
L 64.015625 71.578125 
L 64.015625 0 
L 54.296875 0 
L 16.703125 56.25 
L 16.703125 0 
z
" id="ArialMT-78"/>
      <path d="M 4.5 23 
L 13.421875 23.78125 
Q 14.0625 18.40625 16.375 14.96875 
Q 18.703125 11.53125 23.578125 9.40625 
Q 28.46875 7.28125 34.578125 7.28125 
Q 39.984375 7.28125 44.140625 8.890625 
Q 48.296875 10.5 50.3125 13.296875 
Q 52.34375 16.109375 52.34375 19.4375 
Q 52.34375 22.796875 50.390625 25.3125 
Q 48.4375 27.828125 43.953125 29.546875 
Q 41.0625 30.671875 31.203125 33.03125 
Q 21.34375 35.40625 17.390625 37.5 
Q 12.25 40.1875 9.734375 44.15625 
Q 7.234375 48.140625 7.234375 53.078125 
Q 7.234375 58.5 10.296875 63.203125 
Q 13.375 67.921875 19.28125 70.359375 
Q 25.203125 72.796875 32.421875 72.796875 
Q 40.375 72.796875 46.453125 70.234375 
Q 52.546875 67.671875 55.8125 62.6875 
Q 59.078125 57.71875 59.328125 51.421875 
L 50.25 50.734375 
Q 49.515625 57.515625 45.28125 60.984375 
Q 41.0625 64.453125 32.8125 64.453125 
Q 24.21875 64.453125 20.28125 61.296875 
Q 16.359375 58.15625 16.359375 53.71875 
Q 16.359375 49.859375 19.140625 47.359375 
Q 21.875 44.875 33.421875 42.265625 
Q 44.96875 39.65625 49.265625 37.703125 
Q 55.515625 34.8125 58.484375 30.390625 
Q 61.46875 25.984375 61.46875 20.21875 
Q 61.46875 14.5 58.203125 9.4375 
Q 54.9375 4.390625 48.796875 1.578125 
Q 42.671875 -1.21875 35.015625 -1.21875 
Q 25.296875 -1.21875 18.71875 1.609375 
Q 12.15625 4.4375 8.421875 10.125 
Q 4.6875 15.828125 4.5 23 
z
" id="ArialMT-83"/>
      <path d="M 4.15625 18.75 
L 13.375 19.53125 
Q 14.40625 12.796875 18.140625 9.390625 
Q 21.875 6 27.15625 6 
Q 33.5 6 37.890625 10.78125 
Q 42.28125 15.578125 42.28125 23.484375 
Q 42.28125 31 38.0625 35.34375 
Q 33.84375 39.703125 27 39.703125 
Q 22.75 39.703125 19.328125 37.765625 
Q 15.921875 35.84375 13.96875 32.765625 
L 5.71875 33.84375 
L 12.640625 70.609375 
L 48.25 70.609375 
L 48.25 62.203125 
L 19.671875 62.203125 
L 15.828125 42.96875 
Q 22.265625 47.46875 29.34375 47.46875 
Q 38.71875 47.46875 45.15625 40.96875 
Q 51.609375 34.46875 51.609375 24.265625 
Q 51.609375 14.546875 45.953125 7.46875 
Q 39.0625 -1.21875 27.15625 -1.21875 
Q 17.390625 -1.21875 11.203125 4.25 
Q 5.03125 9.71875 4.15625 18.75 
z
" id="ArialMT-53"/>
     </defs>
     <g transform="translate(300.756136 162.583636)scale(0.16 -0.16)">
      <use xlink:href="#ArialMT-78"/>
      <use x="72.216797" xlink:href="#ArialMT-83"/>
      <use x="138.916016" xlink:href="#ArialMT-53"/>
     </g>
    </g>
   </g>
  </g>
  <g id="axes_2">
   <g id="patch_8">
    <path d="M 407.153864 180.163636 
L 711.5175 180.163636 
L 711.5175 7.2 
L 407.153864 7.2 
z
" style="fill:#ffffff;"/>
   </g>
   <g id="matplotlib.axis_3">
    <g id="xtick_7">
     <g id="line2d_13">
      <g>
       <use style="stroke:#000000;stroke-width:0.8;" x="420.988574" xlink:href="#m4b8089ea4c" y="180.163636"/>
      </g>
     </g>
     <g id="text_13">
      <!-- 0 -->
      <g transform="translate(416.539824 198.616136)scale(0.16 -0.16)">
       <use xlink:href="#ArialMT-48"/>
      </g>
     </g>
    </g>
    <g id="xtick_8">
     <g id="line2d_14">
      <g>
       <use style="stroke:#000000;stroke-width:0.8;" x="477.456781" xlink:href="#m4b8089ea4c" y="180.163636"/>
      </g>
     </g>
     <g id="text_14">
      <!-- 20 -->
      <g transform="translate(468.559281 198.616136)scale(0.16 -0.16)">
       <use xlink:href="#ArialMT-50"/>
       <use x="55.615234" xlink:href="#ArialMT-48"/>
      </g>
     </g>
    </g>
    <g id="xtick_9">
     <g id="line2d_15">
      <g>
       <use style="stroke:#000000;stroke-width:0.8;" x="533.924989" xlink:href="#m4b8089ea4c" y="180.163636"/>
      </g>
     </g>
     <g id="text_15">
      <!-- 40 -->
      <g transform="translate(525.027489 198.616136)scale(0.16 -0.16)">
       <use xlink:href="#ArialMT-52"/>
       <use x="55.615234" xlink:href="#ArialMT-48"/>
      </g>
     </g>
    </g>
    <g id="xtick_10">
     <g id="line2d_16">
      <g>
       <use style="stroke:#000000;stroke-width:0.8;" x="590.393196" xlink:href="#m4b8089ea4c" y="180.163636"/>
      </g>
     </g>
     <g id="text_16">
      <!-- 60 -->
      <g transform="translate(581.495696 198.616136)scale(0.16 -0.16)">
       <use xlink:href="#ArialMT-54"/>
       <use x="55.615234" xlink:href="#ArialMT-48"/>
      </g>
     </g>
    </g>
    <g id="xtick_11">
     <g id="line2d_17">
      <g>
       <use style="stroke:#000000;stroke-width:0.8;" x="646.861403" xlink:href="#m4b8089ea4c" y="180.163636"/>
      </g>
     </g>
     <g id="text_17">
      <!-- 80 -->
      <g transform="translate(637.963903 198.616136)scale(0.16 -0.16)">
       <use xlink:href="#ArialMT-56"/>
       <use x="55.615234" xlink:href="#ArialMT-48"/>
      </g>
     </g>
    </g>
    <g id="xtick_12">
     <g id="line2d_18">
      <g>
       <use style="stroke:#000000;stroke-width:0.8;" x="703.32961" xlink:href="#m4b8089ea4c" y="180.163636"/>
      </g>
     </g>
     <g id="text_18">
      <!-- 100 -->
      <g transform="translate(689.98336 198.616136)scale(0.16 -0.16)">
       <use xlink:href="#ArialMT-49"/>
       <use x="55.615234" xlink:href="#ArialMT-48"/>
       <use x="111.230469" xlink:href="#ArialMT-48"/>
      </g>
     </g>
    </g>
    <g id="text_19">
     <!-- Transmission Delays [$\mu$s] -->
     <g transform="translate(469.335682 217.316136)scale(0.16 -0.16)">
      <use transform="translate(0 0.421875)" xlink:href="#ArialMT-84"/>
      <use transform="translate(61.083984 0.421875)" xlink:href="#ArialMT-114"/>
      <use transform="translate(94.384766 0.421875)" xlink:href="#ArialMT-97"/>
      <use transform="translate(150 0.421875)" xlink:href="#ArialMT-110"/>
      <use transform="translate(205.615234 0.421875)" xlink:href="#ArialMT-115"/>
      <use transform="translate(255.615234 0.421875)" xlink:href="#ArialMT-109"/>
      <use transform="translate(338.916016 0.421875)" xlink:href="#ArialMT-105"/>
      <use transform="translate(361.132812 0.421875)" xlink:href="#ArialMT-115"/>
      <use transform="translate(411.132812 0.421875)" xlink:href="#ArialMT-115"/>
      <use transform="translate(461.132812 0.421875)" xlink:href="#ArialMT-105"/>
      <use transform="translate(483.349609 0.421875)" xlink:href="#ArialMT-111"/>
      <use transform="translate(538.964844 0.421875)" xlink:href="#ArialMT-110"/>
      <use transform="translate(594.580078 0.421875)" xlink:href="#ArialMT-32"/>
      <use transform="translate(622.363281 0.421875)" xlink:href="#ArialMT-68"/>
      <use transform="translate(694.580078 0.421875)" xlink:href="#ArialMT-101"/>
      <use transform="translate(750.195312 0.421875)" xlink:href="#ArialMT-108"/>
      <use transform="translate(772.412109 0.421875)" xlink:href="#ArialMT-97"/>
      <use transform="translate(828.027344 0.421875)" xlink:href="#ArialMT-121"/>
      <use transform="translate(878.027344 0.421875)" xlink:href="#ArialMT-115"/>
      <use transform="translate(928.027344 0.421875)" xlink:href="#ArialMT-32"/>
      <use transform="translate(955.810547 0.421875)" xlink:href="#ArialMT-91"/>
      <use transform="translate(983.59375 0.421875)" xlink:href="#DejaVuSans-Oblique-956"/>
      <use transform="translate(1047.216797 0.421875)" xlink:href="#ArialMT-115"/>
      <use transform="translate(1097.216797 0.421875)" xlink:href="#ArialMT-93"/>
     </g>
    </g>
   </g>
   <g id="matplotlib.axis_4">
    <g id="ytick_4">
     <g id="line2d_19">
      <g>
       <use style="stroke:#000000;stroke-width:0.8;" x="407.153864" xlink:href="#m9e08751991" y="172.582985"/>
      </g>
     </g>
     <g id="text_20">
      <!-- 0 -->
      <g transform="translate(391.256364 178.309235)scale(0.16 -0.16)">
       <use xlink:href="#ArialMT-48"/>
      </g>
     </g>
    </g>
    <g id="ytick_5">
     <g id="line2d_20">
      <g>
       <use style="stroke:#000000;stroke-width:0.8;" x="407.153864" xlink:href="#m9e08751991" y="133.227009"/>
      </g>
     </g>
     <g id="text_21">
      <!-- 1 -->
      <g transform="translate(391.256364 138.953259)scale(0.16 -0.16)">
       <use xlink:href="#ArialMT-49"/>
      </g>
     </g>
    </g>
    <g id="ytick_6">
     <g id="line2d_21">
      <g>
       <use style="stroke:#000000;stroke-width:0.8;" x="407.153864" xlink:href="#m9e08751991" y="93.871034"/>
      </g>
     </g>
     <g id="text_22">
      <!-- 2 -->
      <g transform="translate(391.256364 99.597284)scale(0.16 -0.16)">
       <use xlink:href="#ArialMT-50"/>
      </g>
     </g>
    </g>
    <g id="ytick_7">
     <g id="line2d_22">
      <g>
       <use style="stroke:#000000;stroke-width:0.8;" x="407.153864" xlink:href="#m9e08751991" y="54.515058"/>
      </g>
     </g>
     <g id="text_23">
      <!-- 3 -->
      <defs>
       <path d="M 4.203125 18.890625 
L 12.984375 20.0625 
Q 14.5 12.59375 18.140625 9.296875 
Q 21.78125 6 27 6 
Q 33.203125 6 37.46875 10.296875 
Q 41.75 14.59375 41.75 20.953125 
Q 41.75 27 37.796875 30.921875 
Q 33.84375 34.859375 27.734375 34.859375 
Q 25.25 34.859375 21.53125 33.890625 
L 22.515625 41.609375 
Q 23.390625 41.5 23.921875 41.5 
Q 29.546875 41.5 34.03125 44.421875 
Q 38.53125 47.359375 38.53125 53.46875 
Q 38.53125 58.296875 35.25 61.46875 
Q 31.984375 64.65625 26.8125 64.65625 
Q 21.6875 64.65625 18.265625 61.421875 
Q 14.84375 58.203125 13.875 51.765625 
L 5.078125 53.328125 
Q 6.6875 62.15625 12.390625 67.015625 
Q 18.109375 71.875 26.609375 71.875 
Q 32.46875 71.875 37.390625 69.359375 
Q 42.328125 66.84375 44.9375 62.5 
Q 47.5625 58.15625 47.5625 53.265625 
Q 47.5625 48.640625 45.0625 44.828125 
Q 42.578125 41.015625 37.703125 38.765625 
Q 44.046875 37.3125 47.5625 32.6875 
Q 51.078125 28.078125 51.078125 21.140625 
Q 51.078125 11.765625 44.234375 5.25 
Q 37.40625 -1.265625 26.953125 -1.265625 
Q 17.53125 -1.265625 11.296875 4.34375 
Q 5.078125 9.96875 4.203125 18.890625 
z
" id="ArialMT-51"/>
      </defs>
      <g transform="translate(391.256364 60.241308)scale(0.16 -0.16)">
       <use xlink:href="#ArialMT-51"/>
      </g>
     </g>
    </g>
    <g id="ytick_8">
     <g id="line2d_23">
      <g>
       <use style="stroke:#000000;stroke-width:0.8;" x="407.153864" xlink:href="#m9e08751991" y="15.159082"/>
      </g>
     </g>
     <g id="text_24">
      <!-- 4 -->
      <g transform="translate(391.256364 20.885332)scale(0.16 -0.16)">
       <use xlink:href="#ArialMT-52"/>
      </g>
     </g>
    </g>
    <g id="text_25">
     <!-- Time Delays [ns] -->
     <g transform="translate(383.888864 153.245568)rotate(-90)scale(0.16 -0.16)">
      <use xlink:href="#ArialMT-84"/>
      <use x="61.037109" xlink:href="#ArialMT-105"/>
      <use x="83.253906" xlink:href="#ArialMT-109"/>
      <use x="166.554688" xlink:href="#ArialMT-101"/>
      <use x="222.169922" xlink:href="#ArialMT-32"/>
      <use x="249.953125" xlink:href="#ArialMT-68"/>
      <use x="322.169922" xlink:href="#ArialMT-101"/>
      <use x="377.785156" xlink:href="#ArialMT-108"/>
      <use x="400.001953" xlink:href="#ArialMT-97"/>
      <use x="455.617188" xlink:href="#ArialMT-121"/>
      <use x="505.617188" xlink:href="#ArialMT-115"/>
      <use x="555.617188" xlink:href="#ArialMT-32"/>
      <use x="583.400391" xlink:href="#ArialMT-91"/>
      <use x="611.183594" xlink:href="#ArialMT-110"/>
      <use x="666.798828" xlink:href="#ArialMT-115"/>
      <use x="716.798828" xlink:href="#ArialMT-93"/>
     </g>
    </g>
   </g>
   <g id="line2d_24">
    <path clip-path="url(#p3a69a114a8)" d="M 420.988574 144.3408 
L 423.811985 123.061234 
L 426.635395 151.200559 
L 429.458805 132.356479 
L 432.282216 101.34551 
L 435.105626 115.331624 
L 437.929037 140.175866 
L 440.752447 172.301653 
L 443.575857 123.506089 
L 446.399268 78.300047 
L 449.222678 124.337839 
L 452.046088 109.645986 
L 454.869499 29.706775 
L 457.692909 121.402097 
L 460.516319 52.445576 
L 463.33973 80.1433 
L 466.16314 115.243694 
L 468.98655 68.977595 
L 471.809961 73.540457 
L 474.633371 42.557979 
L 477.456781 55.109799 
L 480.280192 73.643325 
L 483.103602 100.864766 
L 485.927013 50.394147 
L 488.750423 31.349848 
L 491.573833 62.633834 
L 494.397244 55.928384 
L 497.220654 21.973699 
L 500.044064 49.811 
L 502.867475 42.825099 
L 505.690885 57.102884 
L 508.514295 34.383234 
L 511.337706 97.672084 
L 514.161116 81.689612 
L 516.984526 59.723623 
L 519.807937 95.33311 
L 522.631347 77.880145 
L 525.454758 68.715009 
L 528.278168 116.843641 
L 531.101578 63.789138 
L 533.924989 94.896518 
L 536.748399 98.181391 
L 539.571809 73.427286 
L 542.39522 90.412418 
L 545.21863 97.818552 
L 548.04204 92.183908 
L 550.865451 51.773526 
L 553.688861 118.172141 
L 556.512271 61.613827 
L 559.335682 75.10653 
L 562.159092 100.449833 
L 564.982503 15.061983 
L 567.805913 95.418971 
L 570.629323 37.873872 
L 573.452734 59.331372 
L 576.276144 74.820114 
L 579.099554 71.210088 
L 581.922965 70.476415 
L 584.746375 137.724529 
L 587.569785 78.658523 
L 590.393196 130.961415 
L 593.216606 55.798478 
L 596.040016 42.611682 
L 598.863427 104.040546 
L 601.686837 114.585605 
L 604.510248 66.826588 
L 607.333658 73.440484 
L 610.157068 31.396716 
L 612.980479 83.633835 
L 615.803889 61.991257 
L 618.627299 20.515845 
L 621.45071 77.32884 
L 624.27412 47.502899 
L 627.09753 50.276332 
L 629.920941 64.445386 
L 632.744351 87.129735 
L 635.567761 93.564443 
L 638.391172 66.452396 
L 641.214582 88.521432 
L 644.037992 23.075035 
L 646.861403 121.550864 
L 649.684813 71.231499 
L 652.508224 16.022395 
L 655.331634 38.155731 
L 658.155044 85.516803 
L 660.978455 44.072623 
L 663.801865 63.477169 
L 666.625275 34.080471 
L 669.448686 75.444831 
L 672.272096 43.65139 
L 675.095506 72.660721 
L 677.918917 55.448945 
L 680.742327 79.606596 
L 683.565737 50.330851 
L 686.389148 51.629386 
L 689.212558 115.073421 
L 692.035969 112.147858 
L 694.859379 65.74056 
L 697.682789 104.681669 
" style="fill:none;stroke:#ff0000;stroke-linecap:square;stroke-width:4;"/>
   </g>
   <g id="patch_9">
    <path d="M 407.153864 180.163636 
L 407.153864 7.2 
" style="fill:none;stroke:#000000;stroke-linecap:square;stroke-linejoin:miter;stroke-width:0.8;"/>
   </g>
   <g id="patch_10">
    <path d="M 711.5175 180.163636 
L 711.5175 7.2 
" style="fill:none;stroke:#000000;stroke-linecap:square;stroke-linejoin:miter;stroke-width:0.8;"/>
   </g>
   <g id="patch_11">
    <path d="M 407.153864 180.163636 
L 711.5175 180.163636 
" style="fill:none;stroke:#000000;stroke-linecap:square;stroke-linejoin:miter;stroke-width:0.8;"/>
   </g>
   <g id="patch_12">
    <path d="M 407.153864 7.2 
L 711.5175 7.2 
" style="fill:none;stroke:#000000;stroke-linecap:square;stroke-linejoin:miter;stroke-width:0.8;"/>
   </g>
   <g id="legend_2">
    <g id="patch_13">
     <path d="M 538.865 172.163636 
L 700.3175 172.163636 
Q 703.5175 172.163636 703.5175 168.963636 
L 703.5175 147.736136 
Q 703.5175 144.536136 700.3175 144.536136 
L 538.865 144.536136 
Q 535.665 144.536136 535.665 147.736136 
L 535.665 168.963636 
Q 535.665 172.163636 538.865 172.163636 
z
" style="fill:#ffffff;opacity:0.8;stroke:#cccccc;stroke-linejoin:miter;"/>
    </g>
    <g id="line2d_25">
     <path d="M 542.065 156.983636 
L 574.065 156.983636 
" style="fill:none;stroke:#ff0000;stroke-linecap:square;stroke-width:4;"/>
    </g>
    <g id="line2d_26"/>
    <g id="text_26">
     <!-- Cu wire sample -->
     <defs>
      <path d="M 58.796875 25.09375 
L 68.265625 22.703125 
Q 65.28125 11.03125 57.546875 4.90625 
Q 49.8125 -1.21875 38.625 -1.21875 
Q 27.046875 -1.21875 19.796875 3.484375 
Q 12.546875 8.203125 8.765625 17.140625 
Q 4.984375 26.078125 4.984375 36.328125 
Q 4.984375 47.515625 9.25 55.828125 
Q 13.53125 64.15625 21.40625 68.46875 
Q 29.296875 72.796875 38.765625 72.796875 
Q 49.515625 72.796875 56.828125 67.328125 
Q 64.15625 61.859375 67.046875 51.953125 
L 57.71875 49.75 
Q 55.21875 57.5625 50.484375 61.125 
Q 45.75 64.703125 38.578125 64.703125 
Q 30.328125 64.703125 24.78125 60.734375 
Q 19.234375 56.78125 16.984375 50.109375 
Q 14.75 43.453125 14.75 36.375 
Q 14.75 27.25 17.40625 20.4375 
Q 20.0625 13.625 25.671875 10.25 
Q 31.296875 6.890625 37.84375 6.890625 
Q 45.796875 6.890625 51.3125 11.46875 
Q 56.84375 16.0625 58.796875 25.09375 
z
" id="ArialMT-67"/>
      <path d="M 40.578125 0 
L 40.578125 7.625 
Q 34.515625 -1.171875 24.125 -1.171875 
Q 19.53125 -1.171875 15.546875 0.578125 
Q 11.578125 2.34375 9.640625 5 
Q 7.71875 7.671875 6.9375 11.53125 
Q 6.390625 14.109375 6.390625 19.734375 
L 6.390625 51.859375 
L 15.1875 51.859375 
L 15.1875 23.09375 
Q 15.1875 16.21875 15.71875 13.8125 
Q 16.546875 10.359375 19.234375 8.375 
Q 21.921875 6.390625 25.875 6.390625 
Q 29.828125 6.390625 33.296875 8.421875 
Q 36.765625 10.453125 38.203125 13.9375 
Q 39.65625 17.4375 39.65625 24.078125 
L 39.65625 51.859375 
L 48.4375 51.859375 
L 48.4375 0 
z
" id="ArialMT-117"/>
      <path d="M 16.15625 0 
L 0.296875 51.859375 
L 9.375 51.859375 
L 17.625 21.921875 
L 20.703125 10.796875 
Q 20.90625 11.625 23.390625 21.484375 
L 31.640625 51.859375 
L 40.671875 51.859375 
L 48.4375 21.78125 
L 51.03125 11.859375 
L 54 21.875 
L 62.890625 51.859375 
L 71.4375 51.859375 
L 55.21875 0 
L 46.09375 0 
L 37.84375 31.0625 
L 35.84375 39.890625 
L 25.34375 0 
z
" id="ArialMT-119"/>
      <path d="M 6.59375 -19.875 
L 6.59375 51.859375 
L 14.59375 51.859375 
L 14.59375 45.125 
Q 17.4375 49.078125 21 51.046875 
Q 24.5625 53.03125 29.640625 53.03125 
Q 36.28125 53.03125 41.359375 49.609375 
Q 46.4375 46.1875 49.015625 39.953125 
Q 51.609375 33.734375 51.609375 26.3125 
Q 51.609375 18.359375 48.75 11.984375 
Q 45.90625 5.609375 40.453125 2.21875 
Q 35.015625 -1.171875 29 -1.171875 
Q 24.609375 -1.171875 21.109375 0.6875 
Q 17.625 2.546875 15.375 5.375 
L 15.375 -19.875 
z
M 14.546875 25.640625 
Q 14.546875 15.625 18.59375 10.84375 
Q 22.65625 6.0625 28.421875 6.0625 
Q 34.28125 6.0625 38.453125 11.015625 
Q 42.625 15.96875 42.625 26.375 
Q 42.625 36.28125 38.546875 41.203125 
Q 34.46875 46.140625 28.8125 46.140625 
Q 23.1875 46.140625 18.859375 40.890625 
Q 14.546875 35.640625 14.546875 25.640625 
z
" id="ArialMT-112"/>
     </defs>
     <g transform="translate(586.865 162.583636)scale(0.16 -0.16)">
      <use xlink:href="#ArialMT-67"/>
      <use x="72.216797" xlink:href="#ArialMT-117"/>
      <use x="127.832031" xlink:href="#ArialMT-32"/>
      <use x="155.615234" xlink:href="#ArialMT-119"/>
      <use x="227.832031" xlink:href="#ArialMT-105"/>
      <use x="250.048828" xlink:href="#ArialMT-114"/>
      <use x="283.349609" xlink:href="#ArialMT-101"/>
      <use x="338.964844" xlink:href="#ArialMT-32"/>
      <use x="366.748047" xlink:href="#ArialMT-115"/>
      <use x="416.748047" xlink:href="#ArialMT-97"/>
      <use x="472.363281" xlink:href="#ArialMT-109"/>
      <use x="555.664062" xlink:href="#ArialMT-112"/>
      <use x="611.279297" xlink:href="#ArialMT-108"/>
      <use x="633.496094" xlink:href="#ArialMT-101"/>
     </g>
    </g>
   </g>
  </g>
 </g>
 <defs>
  <clipPath id="p7f943ca9ca">
   <rect height="172.963636" width="304.363636" x="41.9175" y="7.2"/>
  </clipPath>
  <clipPath id="p3a69a114a8">
   <rect height="172.963636" width="304.363636" x="407.153864" y="7.2"/>
  </clipPath>
 </defs>
</svg>
